ISO-10303-21;
HEADER;
/* Generated by software containing ST-Developer
 * from STEP Tools, Inc. (www.steptools.com) 
 */

FILE_DESCRIPTION(
/* description */ (''),
/* implementation_level */ '2;1');

FILE_NAME(
/* name */ 'Base.step',
/* time_stamp */ '2026-08-20T15:03:40+09:30',
/* author */ (''),
/* organization */ (''),
/* preprocessor_version */ 'ST-DEVELOPER v20.1',
/* originating_system */ 'Autodesk Translation Framework v15.8.0.0',
/* authorisation */ '');

FILE_SCHEMA (('AUTOMOTIVE_DESIGN { 1 0 10303 214 3 1 1 }'));
ENDSEC;

DATA;
#10=MECHANICAL_DESIGN_GEOMETRIC_PRESENTATION_REPRESENTATION('',(#13),#1285);
#11=SHAPE_REPRESENTATION_RELATIONSHIP('SRR','None',#1292,#12);
#12=ADVANCED_BREP_SHAPE_REPRESENTATION('',(#14),#1284);
#13=STYLED_ITEM('',(#1301),#14);
#14=MANIFOLD_SOLID_BREP('Body1',#729);
#15=FACE_BOUND('',#123,.T.);
#16=FACE_BOUND('',#124,.T.);
#17=FACE_BOUND('',#125,.T.);
#18=FACE_BOUND('',#126,.T.);
#19=FACE_BOUND('',#152,.T.);
#20=FACE_BOUND('',#154,.T.);
#21=FACE_BOUND('',#155,.T.);
#22=FACE_BOUND('',#156,.T.);
#23=FACE_BOUND('',#157,.T.);
#24=FACE_BOUND('',#161,.T.);
#25=FACE_BOUND('',#166,.T.);
#26=FACE_BOUND('',#171,.T.);
#27=FACE_BOUND('',#177,.T.);
#28=FACE_BOUND('',#178,.T.);
#29=FACE_BOUND('',#179,.T.);
#30=FACE_BOUND('',#180,.T.);
#31=FACE_BOUND('',#182,.T.);
#32=FACE_BOUND('',#183,.T.);
#33=FACE_BOUND('',#185,.T.);
#34=FACE_BOUND('',#186,.T.);
#35=PLANE('',#746);
#36=PLANE('',#750);
#37=PLANE('',#754);
#38=PLANE('',#759);
#39=PLANE('',#766);
#40=PLANE('',#770);
#41=PLANE('',#773);
#42=PLANE('',#776);
#43=PLANE('',#780);
#44=PLANE('',#784);
#45=PLANE('',#787);
#46=PLANE('',#790);
#47=PLANE('',#794);
#48=PLANE('',#798);
#49=PLANE('',#805);
#50=PLANE('',#806);
#51=PLANE('',#815);
#52=PLANE('',#816);
#53=PLANE('',#822);
#54=PLANE('',#823);
#55=PLANE('',#829);
#56=PLANE('',#830);
#57=PLANE('',#831);
#58=PLANE('',#832);
#59=PLANE('',#833);
#60=PLANE('',#834);
#61=PLANE('',#835);
#62=PLANE('',#836);
#63=PLANE('',#837);
#64=PLANE('',#838);
#65=FACE_OUTER_BOUND('',#117,.T.);
#66=FACE_OUTER_BOUND('',#118,.T.);
#67=FACE_OUTER_BOUND('',#119,.T.);
#68=FACE_OUTER_BOUND('',#120,.T.);
#69=FACE_OUTER_BOUND('',#121,.T.);
#70=FACE_OUTER_BOUND('',#122,.T.);
#71=FACE_OUTER_BOUND('',#127,.T.);
#72=FACE_OUTER_BOUND('',#128,.T.);
#73=FACE_OUTER_BOUND('',#129,.T.);
#74=FACE_OUTER_BOUND('',#130,.T.);
#75=FACE_OUTER_BOUND('',#131,.T.);
#76=FACE_OUTER_BOUND('',#132,.T.);
#77=FACE_OUTER_BOUND('',#133,.T.);
#78=FACE_OUTER_BOUND('',#134,.T.);
#79=FACE_OUTER_BOUND('',#135,.T.);
#80=FACE_OUTER_BOUND('',#136,.T.);
#81=FACE_OUTER_BOUND('',#137,.T.);
#82=FACE_OUTER_BOUND('',#138,.T.);
#83=FACE_OUTER_BOUND('',#139,.T.);
#84=FACE_OUTER_BOUND('',#140,.T.);
#85=FACE_OUTER_BOUND('',#141,.T.);
#86=FACE_OUTER_BOUND('',#142,.T.);
#87=FACE_OUTER_BOUND('',#143,.T.);
#88=FACE_OUTER_BOUND('',#144,.T.);
#89=FACE_OUTER_BOUND('',#145,.T.);
#90=FACE_OUTER_BOUND('',#146,.T.);
#91=FACE_OUTER_BOUND('',#147,.T.);
#92=FACE_OUTER_BOUND('',#148,.T.);
#93=FACE_OUTER_BOUND('',#149,.T.);
#94=FACE_OUTER_BOUND('',#150,.T.);
#95=FACE_OUTER_BOUND('',#151,.T.);
#96=FACE_OUTER_BOUND('',#153,.T.);
#97=FACE_OUTER_BOUND('',#158,.T.);
#98=FACE_OUTER_BOUND('',#159,.T.);
#99=FACE_OUTER_BOUND('',#160,.T.);
#100=FACE_OUTER_BOUND('',#162,.T.);
#101=FACE_OUTER_BOUND('',#163,.T.);
#102=FACE_OUTER_BOUND('',#164,.T.);
#103=FACE_OUTER_BOUND('',#165,.T.);
#104=FACE_OUTER_BOUND('',#167,.T.);
#105=FACE_OUTER_BOUND('',#168,.T.);
#106=FACE_OUTER_BOUND('',#169,.T.);
#107=FACE_OUTER_BOUND('',#170,.T.);
#108=FACE_OUTER_BOUND('',#172,.T.);
#109=FACE_OUTER_BOUND('',#173,.T.);
#110=FACE_OUTER_BOUND('',#174,.T.);
#111=FACE_OUTER_BOUND('',#175,.T.);
#112=FACE_OUTER_BOUND('',#176,.T.);
#113=FACE_OUTER_BOUND('',#181,.T.);
#114=FACE_OUTER_BOUND('',#184,.T.);
#115=FACE_OUTER_BOUND('',#187,.T.);
#116=FACE_OUTER_BOUND('',#188,.T.);
#117=EDGE_LOOP('',(#475,#476,#477,#478));
#118=EDGE_LOOP('',(#479));
#119=EDGE_LOOP('',(#480,#481,#482,#483));
#120=EDGE_LOOP('',(#484));
#121=EDGE_LOOP('',(#485,#486,#487,#488));
#122=EDGE_LOOP('',(#489,#490,#491,#492));
#123=EDGE_LOOP('',(#493));
#124=EDGE_LOOP('',(#494));
#125=EDGE_LOOP('',(#495));
#126=EDGE_LOOP('',(#496));
#127=EDGE_LOOP('',(#497,#498,#499,#500,#501,#502));
#128=EDGE_LOOP('',(#503,#504,#505,#506));
#129=EDGE_LOOP('',(#507,#508,#509,#510));
#130=EDGE_LOOP('',(#511));
#131=EDGE_LOOP('',(#512,#513,#514,#515));
#132=EDGE_LOOP('',(#516));
#133=EDGE_LOOP('',(#517,#518,#519,#520));
#134=EDGE_LOOP('',(#521));
#135=EDGE_LOOP('',(#522,#523,#524,#525));
#136=EDGE_LOOP('',(#526));
#137=EDGE_LOOP('',(#527,#528,#529,#530));
#138=EDGE_LOOP('',(#531));
#139=EDGE_LOOP('',(#532,#533,#534,#535));
#140=EDGE_LOOP('',(#536));
#141=EDGE_LOOP('',(#537,#538,#539,#540));
#142=EDGE_LOOP('',(#541));
#143=EDGE_LOOP('',(#542,#543,#544,#545));
#144=EDGE_LOOP('',(#546));
#145=EDGE_LOOP('',(#547,#548,#549,#550));
#146=EDGE_LOOP('',(#551));
#147=EDGE_LOOP('',(#552,#553,#554,#555));
#148=EDGE_LOOP('',(#556));
#149=EDGE_LOOP('',(#557,#558,#559,#560));
#150=EDGE_LOOP('',(#561,#562,#563,#564));
#151=EDGE_LOOP('',(#565));
#152=EDGE_LOOP('',(#566));
#153=EDGE_LOOP('',(#567,#568,#569,#570));
#154=EDGE_LOOP('',(#571));
#155=EDGE_LOOP('',(#572));
#156=EDGE_LOOP('',(#573));
#157=EDGE_LOOP('',(#574));
#158=EDGE_LOOP('',(#575,#576,#577,#578));
#159=EDGE_LOOP('',(#579,#580,#581,#582));
#160=EDGE_LOOP('',(#583));
#161=EDGE_LOOP('',(#584));
#162=EDGE_LOOP('',(#585));
#163=EDGE_LOOP('',(#586,#587,#588,#589));
#164=EDGE_LOOP('',(#590,#591,#592,#593));
#165=EDGE_LOOP('',(#594));
#166=EDGE_LOOP('',(#595));
#167=EDGE_LOOP('',(#596));
#168=EDGE_LOOP('',(#597,#598,#599,#600));
#169=EDGE_LOOP('',(#601,#602,#603,#604));
#170=EDGE_LOOP('',(#605));
#171=EDGE_LOOP('',(#606));
#172=EDGE_LOOP('',(#607));
#173=EDGE_LOOP('',(#608));
#174=EDGE_LOOP('',(#609,#610,#611,#612));
#175=EDGE_LOOP('',(#613,#614,#615,#616));
#176=EDGE_LOOP('',(#617,#618,#619,#620));
#177=EDGE_LOOP('',(#621));
#178=EDGE_LOOP('',(#622));
#179=EDGE_LOOP('',(#623));
#180=EDGE_LOOP('',(#624));
#181=EDGE_LOOP('',(#625,#626,#627,#628));
#182=EDGE_LOOP('',(#629));
#183=EDGE_LOOP('',(#630));
#184=EDGE_LOOP('',(#631,#632,#633,#634,#635,#636,#637,#638));
#185=EDGE_LOOP('',(#639));
#186=EDGE_LOOP('',(#640));
#187=EDGE_LOOP('',(#641,#642,#643,#644));
#188=EDGE_LOOP('',(#645,#646,#647,#648,#649,#650,#651,#652,#653,#654));
#189=LINE('',#1084,#235);
#190=LINE('',#1091,#236);
#191=LINE('',#1099,#237);
#192=LINE('',#1102,#238);
#193=LINE('',#1105,#239);
#194=LINE('',#1107,#240);
#195=LINE('',#1108,#241);
#196=LINE('',#1119,#242);
#197=LINE('',#1121,#243);
#198=LINE('',#1123,#244);
#199=LINE('',#1128,#245);
#200=LINE('',#1133,#246);
#201=LINE('',#1140,#247);
#202=LINE('',#1145,#248);
#203=LINE('',#1150,#249);
#204=LINE('',#1157,#250);
#205=LINE('',#1164,#251);
#206=LINE('',#1169,#252);
#207=LINE('',#1174,#253);
#208=LINE('',#1181,#254);
#209=LINE('',#1188,#255);
#210=LINE('',#1195,#256);
#211=LINE('',#1201,#257);
#212=LINE('',#1207,#258);
#213=LINE('',#1209,#259);
#214=LINE('',#1211,#260);
#215=LINE('',#1212,#261);
#216=LINE('',#1223,#262);
#217=LINE('',#1228,#263);
#218=LINE('',#1235,#264);
#219=LINE('',#1240,#265);
#220=LINE('',#1247,#266);
#221=LINE('',#1252,#267);
#222=LINE('',#1258,#268);
#223=LINE('',#1260,#269);
#224=LINE('',#1261,#270);
#225=LINE('',#1264,#271);
#226=LINE('',#1265,#272);
#227=LINE('',#1268,#273);
#228=LINE('',#1269,#274);
#229=LINE('',#1272,#275);
#230=LINE('',#1273,#276);
#231=LINE('',#1276,#277);
#232=LINE('',#1277,#278);
#233=LINE('',#1278,#279);
#234=LINE('',#1280,#280);
#235=VECTOR('',#845,1.05);
#236=VECTOR('',#854,1.05);
#237=VECTOR('',#863,10.);
#238=VECTOR('',#866,10.);
#239=VECTOR('',#869,10.);
#240=VECTOR('',#870,10.);
#241=VECTOR('',#871,10.);
#242=VECTOR('',#882,10.);
#243=VECTOR('',#883,10.);
#244=VECTOR('',#884,10.);
#245=VECTOR('',#891,10.);
#246=VECTOR('',#896,1.05);
#247=VECTOR('',#905,1.05);
#248=VECTOR('',#912,1.05);
#249=VECTOR('',#919,1.05);
#250=VECTOR('',#928,1.05);
#251=VECTOR('',#937,1.05);
#252=VECTOR('',#944,1.05);
#253=VECTOR('',#951,1.05);
#254=VECTOR('',#960,1.05);
#255=VECTOR('',#969,1.05);
#256=VECTOR('',#978,1.6);
#257=VECTOR('',#985,2.1);
#258=VECTOR('',#992,10.);
#259=VECTOR('',#993,10.);
#260=VECTOR('',#994,10.);
#261=VECTOR('',#995,10.);
#262=VECTOR('',#1006,1.6);
#263=VECTOR('',#1013,2.10000000000001);
#264=VECTOR('',#1022,1.6);
#265=VECTOR('',#1029,2.1);
#266=VECTOR('',#1038,1.6);
#267=VECTOR('',#1045,2.1);
#268=VECTOR('',#1054,10.);
#269=VECTOR('',#1055,10.);
#270=VECTOR('',#1056,10.);
#271=VECTOR('',#1059,10.);
#272=VECTOR('',#1060,10.);
#273=VECTOR('',#1063,10.);
#274=VECTOR('',#1064,10.);
#275=VECTOR('',#1067,10.);
#276=VECTOR('',#1068,10.);
#277=VECTOR('',#1071,10.);
#278=VECTOR('',#1072,10.);
#279=VECTOR('',#1073,10.);
#280=VECTOR('',#1076,10.);
#281=CIRCLE('',#744,1.05);
#282=CIRCLE('',#745,1.05);
#283=CIRCLE('',#748,1.05);
#284=CIRCLE('',#749,1.05);
#285=CIRCLE('',#752,1.28);
#286=CIRCLE('',#753,1.28);
#287=CIRCLE('',#755,1.05);
#288=CIRCLE('',#756,1.05);
#289=CIRCLE('',#757,1.05);
#290=CIRCLE('',#758,1.05);
#291=CIRCLE('',#760,1.28);
#292=CIRCLE('',#762,1.28);
#293=CIRCLE('',#764,1.05);
#294=CIRCLE('',#765,1.05);
#295=CIRCLE('',#768,1.05);
#296=CIRCLE('',#769,1.05);
#297=CIRCLE('',#772,1.05);
#298=CIRCLE('',#775,1.05);
#299=CIRCLE('',#778,1.05);
#300=CIRCLE('',#779,1.05);
#301=CIRCLE('',#782,1.05);
#302=CIRCLE('',#783,1.05);
#303=CIRCLE('',#786,1.05);
#304=CIRCLE('',#789,1.05);
#305=CIRCLE('',#792,1.05);
#306=CIRCLE('',#793,1.05);
#307=CIRCLE('',#796,1.05);
#308=CIRCLE('',#797,1.05);
#309=CIRCLE('',#800,1.6);
#310=CIRCLE('',#801,1.6);
#311=CIRCLE('',#803,2.1);
#312=CIRCLE('',#804,2.1);
#313=CIRCLE('',#807,2.10000000000001);
#314=CIRCLE('',#808,2.1);
#315=CIRCLE('',#809,2.1);
#316=CIRCLE('',#811,1.6);
#317=CIRCLE('',#812,1.6);
#318=CIRCLE('',#814,2.10000000000001);
#319=CIRCLE('',#818,1.6);
#320=CIRCLE('',#819,1.6);
#321=CIRCLE('',#821,2.1);
#322=CIRCLE('',#825,1.6);
#323=CIRCLE('',#826,1.6);
#324=CIRCLE('',#828,2.1);
#325=VERTEX_POINT('',#1081);
#326=VERTEX_POINT('',#1083);
#327=VERTEX_POINT('',#1088);
#328=VERTEX_POINT('',#1090);
#329=VERTEX_POINT('',#1095);
#330=VERTEX_POINT('',#1096);
#331=VERTEX_POINT('',#1098);
#332=VERTEX_POINT('',#1100);
#333=VERTEX_POINT('',#1104);
#334=VERTEX_POINT('',#1106);
#335=VERTEX_POINT('',#1109);
#336=VERTEX_POINT('',#1111);
#337=VERTEX_POINT('',#1113);
#338=VERTEX_POINT('',#1115);
#339=VERTEX_POINT('',#1118);
#340=VERTEX_POINT('',#1120);
#341=VERTEX_POINT('',#1122);
#342=VERTEX_POINT('',#1126);
#343=VERTEX_POINT('',#1130);
#344=VERTEX_POINT('',#1132);
#345=VERTEX_POINT('',#1137);
#346=VERTEX_POINT('',#1139);
#347=VERTEX_POINT('',#1144);
#348=VERTEX_POINT('',#1149);
#349=VERTEX_POINT('',#1154);
#350=VERTEX_POINT('',#1156);
#351=VERTEX_POINT('',#1161);
#352=VERTEX_POINT('',#1163);
#353=VERTEX_POINT('',#1168);
#354=VERTEX_POINT('',#1173);
#355=VERTEX_POINT('',#1178);
#356=VERTEX_POINT('',#1180);
#357=VERTEX_POINT('',#1185);
#358=VERTEX_POINT('',#1187);
#359=VERTEX_POINT('',#1192);
#360=VERTEX_POINT('',#1194);
#361=VERTEX_POINT('',#1198);
#362=VERTEX_POINT('',#1200);
#363=VERTEX_POINT('',#1205);
#364=VERTEX_POINT('',#1206);
#365=VERTEX_POINT('',#1208);
#366=VERTEX_POINT('',#1210);
#367=VERTEX_POINT('',#1213);
#368=VERTEX_POINT('',#1215);
#369=VERTEX_POINT('',#1217);
#370=VERTEX_POINT('',#1220);
#371=VERTEX_POINT('',#1222);
#372=VERTEX_POINT('',#1226);
#373=VERTEX_POINT('',#1232);
#374=VERTEX_POINT('',#1234);
#375=VERTEX_POINT('',#1238);
#376=VERTEX_POINT('',#1244);
#377=VERTEX_POINT('',#1246);
#378=VERTEX_POINT('',#1250);
#379=VERTEX_POINT('',#1257);
#380=VERTEX_POINT('',#1259);
#381=VERTEX_POINT('',#1263);
#382=VERTEX_POINT('',#1267);
#383=VERTEX_POINT('',#1271);
#384=VERTEX_POINT('',#1275);
#385=EDGE_CURVE('',#325,#325,#281,.T.);
#386=EDGE_CURVE('',#325,#326,#189,.T.);
#387=EDGE_CURVE('',#326,#326,#282,.T.);
#388=EDGE_CURVE('',#327,#327,#283,.T.);
#389=EDGE_CURVE('',#327,#328,#190,.T.);
#390=EDGE_CURVE('',#328,#328,#284,.T.);
#391=EDGE_CURVE('',#329,#330,#285,.T.);
#392=EDGE_CURVE('',#330,#331,#191,.T.);
#393=EDGE_CURVE('',#331,#332,#286,.T.);
#394=EDGE_CURVE('',#332,#329,#192,.T.);
#395=EDGE_CURVE('',#332,#333,#193,.T.);
#396=EDGE_CURVE('',#334,#333,#194,.T.);
#397=EDGE_CURVE('',#329,#334,#195,.T.);
#398=EDGE_CURVE('',#335,#335,#287,.T.);
#399=EDGE_CURVE('',#336,#336,#288,.T.);
#400=EDGE_CURVE('',#337,#337,#289,.T.);
#401=EDGE_CURVE('',#338,#338,#290,.T.);
#402=EDGE_CURVE('',#339,#331,#196,.T.);
#403=EDGE_CURVE('',#340,#339,#197,.T.);
#404=EDGE_CURVE('',#341,#340,#198,.T.);
#405=EDGE_CURVE('',#333,#341,#291,.T.);
#406=EDGE_CURVE('',#342,#334,#292,.T.);
#407=EDGE_CURVE('',#341,#342,#199,.T.);
#408=EDGE_CURVE('',#343,#343,#293,.T.);
#409=EDGE_CURVE('',#343,#344,#200,.T.);
#410=EDGE_CURVE('',#344,#344,#294,.T.);
#411=EDGE_CURVE('',#345,#345,#295,.T.);
#412=EDGE_CURVE('',#345,#346,#201,.T.);
#413=EDGE_CURVE('',#346,#346,#296,.T.);
#414=EDGE_CURVE('',#335,#347,#202,.T.);
#415=EDGE_CURVE('',#347,#347,#297,.T.);
#416=EDGE_CURVE('',#336,#348,#203,.T.);
#417=EDGE_CURVE('',#348,#348,#298,.T.);
#418=EDGE_CURVE('',#349,#349,#299,.T.);
#419=EDGE_CURVE('',#349,#350,#204,.T.);
#420=EDGE_CURVE('',#350,#350,#300,.T.);
#421=EDGE_CURVE('',#351,#351,#301,.T.);
#422=EDGE_CURVE('',#351,#352,#205,.T.);
#423=EDGE_CURVE('',#352,#352,#302,.T.);
#424=EDGE_CURVE('',#337,#353,#206,.T.);
#425=EDGE_CURVE('',#353,#353,#303,.T.);
#426=EDGE_CURVE('',#338,#354,#207,.T.);
#427=EDGE_CURVE('',#354,#354,#304,.T.);
#428=EDGE_CURVE('',#355,#355,#305,.T.);
#429=EDGE_CURVE('',#355,#356,#208,.T.);
#430=EDGE_CURVE('',#356,#356,#306,.T.);
#431=EDGE_CURVE('',#357,#357,#307,.T.);
#432=EDGE_CURVE('',#357,#358,#209,.T.);
#433=EDGE_CURVE('',#358,#358,#308,.T.);
#434=EDGE_CURVE('',#359,#359,#309,.T.);
#435=EDGE_CURVE('',#359,#360,#210,.T.);
#436=EDGE_CURVE('',#360,#360,#310,.T.);
#437=EDGE_CURVE('',#361,#361,#311,.T.);
#438=EDGE_CURVE('',#361,#362,#211,.T.);
#439=EDGE_CURVE('',#362,#362,#312,.T.);
#440=EDGE_CURVE('',#363,#364,#212,.T.);
#441=EDGE_CURVE('',#363,#365,#213,.T.);
#442=EDGE_CURVE('',#366,#365,#214,.T.);
#443=EDGE_CURVE('',#364,#366,#215,.T.);
#444=EDGE_CURVE('',#367,#367,#313,.T.);
#445=EDGE_CURVE('',#368,#368,#314,.T.);
#446=EDGE_CURVE('',#369,#369,#315,.T.);
#447=EDGE_CURVE('',#370,#370,#316,.T.);
#448=EDGE_CURVE('',#370,#371,#216,.T.);
#449=EDGE_CURVE('',#371,#371,#317,.T.);
#450=EDGE_CURVE('',#372,#372,#318,.T.);
#451=EDGE_CURVE('',#372,#367,#217,.T.);
#452=EDGE_CURVE('',#373,#373,#319,.T.);
#453=EDGE_CURVE('',#373,#374,#218,.T.);
#454=EDGE_CURVE('',#374,#374,#320,.T.);
#455=EDGE_CURVE('',#375,#375,#321,.T.);
#456=EDGE_CURVE('',#375,#369,#219,.T.);
#457=EDGE_CURVE('',#376,#376,#322,.T.);
#458=EDGE_CURVE('',#376,#377,#220,.T.);
#459=EDGE_CURVE('',#377,#377,#323,.T.);
#460=EDGE_CURVE('',#378,#378,#324,.T.);
#461=EDGE_CURVE('',#378,#368,#221,.T.);
#462=EDGE_CURVE('',#366,#379,#222,.T.);
#463=EDGE_CURVE('',#380,#379,#223,.T.);
#464=EDGE_CURVE('',#364,#380,#224,.T.);
#465=EDGE_CURVE('',#381,#380,#225,.T.);
#466=EDGE_CURVE('',#363,#381,#226,.T.);
#467=EDGE_CURVE('',#340,#382,#227,.T.);
#468=EDGE_CURVE('',#342,#382,#228,.T.);
#469=EDGE_CURVE('',#383,#330,#229,.T.);
#470=EDGE_CURVE('',#339,#383,#230,.T.);
#471=EDGE_CURVE('',#384,#383,#231,.T.);
#472=EDGE_CURVE('',#365,#384,#232,.T.);
#473=EDGE_CURVE('',#382,#381,#233,.T.);
#474=EDGE_CURVE('',#379,#384,#234,.T.);
#475=ORIENTED_EDGE('',*,*,#385,.F.);
#476=ORIENTED_EDGE('',*,*,#386,.T.);
#477=ORIENTED_EDGE('',*,*,#387,.T.);
#478=ORIENTED_EDGE('',*,*,#386,.F.);
#479=ORIENTED_EDGE('',*,*,#387,.F.);
#480=ORIENTED_EDGE('',*,*,#388,.F.);
#481=ORIENTED_EDGE('',*,*,#389,.T.);
#482=ORIENTED_EDGE('',*,*,#390,.T.);
#483=ORIENTED_EDGE('',*,*,#389,.F.);
#484=ORIENTED_EDGE('',*,*,#390,.F.);
#485=ORIENTED_EDGE('',*,*,#391,.T.);
#486=ORIENTED_EDGE('',*,*,#392,.T.);
#487=ORIENTED_EDGE('',*,*,#393,.T.);
#488=ORIENTED_EDGE('',*,*,#394,.T.);
#489=ORIENTED_EDGE('',*,*,#394,.F.);
#490=ORIENTED_EDGE('',*,*,#395,.T.);
#491=ORIENTED_EDGE('',*,*,#396,.F.);
#492=ORIENTED_EDGE('',*,*,#397,.F.);
#493=ORIENTED_EDGE('',*,*,#398,.T.);
#494=ORIENTED_EDGE('',*,*,#399,.T.);
#495=ORIENTED_EDGE('',*,*,#400,.T.);
#496=ORIENTED_EDGE('',*,*,#401,.T.);
#497=ORIENTED_EDGE('',*,*,#393,.F.);
#498=ORIENTED_EDGE('',*,*,#402,.F.);
#499=ORIENTED_EDGE('',*,*,#403,.F.);
#500=ORIENTED_EDGE('',*,*,#404,.F.);
#501=ORIENTED_EDGE('',*,*,#405,.F.);
#502=ORIENTED_EDGE('',*,*,#395,.F.);
#503=ORIENTED_EDGE('',*,*,#406,.T.);
#504=ORIENTED_EDGE('',*,*,#396,.T.);
#505=ORIENTED_EDGE('',*,*,#405,.T.);
#506=ORIENTED_EDGE('',*,*,#407,.T.);
#507=ORIENTED_EDGE('',*,*,#408,.F.);
#508=ORIENTED_EDGE('',*,*,#409,.T.);
#509=ORIENTED_EDGE('',*,*,#410,.T.);
#510=ORIENTED_EDGE('',*,*,#409,.F.);
#511=ORIENTED_EDGE('',*,*,#410,.F.);
#512=ORIENTED_EDGE('',*,*,#411,.F.);
#513=ORIENTED_EDGE('',*,*,#412,.T.);
#514=ORIENTED_EDGE('',*,*,#413,.T.);
#515=ORIENTED_EDGE('',*,*,#412,.F.);
#516=ORIENTED_EDGE('',*,*,#413,.F.);
#517=ORIENTED_EDGE('',*,*,#398,.F.);
#518=ORIENTED_EDGE('',*,*,#414,.T.);
#519=ORIENTED_EDGE('',*,*,#415,.T.);
#520=ORIENTED_EDGE('',*,*,#414,.F.);
#521=ORIENTED_EDGE('',*,*,#415,.F.);
#522=ORIENTED_EDGE('',*,*,#399,.F.);
#523=ORIENTED_EDGE('',*,*,#416,.T.);
#524=ORIENTED_EDGE('',*,*,#417,.T.);
#525=ORIENTED_EDGE('',*,*,#416,.F.);
#526=ORIENTED_EDGE('',*,*,#417,.F.);
#527=ORIENTED_EDGE('',*,*,#418,.F.);
#528=ORIENTED_EDGE('',*,*,#419,.T.);
#529=ORIENTED_EDGE('',*,*,#420,.T.);
#530=ORIENTED_EDGE('',*,*,#419,.F.);
#531=ORIENTED_EDGE('',*,*,#420,.F.);
#532=ORIENTED_EDGE('',*,*,#421,.F.);
#533=ORIENTED_EDGE('',*,*,#422,.T.);
#534=ORIENTED_EDGE('',*,*,#423,.T.);
#535=ORIENTED_EDGE('',*,*,#422,.F.);
#536=ORIENTED_EDGE('',*,*,#423,.F.);
#537=ORIENTED_EDGE('',*,*,#400,.F.);
#538=ORIENTED_EDGE('',*,*,#424,.T.);
#539=ORIENTED_EDGE('',*,*,#425,.T.);
#540=ORIENTED_EDGE('',*,*,#424,.F.);
#541=ORIENTED_EDGE('',*,*,#425,.F.);
#542=ORIENTED_EDGE('',*,*,#401,.F.);
#543=ORIENTED_EDGE('',*,*,#426,.T.);
#544=ORIENTED_EDGE('',*,*,#427,.T.);
#545=ORIENTED_EDGE('',*,*,#426,.F.);
#546=ORIENTED_EDGE('',*,*,#427,.F.);
#547=ORIENTED_EDGE('',*,*,#428,.F.);
#548=ORIENTED_EDGE('',*,*,#429,.T.);
#549=ORIENTED_EDGE('',*,*,#430,.T.);
#550=ORIENTED_EDGE('',*,*,#429,.F.);
#551=ORIENTED_EDGE('',*,*,#430,.F.);
#552=ORIENTED_EDGE('',*,*,#431,.F.);
#553=ORIENTED_EDGE('',*,*,#432,.T.);
#554=ORIENTED_EDGE('',*,*,#433,.T.);
#555=ORIENTED_EDGE('',*,*,#432,.F.);
#556=ORIENTED_EDGE('',*,*,#433,.F.);
#557=ORIENTED_EDGE('',*,*,#434,.F.);
#558=ORIENTED_EDGE('',*,*,#435,.T.);
#559=ORIENTED_EDGE('',*,*,#436,.F.);
#560=ORIENTED_EDGE('',*,*,#435,.F.);
#561=ORIENTED_EDGE('',*,*,#437,.F.);
#562=ORIENTED_EDGE('',*,*,#438,.T.);
#563=ORIENTED_EDGE('',*,*,#439,.F.);
#564=ORIENTED_EDGE('',*,*,#438,.F.);
#565=ORIENTED_EDGE('',*,*,#437,.T.);
#566=ORIENTED_EDGE('',*,*,#434,.T.);
#567=ORIENTED_EDGE('',*,*,#440,.F.);
#568=ORIENTED_EDGE('',*,*,#441,.T.);
#569=ORIENTED_EDGE('',*,*,#442,.F.);
#570=ORIENTED_EDGE('',*,*,#443,.F.);
#571=ORIENTED_EDGE('',*,*,#444,.T.);
#572=ORIENTED_EDGE('',*,*,#445,.T.);
#573=ORIENTED_EDGE('',*,*,#446,.T.);
#574=ORIENTED_EDGE('',*,*,#439,.T.);
#575=ORIENTED_EDGE('',*,*,#447,.F.);
#576=ORIENTED_EDGE('',*,*,#448,.T.);
#577=ORIENTED_EDGE('',*,*,#449,.F.);
#578=ORIENTED_EDGE('',*,*,#448,.F.);
#579=ORIENTED_EDGE('',*,*,#450,.F.);
#580=ORIENTED_EDGE('',*,*,#451,.T.);
#581=ORIENTED_EDGE('',*,*,#444,.F.);
#582=ORIENTED_EDGE('',*,*,#451,.F.);
#583=ORIENTED_EDGE('',*,*,#450,.T.);
#584=ORIENTED_EDGE('',*,*,#447,.T.);
#585=ORIENTED_EDGE('',*,*,#436,.T.);
#586=ORIENTED_EDGE('',*,*,#452,.F.);
#587=ORIENTED_EDGE('',*,*,#453,.T.);
#588=ORIENTED_EDGE('',*,*,#454,.F.);
#589=ORIENTED_EDGE('',*,*,#453,.F.);
#590=ORIENTED_EDGE('',*,*,#455,.F.);
#591=ORIENTED_EDGE('',*,*,#456,.T.);
#592=ORIENTED_EDGE('',*,*,#446,.F.);
#593=ORIENTED_EDGE('',*,*,#456,.F.);
#594=ORIENTED_EDGE('',*,*,#455,.T.);
#595=ORIENTED_EDGE('',*,*,#452,.T.);
#596=ORIENTED_EDGE('',*,*,#449,.T.);
#597=ORIENTED_EDGE('',*,*,#457,.F.);
#598=ORIENTED_EDGE('',*,*,#458,.T.);
#599=ORIENTED_EDGE('',*,*,#459,.F.);
#600=ORIENTED_EDGE('',*,*,#458,.F.);
#601=ORIENTED_EDGE('',*,*,#460,.F.);
#602=ORIENTED_EDGE('',*,*,#461,.T.);
#603=ORIENTED_EDGE('',*,*,#445,.F.);
#604=ORIENTED_EDGE('',*,*,#461,.F.);
#605=ORIENTED_EDGE('',*,*,#460,.T.);
#606=ORIENTED_EDGE('',*,*,#457,.T.);
#607=ORIENTED_EDGE('',*,*,#454,.T.);
#608=ORIENTED_EDGE('',*,*,#459,.T.);
#609=ORIENTED_EDGE('',*,*,#443,.T.);
#610=ORIENTED_EDGE('',*,*,#462,.T.);
#611=ORIENTED_EDGE('',*,*,#463,.F.);
#612=ORIENTED_EDGE('',*,*,#464,.F.);
#613=ORIENTED_EDGE('',*,*,#440,.T.);
#614=ORIENTED_EDGE('',*,*,#464,.T.);
#615=ORIENTED_EDGE('',*,*,#465,.F.);
#616=ORIENTED_EDGE('',*,*,#466,.F.);
#617=ORIENTED_EDGE('',*,*,#407,.F.);
#618=ORIENTED_EDGE('',*,*,#404,.T.);
#619=ORIENTED_EDGE('',*,*,#467,.T.);
#620=ORIENTED_EDGE('',*,*,#468,.F.);
#621=ORIENTED_EDGE('',*,*,#385,.T.);
#622=ORIENTED_EDGE('',*,*,#388,.T.);
#623=ORIENTED_EDGE('',*,*,#428,.T.);
#624=ORIENTED_EDGE('',*,*,#431,.T.);
#625=ORIENTED_EDGE('',*,*,#392,.F.);
#626=ORIENTED_EDGE('',*,*,#469,.F.);
#627=ORIENTED_EDGE('',*,*,#470,.F.);
#628=ORIENTED_EDGE('',*,*,#402,.T.);
#629=ORIENTED_EDGE('',*,*,#418,.T.);
#630=ORIENTED_EDGE('',*,*,#421,.T.);
#631=ORIENTED_EDGE('',*,*,#403,.T.);
#632=ORIENTED_EDGE('',*,*,#470,.T.);
#633=ORIENTED_EDGE('',*,*,#471,.F.);
#634=ORIENTED_EDGE('',*,*,#472,.F.);
#635=ORIENTED_EDGE('',*,*,#441,.F.);
#636=ORIENTED_EDGE('',*,*,#466,.T.);
#637=ORIENTED_EDGE('',*,*,#473,.F.);
#638=ORIENTED_EDGE('',*,*,#467,.F.);
#639=ORIENTED_EDGE('',*,*,#408,.T.);
#640=ORIENTED_EDGE('',*,*,#411,.T.);
#641=ORIENTED_EDGE('',*,*,#442,.T.);
#642=ORIENTED_EDGE('',*,*,#472,.T.);
#643=ORIENTED_EDGE('',*,*,#474,.F.);
#644=ORIENTED_EDGE('',*,*,#462,.F.);
#645=ORIENTED_EDGE('',*,*,#391,.F.);
#646=ORIENTED_EDGE('',*,*,#397,.T.);
#647=ORIENTED_EDGE('',*,*,#406,.F.);
#648=ORIENTED_EDGE('',*,*,#468,.T.);
#649=ORIENTED_EDGE('',*,*,#473,.T.);
#650=ORIENTED_EDGE('',*,*,#465,.T.);
#651=ORIENTED_EDGE('',*,*,#463,.T.);
#652=ORIENTED_EDGE('',*,*,#474,.T.);
#653=ORIENTED_EDGE('',*,*,#471,.T.);
#654=ORIENTED_EDGE('',*,*,#469,.T.);
#655=CYLINDRICAL_SURFACE('',#743,1.05);
#656=CYLINDRICAL_SURFACE('',#747,1.05);
#657=CYLINDRICAL_SURFACE('',#751,1.28);
#658=CYLINDRICAL_SURFACE('',#761,1.28);
#659=CYLINDRICAL_SURFACE('',#763,1.05);
#660=CYLINDRICAL_SURFACE('',#767,1.05);
#661=CYLINDRICAL_SURFACE('',#771,1.05);
#662=CYLINDRICAL_SURFACE('',#774,1.05);
#663=CYLINDRICAL_SURFACE('',#777,1.05);
#664=CYLINDRICAL_SURFACE('',#781,1.05);
#665=CYLINDRICAL_SURFACE('',#785,1.05);
#666=CYLINDRICAL_SURFACE('',#788,1.05);
#667=CYLINDRICAL_SURFACE('',#791,1.05);
#668=CYLINDRICAL_SURFACE('',#795,1.05);
#669=CYLINDRICAL_SURFACE('',#799,1.6);
#670=CYLINDRICAL_SURFACE('',#802,2.1);
#671=CYLINDRICAL_SURFACE('',#810,1.6);
#672=CYLINDRICAL_SURFACE('',#813,2.10000000000001);
#673=CYLINDRICAL_SURFACE('',#817,1.6);
#674=CYLINDRICAL_SURFACE('',#820,2.1);
#675=CYLINDRICAL_SURFACE('',#824,1.6);
#676=CYLINDRICAL_SURFACE('',#827,2.1);
#677=ADVANCED_FACE('',(#65),#655,.F.);
#678=ADVANCED_FACE('',(#66),#35,.T.);
#679=ADVANCED_FACE('',(#67),#656,.F.);
#680=ADVANCED_FACE('',(#68),#36,.T.);
#681=ADVANCED_FACE('',(#69),#657,.T.);
#682=ADVANCED_FACE('',(#70,#15,#16,#17,#18),#37,.T.);
#683=ADVANCED_FACE('',(#71),#38,.F.);
#684=ADVANCED_FACE('',(#72),#658,.T.);
#685=ADVANCED_FACE('',(#73),#659,.F.);
#686=ADVANCED_FACE('',(#74),#39,.F.);
#687=ADVANCED_FACE('',(#75),#660,.F.);
#688=ADVANCED_FACE('',(#76),#40,.F.);
#689=ADVANCED_FACE('',(#77),#661,.F.);
#690=ADVANCED_FACE('',(#78),#41,.T.);
#691=ADVANCED_FACE('',(#79),#662,.F.);
#692=ADVANCED_FACE('',(#80),#42,.T.);
#693=ADVANCED_FACE('',(#81),#663,.F.);
#694=ADVANCED_FACE('',(#82),#43,.T.);
#695=ADVANCED_FACE('',(#83),#664,.F.);
#696=ADVANCED_FACE('',(#84),#44,.T.);
#697=ADVANCED_FACE('',(#85),#665,.F.);
#698=ADVANCED_FACE('',(#86),#45,.T.);
#699=ADVANCED_FACE('',(#87),#666,.F.);
#700=ADVANCED_FACE('',(#88),#46,.T.);
#701=ADVANCED_FACE('',(#89),#667,.F.);
#702=ADVANCED_FACE('',(#90),#47,.T.);
#703=ADVANCED_FACE('',(#91),#668,.F.);
#704=ADVANCED_FACE('',(#92),#48,.T.);
#705=ADVANCED_FACE('',(#93),#669,.F.);
#706=ADVANCED_FACE('',(#94),#670,.T.);
#707=ADVANCED_FACE('',(#95,#19),#49,.T.);
#708=ADVANCED_FACE('',(#96,#20,#21,#22,#23),#50,.T.);
#709=ADVANCED_FACE('',(#97),#671,.F.);
#710=ADVANCED_FACE('',(#98),#672,.T.);
#711=ADVANCED_FACE('',(#99,#24),#51,.T.);
#712=ADVANCED_FACE('',(#100),#52,.T.);
#713=ADVANCED_FACE('',(#101),#673,.F.);
#714=ADVANCED_FACE('',(#102),#674,.T.);
#715=ADVANCED_FACE('',(#103,#25),#53,.T.);
#716=ADVANCED_FACE('',(#104),#54,.T.);
#717=ADVANCED_FACE('',(#105),#675,.F.);
#718=ADVANCED_FACE('',(#106),#676,.T.);
#719=ADVANCED_FACE('',(#107,#26),#55,.T.);
#720=ADVANCED_FACE('',(#108),#56,.T.);
#721=ADVANCED_FACE('',(#109),#57,.T.);
#722=ADVANCED_FACE('',(#110),#58,.T.);
#723=ADVANCED_FACE('',(#111),#59,.T.);
#724=ADVANCED_FACE('',(#112,#27,#28,#29,#30),#60,.T.);
#725=ADVANCED_FACE('',(#113,#31,#32),#61,.T.);
#726=ADVANCED_FACE('',(#114,#33,#34),#62,.T.);
#727=ADVANCED_FACE('',(#115),#63,.T.);
#728=ADVANCED_FACE('',(#116),#64,.T.);
#729=CLOSED_SHELL('',(#677,#678,#679,#680,#681,#682,#683,#684,#685,#686,
#687,#688,#689,#690,#691,#692,#693,#694,#695,#696,#697,#698,#699,#700,#701,
#702,#703,#704,#705,#706,#707,#708,#709,#710,#711,#712,#713,#714,#715,#716,
#717,#718,#719,#720,#721,#722,#723,#724,#725,#726,#727,#728));
#730=DERIVED_UNIT_ELEMENT(#732,1.);
#731=DERIVED_UNIT_ELEMENT(#1287,-3.);
#732=(
MASS_UNIT()
NAMED_UNIT(*)
SI_UNIT(.KILO.,.GRAM.)
);
#733=DERIVED_UNIT((#730,#731));
#734=MEASURE_REPRESENTATION_ITEM('density measure',
POSITIVE_RATIO_MEASURE(7850.),#733);
#735=PROPERTY_DEFINITION_REPRESENTATION(#740,#737);
#736=PROPERTY_DEFINITION_REPRESENTATION(#741,#738);
#737=REPRESENTATION('material name',(#739),#1284);
#738=REPRESENTATION('density',(#734),#1284);
#739=DESCRIPTIVE_REPRESENTATION_ITEM('Steel','Steel');
#740=PROPERTY_DEFINITION('material property','material name',#1294);
#741=PROPERTY_DEFINITION('material property','density of part',#1294);
#742=AXIS2_PLACEMENT_3D('',#1079,#839,#840);
#743=AXIS2_PLACEMENT_3D('',#1080,#841,#842);
#744=AXIS2_PLACEMENT_3D('',#1082,#843,#844);
#745=AXIS2_PLACEMENT_3D('',#1085,#846,#847);
#746=AXIS2_PLACEMENT_3D('',#1086,#848,#849);
#747=AXIS2_PLACEMENT_3D('',#1087,#850,#851);
#748=AXIS2_PLACEMENT_3D('',#1089,#852,#853);
#749=AXIS2_PLACEMENT_3D('',#1092,#855,#856);
#750=AXIS2_PLACEMENT_3D('',#1093,#857,#858);
#751=AXIS2_PLACEMENT_3D('',#1094,#859,#860);
#752=AXIS2_PLACEMENT_3D('',#1097,#861,#862);
#753=AXIS2_PLACEMENT_3D('',#1101,#864,#865);
#754=AXIS2_PLACEMENT_3D('',#1103,#867,#868);
#755=AXIS2_PLACEMENT_3D('',#1110,#872,#873);
#756=AXIS2_PLACEMENT_3D('',#1112,#874,#875);
#757=AXIS2_PLACEMENT_3D('',#1114,#876,#877);
#758=AXIS2_PLACEMENT_3D('',#1116,#878,#879);
#759=AXIS2_PLACEMENT_3D('',#1117,#880,#881);
#760=AXIS2_PLACEMENT_3D('',#1124,#885,#886);
#761=AXIS2_PLACEMENT_3D('',#1125,#887,#888);
#762=AXIS2_PLACEMENT_3D('',#1127,#889,#890);
#763=AXIS2_PLACEMENT_3D('',#1129,#892,#893);
#764=AXIS2_PLACEMENT_3D('',#1131,#894,#895);
#765=AXIS2_PLACEMENT_3D('',#1134,#897,#898);
#766=AXIS2_PLACEMENT_3D('',#1135,#899,#900);
#767=AXIS2_PLACEMENT_3D('',#1136,#901,#902);
#768=AXIS2_PLACEMENT_3D('',#1138,#903,#904);
#769=AXIS2_PLACEMENT_3D('',#1141,#906,#907);
#770=AXIS2_PLACEMENT_3D('',#1142,#908,#909);
#771=AXIS2_PLACEMENT_3D('',#1143,#910,#911);
#772=AXIS2_PLACEMENT_3D('',#1146,#913,#914);
#773=AXIS2_PLACEMENT_3D('',#1147,#915,#916);
#774=AXIS2_PLACEMENT_3D('',#1148,#917,#918);
#775=AXIS2_PLACEMENT_3D('',#1151,#920,#921);
#776=AXIS2_PLACEMENT_3D('',#1152,#922,#923);
#777=AXIS2_PLACEMENT_3D('',#1153,#924,#925);
#778=AXIS2_PLACEMENT_3D('',#1155,#926,#927);
#779=AXIS2_PLACEMENT_3D('',#1158,#929,#930);
#780=AXIS2_PLACEMENT_3D('',#1159,#931,#932);
#781=AXIS2_PLACEMENT_3D('',#1160,#933,#934);
#782=AXIS2_PLACEMENT_3D('',#1162,#935,#936);
#783=AXIS2_PLACEMENT_3D('',#1165,#938,#939);
#784=AXIS2_PLACEMENT_3D('',#1166,#940,#941);
#785=AXIS2_PLACEMENT_3D('',#1167,#942,#943);
#786=AXIS2_PLACEMENT_3D('',#1170,#945,#946);
#787=AXIS2_PLACEMENT_3D('',#1171,#947,#948);
#788=AXIS2_PLACEMENT_3D('',#1172,#949,#950);
#789=AXIS2_PLACEMENT_3D('',#1175,#952,#953);
#790=AXIS2_PLACEMENT_3D('',#1176,#954,#955);
#791=AXIS2_PLACEMENT_3D('',#1177,#956,#957);
#792=AXIS2_PLACEMENT_3D('',#1179,#958,#959);
#793=AXIS2_PLACEMENT_3D('',#1182,#961,#962);
#794=AXIS2_PLACEMENT_3D('',#1183,#963,#964);
#795=AXIS2_PLACEMENT_3D('',#1184,#965,#966);
#796=AXIS2_PLACEMENT_3D('',#1186,#967,#968);
#797=AXIS2_PLACEMENT_3D('',#1189,#970,#971);
#798=AXIS2_PLACEMENT_3D('',#1190,#972,#973);
#799=AXIS2_PLACEMENT_3D('',#1191,#974,#975);
#800=AXIS2_PLACEMENT_3D('',#1193,#976,#977);
#801=AXIS2_PLACEMENT_3D('',#1196,#979,#980);
#802=AXIS2_PLACEMENT_3D('',#1197,#981,#982);
#803=AXIS2_PLACEMENT_3D('',#1199,#983,#984);
#804=AXIS2_PLACEMENT_3D('',#1202,#986,#987);
#805=AXIS2_PLACEMENT_3D('',#1203,#988,#989);
#806=AXIS2_PLACEMENT_3D('',#1204,#990,#991);
#807=AXIS2_PLACEMENT_3D('',#1214,#996,#997);
#808=AXIS2_PLACEMENT_3D('',#1216,#998,#999);
#809=AXIS2_PLACEMENT_3D('',#1218,#1000,#1001);
#810=AXIS2_PLACEMENT_3D('',#1219,#1002,#1003);
#811=AXIS2_PLACEMENT_3D('',#1221,#1004,#1005);
#812=AXIS2_PLACEMENT_3D('',#1224,#1007,#1008);
#813=AXIS2_PLACEMENT_3D('',#1225,#1009,#1010);
#814=AXIS2_PLACEMENT_3D('',#1227,#1011,#1012);
#815=AXIS2_PLACEMENT_3D('',#1229,#1014,#1015);
#816=AXIS2_PLACEMENT_3D('',#1230,#1016,#1017);
#817=AXIS2_PLACEMENT_3D('',#1231,#1018,#1019);
#818=AXIS2_PLACEMENT_3D('',#1233,#1020,#1021);
#819=AXIS2_PLACEMENT_3D('',#1236,#1023,#1024);
#820=AXIS2_PLACEMENT_3D('',#1237,#1025,#1026);
#821=AXIS2_PLACEMENT_3D('',#1239,#1027,#1028);
#822=AXIS2_PLACEMENT_3D('',#1241,#1030,#1031);
#823=AXIS2_PLACEMENT_3D('',#1242,#1032,#1033);
#824=AXIS2_PLACEMENT_3D('',#1243,#1034,#1035);
#825=AXIS2_PLACEMENT_3D('',#1245,#1036,#1037);
#826=AXIS2_PLACEMENT_3D('',#1248,#1039,#1040);
#827=AXIS2_PLACEMENT_3D('',#1249,#1041,#1042);
#828=AXIS2_PLACEMENT_3D('',#1251,#1043,#1044);
#829=AXIS2_PLACEMENT_3D('',#1253,#1046,#1047);
#830=AXIS2_PLACEMENT_3D('',#1254,#1048,#1049);
#831=AXIS2_PLACEMENT_3D('',#1255,#1050,#1051);
#832=AXIS2_PLACEMENT_3D('',#1256,#1052,#1053);
#833=AXIS2_PLACEMENT_3D('',#1262,#1057,#1058);
#834=AXIS2_PLACEMENT_3D('',#1266,#1061,#1062);
#835=AXIS2_PLACEMENT_3D('',#1270,#1065,#1066);
#836=AXIS2_PLACEMENT_3D('',#1274,#1069,#1070);
#837=AXIS2_PLACEMENT_3D('',#1279,#1074,#1075);
#838=AXIS2_PLACEMENT_3D('',#1281,#1077,#1078);
#839=DIRECTION('axis',(0.,0.,1.));
#840=DIRECTION('refdir',(1.,0.,0.));
#841=DIRECTION('center_axis',(1.,0.,0.));
#842=DIRECTION('ref_axis',(0.,-1.,0.));
#843=DIRECTION('center_axis',(1.,-3.61111864572607E-33,0.));
#844=DIRECTION('ref_axis',(0.,-1.,0.));
#845=DIRECTION('',(1.,0.,0.));
#846=DIRECTION('center_axis',(1.,0.,0.));
#847=DIRECTION('ref_axis',(0.,-1.,0.));
#848=DIRECTION('center_axis',(-1.,0.,0.));
#849=DIRECTION('ref_axis',(0.,-1.,0.));
#850=DIRECTION('center_axis',(1.,0.,0.));
#851=DIRECTION('ref_axis',(0.,-1.,0.));
#852=DIRECTION('center_axis',(1.,-3.61111864572607E-33,0.));
#853=DIRECTION('ref_axis',(0.,-1.,0.));
#854=DIRECTION('',(1.,0.,0.));
#855=DIRECTION('center_axis',(1.,0.,0.));
#856=DIRECTION('ref_axis',(0.,-1.,0.));
#857=DIRECTION('center_axis',(-1.,0.,0.));
#858=DIRECTION('ref_axis',(0.,-1.,0.));
#859=DIRECTION('center_axis',(0.,0.,1.));
#860=DIRECTION('ref_axis',(0.707106781186548,0.707106781186548,0.));
#861=DIRECTION('center_axis',(0.,0.,-1.));
#862=DIRECTION('ref_axis',(0.707106781186548,0.707106781186548,0.));
#863=DIRECTION('',(0.,0.,-1.));
#864=DIRECTION('center_axis',(0.,0.,1.));
#865=DIRECTION('ref_axis',(0.707106781186548,0.707106781186548,0.));
#866=DIRECTION('',(0.,0.,1.));
#867=DIRECTION('center_axis',(0.,1.,0.));
#868=DIRECTION('ref_axis',(-1.,0.,0.));
#869=DIRECTION('',(-1.,0.,0.));
#870=DIRECTION('',(0.,0.,-1.));
#871=DIRECTION('',(-1.,0.,0.));
#872=DIRECTION('center_axis',(0.,-1.,0.));
#873=DIRECTION('ref_axis',(-1.,0.,0.));
#874=DIRECTION('center_axis',(0.,-1.,0.));
#875=DIRECTION('ref_axis',(-1.,0.,0.));
#876=DIRECTION('center_axis',(0.,-1.,0.));
#877=DIRECTION('ref_axis',(-1.,0.,0.));
#878=DIRECTION('center_axis',(0.,-1.,0.));
#879=DIRECTION('ref_axis',(-1.,0.,0.));
#880=DIRECTION('center_axis',(0.,0.,1.));
#881=DIRECTION('ref_axis',(1.,0.,0.));
#882=DIRECTION('',(0.,1.,0.));
#883=DIRECTION('',(1.,3.25926605973225E-33,0.));
#884=DIRECTION('',(-3.61111864572607E-33,-1.,0.));
#885=DIRECTION('center_axis',(0.,0.,1.));
#886=DIRECTION('ref_axis',(-0.707106781186548,0.707106781186548,0.));
#887=DIRECTION('center_axis',(0.,0.,1.));
#888=DIRECTION('ref_axis',(-0.707106781186548,0.707106781186548,0.));
#889=DIRECTION('center_axis',(0.,0.,-1.));
#890=DIRECTION('ref_axis',(-0.707106781186548,0.707106781186548,0.));
#891=DIRECTION('',(0.,0.,1.));
#892=DIRECTION('center_axis',(0.,1.,0.));
#893=DIRECTION('ref_axis',(1.,0.,0.));
#894=DIRECTION('center_axis',(-3.25926605973225E-33,1.,0.));
#895=DIRECTION('ref_axis',(1.,0.,0.));
#896=DIRECTION('',(0.,1.,0.));
#897=DIRECTION('center_axis',(0.,1.,0.));
#898=DIRECTION('ref_axis',(1.,0.,0.));
#899=DIRECTION('center_axis',(0.,1.,0.));
#900=DIRECTION('ref_axis',(1.,0.,0.));
#901=DIRECTION('center_axis',(0.,1.,0.));
#902=DIRECTION('ref_axis',(1.,0.,0.));
#903=DIRECTION('center_axis',(-3.25926605973225E-33,1.,0.));
#904=DIRECTION('ref_axis',(1.,0.,0.));
#905=DIRECTION('',(0.,1.,0.));
#906=DIRECTION('center_axis',(0.,1.,0.));
#907=DIRECTION('ref_axis',(1.,0.,0.));
#908=DIRECTION('center_axis',(0.,1.,0.));
#909=DIRECTION('ref_axis',(1.,0.,0.));
#910=DIRECTION('center_axis',(0.,-1.,0.));
#911=DIRECTION('ref_axis',(-1.,0.,0.));
#912=DIRECTION('',(0.,-1.,0.));
#913=DIRECTION('center_axis',(0.,-1.,0.));
#914=DIRECTION('ref_axis',(-1.,0.,0.));
#915=DIRECTION('center_axis',(0.,1.,0.));
#916=DIRECTION('ref_axis',(-1.,0.,0.));
#917=DIRECTION('center_axis',(0.,-1.,0.));
#918=DIRECTION('ref_axis',(-1.,0.,0.));
#919=DIRECTION('',(0.,-1.,0.));
#920=DIRECTION('center_axis',(0.,-1.,0.));
#921=DIRECTION('ref_axis',(-1.,0.,0.));
#922=DIRECTION('center_axis',(0.,1.,0.));
#923=DIRECTION('ref_axis',(-1.,0.,0.));
#924=DIRECTION('center_axis',(-1.,0.,0.));
#925=DIRECTION('ref_axis',(0.,1.,0.));
#926=DIRECTION('center_axis',(-1.,0.,0.));
#927=DIRECTION('ref_axis',(0.,1.,0.));
#928=DIRECTION('',(-1.,0.,0.));
#929=DIRECTION('center_axis',(-1.,0.,0.));
#930=DIRECTION('ref_axis',(0.,1.,0.));
#931=DIRECTION('center_axis',(1.,0.,0.));
#932=DIRECTION('ref_axis',(0.,1.,0.));
#933=DIRECTION('center_axis',(-1.,0.,0.));
#934=DIRECTION('ref_axis',(0.,1.,0.));
#935=DIRECTION('center_axis',(-1.,0.,0.));
#936=DIRECTION('ref_axis',(0.,1.,0.));
#937=DIRECTION('',(-1.,0.,0.));
#938=DIRECTION('center_axis',(-1.,0.,0.));
#939=DIRECTION('ref_axis',(0.,1.,0.));
#940=DIRECTION('center_axis',(1.,0.,0.));
#941=DIRECTION('ref_axis',(0.,1.,0.));
#942=DIRECTION('center_axis',(0.,-1.,0.));
#943=DIRECTION('ref_axis',(-1.,0.,0.));
#944=DIRECTION('',(0.,-1.,0.));
#945=DIRECTION('center_axis',(0.,-1.,0.));
#946=DIRECTION('ref_axis',(-1.,0.,0.));
#947=DIRECTION('center_axis',(0.,1.,0.));
#948=DIRECTION('ref_axis',(-1.,0.,0.));
#949=DIRECTION('center_axis',(0.,-1.,0.));
#950=DIRECTION('ref_axis',(-1.,0.,0.));
#951=DIRECTION('',(0.,-1.,0.));
#952=DIRECTION('center_axis',(0.,-1.,0.));
#953=DIRECTION('ref_axis',(-1.,0.,0.));
#954=DIRECTION('center_axis',(0.,1.,0.));
#955=DIRECTION('ref_axis',(-1.,0.,0.));
#956=DIRECTION('center_axis',(1.,0.,0.));
#957=DIRECTION('ref_axis',(0.,-1.,0.));
#958=DIRECTION('center_axis',(1.,-3.61111864572607E-33,0.));
#959=DIRECTION('ref_axis',(0.,-1.,0.));
#960=DIRECTION('',(1.,0.,0.));
#961=DIRECTION('center_axis',(1.,0.,0.));
#962=DIRECTION('ref_axis',(0.,-1.,0.));
#963=DIRECTION('center_axis',(-1.,0.,0.));
#964=DIRECTION('ref_axis',(0.,-1.,0.));
#965=DIRECTION('center_axis',(1.,0.,0.));
#966=DIRECTION('ref_axis',(0.,-1.,0.));
#967=DIRECTION('center_axis',(1.,-3.61111864572607E-33,0.));
#968=DIRECTION('ref_axis',(0.,-1.,0.));
#969=DIRECTION('',(1.,0.,0.));
#970=DIRECTION('center_axis',(1.,0.,0.));
#971=DIRECTION('ref_axis',(0.,-1.,0.));
#972=DIRECTION('center_axis',(-1.,0.,0.));
#973=DIRECTION('ref_axis',(0.,-1.,0.));
#974=DIRECTION('center_axis',(0.,0.,1.));
#975=DIRECTION('ref_axis',(-1.,0.,0.));
#976=DIRECTION('center_axis',(0.,0.,-1.));
#977=DIRECTION('ref_axis',(-1.,0.,0.));
#978=DIRECTION('',(0.,0.,-1.));
#979=DIRECTION('center_axis',(0.,0.,1.));
#980=DIRECTION('ref_axis',(-1.,0.,0.));
#981=DIRECTION('center_axis',(0.,0.,1.));
#982=DIRECTION('ref_axis',(-1.,0.,0.));
#983=DIRECTION('center_axis',(0.,0.,1.));
#984=DIRECTION('ref_axis',(-1.,0.,0.));
#985=DIRECTION('',(0.,0.,-1.));
#986=DIRECTION('center_axis',(0.,0.,-1.));
#987=DIRECTION('ref_axis',(-1.,0.,0.));
#988=DIRECTION('center_axis',(0.,0.,1.));
#989=DIRECTION('ref_axis',(-1.,0.,0.));
#990=DIRECTION('center_axis',(0.,0.,1.));
#991=DIRECTION('ref_axis',(1.,0.,0.));
#992=DIRECTION('',(0.,1.,0.));
#993=DIRECTION('',(1.,0.,0.));
#994=DIRECTION('',(0.,-1.,0.));
#995=DIRECTION('',(1.,0.,0.));
#996=DIRECTION('center_axis',(0.,0.,-1.));
#997=DIRECTION('ref_axis',(-1.,0.,0.));
#998=DIRECTION('center_axis',(0.,0.,-1.));
#999=DIRECTION('ref_axis',(-1.,0.,0.));
#1000=DIRECTION('center_axis',(0.,0.,-1.));
#1001=DIRECTION('ref_axis',(-1.,0.,0.));
#1002=DIRECTION('center_axis',(0.,0.,1.));
#1003=DIRECTION('ref_axis',(-1.,0.,0.));
#1004=DIRECTION('center_axis',(0.,0.,-1.));
#1005=DIRECTION('ref_axis',(-1.,0.,0.));
#1006=DIRECTION('',(0.,0.,-1.));
#1007=DIRECTION('center_axis',(0.,0.,1.));
#1008=DIRECTION('ref_axis',(-1.,0.,0.));
#1009=DIRECTION('center_axis',(0.,0.,1.));
#1010=DIRECTION('ref_axis',(-1.,0.,0.));
#1011=DIRECTION('center_axis',(0.,0.,1.));
#1012=DIRECTION('ref_axis',(-1.,0.,0.));
#1013=DIRECTION('',(0.,0.,-1.));
#1014=DIRECTION('center_axis',(0.,0.,1.));
#1015=DIRECTION('ref_axis',(-1.,0.,0.));
#1016=DIRECTION('center_axis',(0.,0.,1.));
#1017=DIRECTION('ref_axis',(1.,0.,0.));
#1018=DIRECTION('center_axis',(0.,0.,1.));
#1019=DIRECTION('ref_axis',(-1.,0.,0.));
#1020=DIRECTION('center_axis',(0.,0.,-1.));
#1021=DIRECTION('ref_axis',(-1.,0.,0.));
#1022=DIRECTION('',(0.,0.,-1.));
#1023=DIRECTION('center_axis',(0.,0.,1.));
#1024=DIRECTION('ref_axis',(-1.,0.,0.));
#1025=DIRECTION('center_axis',(0.,0.,1.));
#1026=DIRECTION('ref_axis',(-1.,0.,0.));
#1027=DIRECTION('center_axis',(0.,0.,1.));
#1028=DIRECTION('ref_axis',(-1.,0.,0.));
#1029=DIRECTION('',(0.,0.,-1.));
#1030=DIRECTION('center_axis',(0.,0.,1.));
#1031=DIRECTION('ref_axis',(-1.,0.,0.));
#1032=DIRECTION('center_axis',(0.,0.,1.));
#1033=DIRECTION('ref_axis',(1.,0.,0.));
#1034=DIRECTION('center_axis',(0.,0.,1.));
#1035=DIRECTION('ref_axis',(-1.,0.,0.));
#1036=DIRECTION('center_axis',(0.,0.,-1.));
#1037=DIRECTION('ref_axis',(-1.,0.,0.));
#1038=DIRECTION('',(0.,0.,-1.));
#1039=DIRECTION('center_axis',(0.,0.,1.));
#1040=DIRECTION('ref_axis',(-1.,0.,0.));
#1041=DIRECTION('center_axis',(0.,0.,1.));
#1042=DIRECTION('ref_axis',(-1.,0.,0.));
#1043=DIRECTION('center_axis',(0.,0.,1.));
#1044=DIRECTION('ref_axis',(-1.,0.,0.));
#1045=DIRECTION('',(0.,0.,-1.));
#1046=DIRECTION('center_axis',(0.,0.,1.));
#1047=DIRECTION('ref_axis',(-1.,0.,0.));
#1048=DIRECTION('center_axis',(0.,0.,1.));
#1049=DIRECTION('ref_axis',(1.,0.,0.));
#1050=DIRECTION('center_axis',(0.,0.,1.));
#1051=DIRECTION('ref_axis',(1.,0.,0.));
#1052=DIRECTION('center_axis',(0.,-1.,0.));
#1053=DIRECTION('ref_axis',(1.,0.,0.));
#1054=DIRECTION('',(0.,0.,1.));
#1055=DIRECTION('',(1.,0.,0.));
#1056=DIRECTION('',(0.,0.,1.));
#1057=DIRECTION('center_axis',(1.,0.,0.));
#1058=DIRECTION('ref_axis',(0.,1.,0.));
#1059=DIRECTION('',(0.,1.,0.));
#1060=DIRECTION('',(0.,0.,1.));
#1061=DIRECTION('center_axis',(-1.,3.61111864572607E-33,0.));
#1062=DIRECTION('ref_axis',(-3.61111864572607E-33,-1.,0.));
#1063=DIRECTION('',(0.,0.,1.));
#1064=DIRECTION('',(-3.61111864572607E-33,-1.,0.));
#1065=DIRECTION('center_axis',(1.,0.,0.));
#1066=DIRECTION('ref_axis',(0.,1.,0.));
#1067=DIRECTION('',(0.,1.,0.));
#1068=DIRECTION('',(0.,0.,1.));
#1069=DIRECTION('center_axis',(3.25926605973225E-33,-1.,0.));
#1070=DIRECTION('ref_axis',(1.,3.25926605973225E-33,0.));
#1071=DIRECTION('',(1.,3.25926605973225E-33,0.));
#1072=DIRECTION('',(0.,0.,1.));
#1073=DIRECTION('',(1.,3.25926605973225E-33,0.));
#1074=DIRECTION('center_axis',(-1.,0.,0.));
#1075=DIRECTION('ref_axis',(0.,-1.,0.));
#1076=DIRECTION('',(0.,-1.,0.));
#1077=DIRECTION('center_axis',(0.,0.,1.));
#1078=DIRECTION('ref_axis',(1.,0.,0.));
#1079=CARTESIAN_POINT('',(0.,0.,0.));
#1080=CARTESIAN_POINT('Origin',(1.15555796663234E-31,14.5,3.));
#1081=CARTESIAN_POINT('',(1.15555796663234E-31,15.55,3.));
#1082=CARTESIAN_POINT('Origin',(2.31111593326468E-31,14.5,3.));
#1083=CARTESIAN_POINT('',(1.2,15.55,3.));
#1084=CARTESIAN_POINT('',(1.15555796663234E-31,15.55,3.));
#1085=CARTESIAN_POINT('Origin',(1.2,14.5,3.));
#1086=CARTESIAN_POINT('Origin',(1.2,14.5,3.));
#1087=CARTESIAN_POINT('Origin',(1.15555796663234E-31,9.5,3.));
#1088=CARTESIAN_POINT('',(1.15555796663234E-31,10.55,3.));
#1089=CARTESIAN_POINT('Origin',(2.31111593326468E-31,9.5,3.));
#1090=CARTESIAN_POINT('',(1.2,10.55,3.));
#1091=CARTESIAN_POINT('',(1.15555796663234E-31,10.55,3.));
#1092=CARTESIAN_POINT('Origin',(1.2,9.5,3.));
#1093=CARTESIAN_POINT('Origin',(1.2,9.5,3.));
#1094=CARTESIAN_POINT('Origin',(102.72,62.72,0.));
#1095=CARTESIAN_POINT('',(102.72,64.,6.));
#1096=CARTESIAN_POINT('',(104.,62.72,6.));
#1097=CARTESIAN_POINT('Origin',(102.72,62.72,6.));
#1098=CARTESIAN_POINT('',(104.,62.72,0.));
#1099=CARTESIAN_POINT('',(104.,62.72,0.));
#1100=CARTESIAN_POINT('',(102.72,64.,0.));
#1101=CARTESIAN_POINT('Origin',(102.72,62.72,0.));
#1102=CARTESIAN_POINT('',(102.72,64.,0.));
#1103=CARTESIAN_POINT('Origin',(104.,64.,0.));
#1104=CARTESIAN_POINT('',(1.28,64.,0.));
#1105=CARTESIAN_POINT('',(104.,64.,0.));
#1106=CARTESIAN_POINT('',(1.28,64.,6.));
#1107=CARTESIAN_POINT('',(1.28,64.,0.));
#1108=CARTESIAN_POINT('',(104.,64.,6.));
#1109=CARTESIAN_POINT('',(25.55,64.,3.));
#1110=CARTESIAN_POINT('Origin',(24.5,64.,3.));
#1111=CARTESIAN_POINT('',(20.55,64.,3.));
#1112=CARTESIAN_POINT('Origin',(19.5,64.,3.));
#1113=CARTESIAN_POINT('',(80.55,64.,3.));
#1114=CARTESIAN_POINT('Origin',(79.5,64.,3.));
#1115=CARTESIAN_POINT('',(85.55,64.,3.));
#1116=CARTESIAN_POINT('Origin',(84.5,64.,3.));
#1117=CARTESIAN_POINT('Origin',(52.,32.,0.));
#1118=CARTESIAN_POINT('',(104.,3.38963670212154E-31,0.));
#1119=CARTESIAN_POINT('',(104.,3.38963670212154E-31,0.));
#1120=CARTESIAN_POINT('',(0.,0.,0.));
#1121=CARTESIAN_POINT('',(0.,0.,0.));
#1122=CARTESIAN_POINT('',(2.26489361459939E-31,62.72,0.));
#1123=CARTESIAN_POINT('',(2.31111593326468E-31,64.,0.));
#1124=CARTESIAN_POINT('Origin',(1.28,62.72,0.));
#1125=CARTESIAN_POINT('Origin',(1.28,62.72,0.));
#1126=CARTESIAN_POINT('',(2.26489361459939E-31,62.72,6.));
#1127=CARTESIAN_POINT('Origin',(1.28,62.72,6.));
#1128=CARTESIAN_POINT('',(0.,62.72,0.));
#1129=CARTESIAN_POINT('Origin',(2.50000007450581,0.,3.));
#1130=CARTESIAN_POINT('',(1.45000007450581,0.,3.));
#1131=CARTESIAN_POINT('Origin',(2.50000007450581,3.22667340156327E-31,3.));
#1132=CARTESIAN_POINT('',(1.45000007450581,1.2,3.));
#1133=CARTESIAN_POINT('',(1.45000007450581,0.,3.));
#1134=CARTESIAN_POINT('Origin',(2.50000007450581,1.2,3.));
#1135=CARTESIAN_POINT('Origin',(2.50000007450581,1.2,3.));
#1136=CARTESIAN_POINT('Origin',(101.500001475215,0.,3.));
#1137=CARTESIAN_POINT('',(100.450001475215,0.,3.));
#1138=CARTESIAN_POINT('Origin',(101.500001475215,3.22667340156327E-31,3.));
#1139=CARTESIAN_POINT('',(100.450001475215,1.2,3.));
#1140=CARTESIAN_POINT('',(100.450001475215,0.,3.));
#1141=CARTESIAN_POINT('Origin',(101.500001475215,1.2,3.));
#1142=CARTESIAN_POINT('Origin',(101.500001475215,1.2,3.));
#1143=CARTESIAN_POINT('Origin',(24.5,64.,3.));
#1144=CARTESIAN_POINT('',(25.55,62.8,3.));
#1145=CARTESIAN_POINT('',(25.55,64.,3.));
#1146=CARTESIAN_POINT('Origin',(24.5,62.8,3.));
#1147=CARTESIAN_POINT('Origin',(24.5,62.8,3.));
#1148=CARTESIAN_POINT('Origin',(19.5,64.,3.));
#1149=CARTESIAN_POINT('',(20.55,62.8,3.));
#1150=CARTESIAN_POINT('',(20.55,64.,3.));
#1151=CARTESIAN_POINT('Origin',(19.5,62.8,3.));
#1152=CARTESIAN_POINT('Origin',(19.5,62.8,3.));
#1153=CARTESIAN_POINT('Origin',(104.,34.5,3.));
#1154=CARTESIAN_POINT('',(104.,33.45,3.));
#1155=CARTESIAN_POINT('Origin',(104.,34.5,3.));
#1156=CARTESIAN_POINT('',(102.8,33.45,3.));
#1157=CARTESIAN_POINT('',(104.,33.45,3.));
#1158=CARTESIAN_POINT('Origin',(102.8,34.5,3.));
#1159=CARTESIAN_POINT('Origin',(102.8,34.5,3.));
#1160=CARTESIAN_POINT('Origin',(104.,29.5,3.));
#1161=CARTESIAN_POINT('',(104.,28.45,3.));
#1162=CARTESIAN_POINT('Origin',(104.,29.5,3.));
#1163=CARTESIAN_POINT('',(102.8,28.45,3.));
#1164=CARTESIAN_POINT('',(104.,28.45,3.));
#1165=CARTESIAN_POINT('Origin',(102.8,29.5,3.));
#1166=CARTESIAN_POINT('Origin',(102.8,29.5,3.));
#1167=CARTESIAN_POINT('Origin',(79.5,64.,3.));
#1168=CARTESIAN_POINT('',(80.55,62.8,3.));
#1169=CARTESIAN_POINT('',(80.55,64.,3.));
#1170=CARTESIAN_POINT('Origin',(79.5,62.8,3.));
#1171=CARTESIAN_POINT('Origin',(79.5,62.8,3.));
#1172=CARTESIAN_POINT('Origin',(84.5,64.,3.));
#1173=CARTESIAN_POINT('',(85.55,62.8,3.));
#1174=CARTESIAN_POINT('',(85.55,64.,3.));
#1175=CARTESIAN_POINT('Origin',(84.5,62.8,3.));
#1176=CARTESIAN_POINT('Origin',(84.5,62.8,3.));
#1177=CARTESIAN_POINT('Origin',(1.15555796663234E-31,44.5,3.));
#1178=CARTESIAN_POINT('',(1.15555796663234E-31,45.55,3.));
#1179=CARTESIAN_POINT('Origin',(2.31111593326468E-31,44.5,3.));
#1180=CARTESIAN_POINT('',(1.2,45.55,3.));
#1181=CARTESIAN_POINT('',(1.15555796663234E-31,45.55,3.));
#1182=CARTESIAN_POINT('Origin',(1.2,44.5,3.));
#1183=CARTESIAN_POINT('Origin',(1.2,44.5,3.));
#1184=CARTESIAN_POINT('Origin',(1.15555796663234E-31,49.5,3.));
#1185=CARTESIAN_POINT('',(1.15555796663234E-31,50.55,3.));
#1186=CARTESIAN_POINT('Origin',(2.31111593326468E-31,49.5,3.));
#1187=CARTESIAN_POINT('',(1.2,50.55,3.));
#1188=CARTESIAN_POINT('',(1.15555796663234E-31,50.55,3.));
#1189=CARTESIAN_POINT('Origin',(1.2,49.5,3.));
#1190=CARTESIAN_POINT('Origin',(1.2,49.5,3.));
#1191=CARTESIAN_POINT('Origin',(10.1750000745058,51.5940000745058,1.4));
#1192=CARTESIAN_POINT('',(11.7750000745058,51.5940000745058,4.4));
#1193=CARTESIAN_POINT('Origin',(10.1750000745058,51.5940000745058,4.4));
#1194=CARTESIAN_POINT('',(11.7750000745058,51.5940000745058,1.4));
#1195=CARTESIAN_POINT('',(11.7750000745058,51.5940000745058,1.4));
#1196=CARTESIAN_POINT('Origin',(10.1750000745058,51.5940000745058,1.4));
#1197=CARTESIAN_POINT('Origin',(10.1750000745058,51.5940000745058,1.4));
#1198=CARTESIAN_POINT('',(12.2750000745058,51.5940000745058,4.4));
#1199=CARTESIAN_POINT('Origin',(10.1750000745058,51.5940000745058,4.4));
#1200=CARTESIAN_POINT('',(12.2750000745058,51.5940000745058,1.4));
#1201=CARTESIAN_POINT('',(12.2750000745058,51.5940000745058,1.4));
#1202=CARTESIAN_POINT('Origin',(10.1750000745058,51.5940000745058,1.4));
#1203=CARTESIAN_POINT('Origin',(10.1750000745058,51.5940000745058,4.4));
#1204=CARTESIAN_POINT('Origin',(52.0000000745058,29.5000000745058,1.4));
#1205=CARTESIAN_POINT('',(5.00000007450581,7.45058059692383E-8,1.4));
#1206=CARTESIAN_POINT('',(5.00000007450581,59.0000000745058,1.4));
#1207=CARTESIAN_POINT('',(5.00000007450581,14.7500000745058,1.4));
#1208=CARTESIAN_POINT('',(99.0000000745058,7.45058059692383E-8,1.4));
#1209=CARTESIAN_POINT('',(5.00000007450581,7.45058059692383E-8,1.4));
#1210=CARTESIAN_POINT('',(99.0000000745058,59.0000000745058,1.4));
#1211=CARTESIAN_POINT('',(99.0000000745058,44.2500000745058,1.4));
#1212=CARTESIAN_POINT('',(28.5000000745058,59.0000000745058,1.4));
#1213=CARTESIAN_POINT('',(95.6190000745058,34.1310000745058,1.4));
#1214=CARTESIAN_POINT('Origin',(93.5190000745058,34.1310000745058,1.4));
#1215=CARTESIAN_POINT('',(49.5810000745058,23.8120000745058,1.4));
#1216=CARTESIAN_POINT('Origin',(47.4810000745058,23.8120000745058,1.4));
#1217=CARTESIAN_POINT('',(12.2750000745058,3.1750000745058,1.4));
#1218=CARTESIAN_POINT('Origin',(10.1750000745058,3.1750000745058,1.4));
#1219=CARTESIAN_POINT('Origin',(93.5190000745058,34.1310000745058,1.4));
#1220=CARTESIAN_POINT('',(95.1190000745058,34.1310000745058,4.4));
#1221=CARTESIAN_POINT('Origin',(93.5190000745058,34.1310000745058,4.4));
#1222=CARTESIAN_POINT('',(95.1190000745058,34.1310000745058,1.4));
#1223=CARTESIAN_POINT('',(95.1190000745058,34.1310000745058,1.4));
#1224=CARTESIAN_POINT('Origin',(93.5190000745058,34.1310000745058,1.4));
#1225=CARTESIAN_POINT('Origin',(93.5190000745058,34.1310000745058,1.4));
#1226=CARTESIAN_POINT('',(95.6190000745058,34.1310000745058,4.4));
#1227=CARTESIAN_POINT('Origin',(93.5190000745058,34.1310000745058,4.4));
#1228=CARTESIAN_POINT('',(95.6190000745058,34.1310000745058,1.4));
#1229=CARTESIAN_POINT('Origin',(93.5190000745058,34.1310000745058,4.4));
#1230=CARTESIAN_POINT('Origin',(52.0000000745058,29.5000000745058,1.4));
#1231=CARTESIAN_POINT('Origin',(10.1750000745058,3.1750000745058,1.4));
#1232=CARTESIAN_POINT('',(11.7750000745058,3.1750000745058,4.4));
#1233=CARTESIAN_POINT('Origin',(10.1750000745058,3.1750000745058,4.4));
#1234=CARTESIAN_POINT('',(11.7750000745058,3.1750000745058,1.4));
#1235=CARTESIAN_POINT('',(11.7750000745058,3.1750000745058,1.4));
#1236=CARTESIAN_POINT('Origin',(10.1750000745058,3.1750000745058,1.4));
#1237=CARTESIAN_POINT('Origin',(10.1750000745058,3.1750000745058,1.4));
#1238=CARTESIAN_POINT('',(12.2750000745058,3.1750000745058,4.4));
#1239=CARTESIAN_POINT('Origin',(10.1750000745058,3.1750000745058,4.4));
#1240=CARTESIAN_POINT('',(12.2750000745058,3.1750000745058,1.4));
#1241=CARTESIAN_POINT('Origin',(10.1750000745058,3.1750000745058,4.4));
#1242=CARTESIAN_POINT('Origin',(52.0000000745058,29.5000000745058,1.4));
#1243=CARTESIAN_POINT('Origin',(47.4810000745058,23.8120000745058,1.4));
#1244=CARTESIAN_POINT('',(49.0810000745058,23.8120000745058,4.4));
#1245=CARTESIAN_POINT('Origin',(47.4810000745058,23.8120000745058,4.4));
#1246=CARTESIAN_POINT('',(49.0810000745058,23.8120000745058,1.4));
#1247=CARTESIAN_POINT('',(49.0810000745058,23.8120000745058,1.4));
#1248=CARTESIAN_POINT('Origin',(47.4810000745058,23.8120000745058,1.4));
#1249=CARTESIAN_POINT('Origin',(47.4810000745058,23.8120000745058,1.4));
#1250=CARTESIAN_POINT('',(49.5810000745058,23.8120000745058,4.4));
#1251=CARTESIAN_POINT('Origin',(47.4810000745058,23.8120000745058,4.4));
#1252=CARTESIAN_POINT('',(49.5810000745058,23.8120000745058,1.4));
#1253=CARTESIAN_POINT('Origin',(47.4810000745058,23.8120000745058,4.4));
#1254=CARTESIAN_POINT('Origin',(52.0000000745058,29.5000000745058,1.4));
#1255=CARTESIAN_POINT('Origin',(52.0000000745058,29.5000000745058,1.4));
#1256=CARTESIAN_POINT('Origin',(5.00000007450581,59.0000000745058,0.));
#1257=CARTESIAN_POINT('',(99.0000000745058,59.0000000745058,6.));
#1258=CARTESIAN_POINT('',(99.0000000745058,59.0000000745058,0.));
#1259=CARTESIAN_POINT('',(5.00000007450581,59.0000000745058,6.));
#1260=CARTESIAN_POINT('',(99.0000000745058,59.0000000745058,6.));
#1261=CARTESIAN_POINT('',(5.00000007450581,59.0000000745058,0.));
#1262=CARTESIAN_POINT('Origin',(5.00000007450581,7.45058059692383E-8,0.));
#1263=CARTESIAN_POINT('',(5.00000007450581,7.45058059692383E-8,6.));
#1264=CARTESIAN_POINT('',(5.00000007450581,59.0000000745058,6.));
#1265=CARTESIAN_POINT('',(5.00000007450581,7.45058059692383E-8,0.));
#1266=CARTESIAN_POINT('Origin',(2.31111593326468E-31,64.,0.));
#1267=CARTESIAN_POINT('',(0.,0.,6.));
#1268=CARTESIAN_POINT('',(0.,0.,0.));
#1269=CARTESIAN_POINT('',(2.31111593326468E-31,64.,6.));
#1270=CARTESIAN_POINT('Origin',(104.,3.38963670212154E-31,0.));
#1271=CARTESIAN_POINT('',(104.,0.,6.));
#1272=CARTESIAN_POINT('',(104.,3.38963670212154E-31,6.));
#1273=CARTESIAN_POINT('',(104.,3.38963670212154E-31,0.));
#1274=CARTESIAN_POINT('Origin',(99.0000000745058,3.22667340156327E-31,0.));
#1275=CARTESIAN_POINT('',(99.0000000745058,7.45058059692383E-8,6.));
#1276=CARTESIAN_POINT('',(0.,0.,6.));
#1277=CARTESIAN_POINT('',(99.0000000745058,7.45058059692383E-8,0.));
#1278=CARTESIAN_POINT('',(0.,0.,6.));
#1279=CARTESIAN_POINT('Origin',(99.0000000745058,59.0000000745058,0.));
#1280=CARTESIAN_POINT('',(99.0000000745058,7.45058059692383E-8,6.));
#1281=CARTESIAN_POINT('Origin',(52.,32.,6.));
#1282=UNCERTAINTY_MEASURE_WITH_UNIT(LENGTH_MEASURE(0.01),#1286,
'DISTANCE_ACCURACY_VALUE',
'Maximum model space distance between geometric entities at asserted c
onnectivities');
#1283=UNCERTAINTY_MEASURE_WITH_UNIT(LENGTH_MEASURE(0.01),#1286,
'DISTANCE_ACCURACY_VALUE',
'Maximum model space distance between geometric entities at asserted c
onnectivities');
#1284=(
GEOMETRIC_REPRESENTATION_CONTEXT(3)
GLOBAL_UNCERTAINTY_ASSIGNED_CONTEXT((#1282))
GLOBAL_UNIT_ASSIGNED_CONTEXT((#1286,#1288,#1289))
REPRESENTATION_CONTEXT('','3D')
);
#1285=(
GEOMETRIC_REPRESENTATION_CONTEXT(3)
GLOBAL_UNCERTAINTY_ASSIGNED_CONTEXT((#1283))
GLOBAL_UNIT_ASSIGNED_CONTEXT((#1286,#1288,#1289))
REPRESENTATION_CONTEXT('','3D')
);
#1286=(
LENGTH_UNIT()
NAMED_UNIT(*)
SI_UNIT(.MILLI.,.METRE.)
);
#1287=(
LENGTH_UNIT()
NAMED_UNIT(*)
SI_UNIT($,.METRE.)
);
#1288=(
NAMED_UNIT(*)
PLANE_ANGLE_UNIT()
SI_UNIT($,.RADIAN.)
);
#1289=(
NAMED_UNIT(*)
SI_UNIT($,.STERADIAN.)
SOLID_ANGLE_UNIT()
);
#1290=SHAPE_DEFINITION_REPRESENTATION(#1291,#1292);
#1291=PRODUCT_DEFINITION_SHAPE('',$,#1294);
#1292=SHAPE_REPRESENTATION('',(#742),#1284);
#1293=PRODUCT_DEFINITION_CONTEXT('part definition',#1298,'design');
#1294=PRODUCT_DEFINITION('Base','Base v15',#1295,#1293);
#1295=PRODUCT_DEFINITION_FORMATION('',$,#1300);
#1296=PRODUCT_RELATED_PRODUCT_CATEGORY('Base v15','Base v15',(#1300));
#1297=APPLICATION_PROTOCOL_DEFINITION('international standard',
'automotive_design',2009,#1298);
#1298=APPLICATION_CONTEXT(
'Core Data for Automotive Mechanical Design Process');
#1299=PRODUCT_CONTEXT('part definition',#1298,'mechanical');
#1300=PRODUCT('Base','Base v15',$,(#1299));
#1301=PRESENTATION_STYLE_ASSIGNMENT((#1302));
#1302=SURFACE_STYLE_USAGE(.BOTH.,#1303);
#1303=SURFACE_SIDE_STYLE('',(#1304));
#1304=SURFACE_STYLE_FILL_AREA(#1305);
#1305=FILL_AREA_STYLE('EPX 86FR (with Carbon M2 M3 L1 3D Printers)',(#1306));
#1306=FILL_AREA_STYLE_COLOUR(
'EPX 86FR (with Carbon M2 M3 L1 3D Printers)',#1307);
#1307=COLOUR_RGB('EPX 86FR (with Carbon M2 M3 L1 3D Printers)',0.247058823529412,
0.247058823529412,0.247058823529412);
ENDSEC;
END-ISO-10303-21;
