ISO-10303-21;
HEADER;
/* Generated by software containing ST-Developer
 * from STEP Tools, Inc. (www.steptools.com) 
 */

FILE_DESCRIPTION(
/* description */ (''),
/* implementation_level */ '2;1');

FILE_NAME(
/* name */ 'Connector Bracket.step',
/* time_stamp */ '2026-08-22T21:45:02+09:30',
/* author */ (''),
/* organization */ (''),
/* preprocessor_version */ 'ST-DEVELOPER v20.1',
/* originating_system */ 'Autodesk Translation Framework v15.8.0.0',
/* authorisation */ '');

FILE_SCHEMA (('AUTOMOTIVE_DESIGN { 1 0 10303 214 3 1 1 }'));
ENDSEC;

DATA;
#10=MECHANICAL_DESIGN_GEOMETRIC_PRESENTATION_REPRESENTATION('',(#13),#647);
#11=SHAPE_REPRESENTATION_RELATIONSHIP('SRR','None',#654,#12);
#12=ADVANCED_BREP_SHAPE_REPRESENTATION('',(#14),#646);
#13=STYLED_ITEM('',(#663),#14);
#14=MANIFOLD_SOLID_BREP('Body1',#355);
#15=FACE_BOUND('',#121,.T.);
#16=FACE_BOUND('',#122,.T.);
#17=FACE_BOUND('',#123,.T.);
#18=FACE_BOUND('',#124,.T.);
#19=PLANE('',#376);
#20=PLANE('',#384);
#21=PLANE('',#392);
#22=PLANE('',#400);
#23=PLANE('',#404);
#24=PLANE('',#405);
#25=PLANE('',#411);
#26=PLANE('',#414);
#27=PLANE('',#417);
#28=PLANE('',#418);
#29=LINE('',#552,#49);
#30=LINE('',#565,#50);
#31=LINE('',#578,#51);
#32=LINE('',#591,#52);
#33=LINE('',#599,#53);
#34=LINE('',#602,#54);
#35=LINE('',#605,#55);
#36=LINE('',#607,#56);
#37=LINE('',#608,#57);
#38=LINE('',#611,#58);
#39=LINE('',#615,#59);
#40=LINE('',#619,#60);
#41=LINE('',#624,#61);
#42=LINE('',#627,#62);
#43=LINE('',#628,#63);
#44=LINE('',#632,#64);
#45=LINE('',#635,#65);
#46=LINE('',#636,#66);
#47=LINE('',#640,#67);
#48=LINE('',#642,#68);
#49=VECTOR('',#433,1.025);
#50=VECTOR('',#450,1.025);
#51=VECTOR('',#467,1.025);
#52=VECTOR('',#484,1.025);
#53=VECTOR('',#493,10.);
#54=VECTOR('',#496,10.);
#55=VECTOR('',#499,10.);
#56=VECTOR('',#500,10.);
#57=VECTOR('',#501,10.);
#58=VECTOR('',#504,10.);
#59=VECTOR('',#507,10.);
#60=VECTOR('',#510,10.);
#61=VECTOR('',#517,10.);
#62=VECTOR('',#520,10.);
#63=VECTOR('',#521,10.);
#64=VECTOR('',#526,10.);
#65=VECTOR('',#529,10.);
#66=VECTOR('',#530,10.);
#67=VECTOR('',#535,10.);
#68=VECTOR('',#538,10.);
#69=CYLINDRICAL_SURFACE('',#374,1.025);
#70=CYLINDRICAL_SURFACE('',#382,1.025);
#71=CYLINDRICAL_SURFACE('',#390,1.025);
#72=CYLINDRICAL_SURFACE('',#398,1.025);
#73=CYLINDRICAL_SURFACE('',#401,1.28);
#74=CYLINDRICAL_SURFACE('',#409,1.28);
#75=CYLINDRICAL_SURFACE('',#412,1.28);
#76=CYLINDRICAL_SURFACE('',#415,1.28);
#77=FACE_OUTER_BOUND('',#99,.T.);
#78=FACE_OUTER_BOUND('',#100,.T.);
#79=FACE_OUTER_BOUND('',#101,.T.);
#80=FACE_OUTER_BOUND('',#102,.T.);
#81=FACE_OUTER_BOUND('',#103,.T.);
#82=FACE_OUTER_BOUND('',#104,.T.);
#83=FACE_OUTER_BOUND('',#105,.T.);
#84=FACE_OUTER_BOUND('',#106,.T.);
#85=FACE_OUTER_BOUND('',#107,.T.);
#86=FACE_OUTER_BOUND('',#108,.T.);
#87=FACE_OUTER_BOUND('',#109,.T.);
#88=FACE_OUTER_BOUND('',#110,.T.);
#89=FACE_OUTER_BOUND('',#111,.T.);
#90=FACE_OUTER_BOUND('',#112,.T.);
#91=FACE_OUTER_BOUND('',#113,.T.);
#92=FACE_OUTER_BOUND('',#114,.T.);
#93=FACE_OUTER_BOUND('',#115,.T.);
#94=FACE_OUTER_BOUND('',#116,.T.);
#95=FACE_OUTER_BOUND('',#117,.T.);
#96=FACE_OUTER_BOUND('',#118,.T.);
#97=FACE_OUTER_BOUND('',#119,.T.);
#98=FACE_OUTER_BOUND('',#120,.T.);
#99=EDGE_LOOP('',(#233,#234,#235,#236,#237));
#100=EDGE_LOOP('',(#238,#239,#240,#241,#242));
#101=EDGE_LOOP('',(#243));
#102=EDGE_LOOP('',(#244,#245,#246,#247,#248));
#103=EDGE_LOOP('',(#249,#250,#251,#252,#253));
#104=EDGE_LOOP('',(#254));
#105=EDGE_LOOP('',(#255,#256,#257,#258,#259));
#106=EDGE_LOOP('',(#260,#261,#262,#263,#264));
#107=EDGE_LOOP('',(#265));
#108=EDGE_LOOP('',(#266,#267,#268,#269,#270));
#109=EDGE_LOOP('',(#271,#272,#273,#274,#275));
#110=EDGE_LOOP('',(#276));
#111=EDGE_LOOP('',(#277,#278,#279,#280));
#112=EDGE_LOOP('',(#281,#282,#283,#284));
#113=EDGE_LOOP('',(#285,#286,#287,#288,#289,#290,#291,#292));
#114=EDGE_LOOP('',(#293,#294,#295,#296));
#115=EDGE_LOOP('',(#297,#298,#299,#300));
#116=EDGE_LOOP('',(#301,#302,#303,#304));
#117=EDGE_LOOP('',(#305,#306,#307,#308));
#118=EDGE_LOOP('',(#309,#310,#311,#312));
#119=EDGE_LOOP('',(#313,#314,#315,#316));
#120=EDGE_LOOP('',(#317,#318,#319,#320,#321,#322,#323,#324));
#121=EDGE_LOOP('',(#325));
#122=EDGE_LOOP('',(#326));
#123=EDGE_LOOP('',(#327));
#124=EDGE_LOOP('',(#328));
#125=CIRCLE('',#370,0.625);
#126=CIRCLE('',#371,0.4);
#127=CIRCLE('',#372,1.025);
#128=CIRCLE('',#373,1.025);
#129=CIRCLE('',#375,1.025);
#130=CIRCLE('',#378,0.625);
#131=CIRCLE('',#379,0.4);
#132=CIRCLE('',#380,1.025);
#133=CIRCLE('',#381,1.025);
#134=CIRCLE('',#383,1.025);
#135=CIRCLE('',#386,0.625);
#136=CIRCLE('',#387,0.4);
#137=CIRCLE('',#388,1.025);
#138=CIRCLE('',#389,1.025);
#139=CIRCLE('',#391,1.025);
#140=CIRCLE('',#394,0.625);
#141=CIRCLE('',#395,0.4);
#142=CIRCLE('',#396,1.025);
#143=CIRCLE('',#397,1.025);
#144=CIRCLE('',#399,1.025);
#145=CIRCLE('',#402,1.28);
#146=CIRCLE('',#403,1.28);
#147=CIRCLE('',#406,1.28);
#148=CIRCLE('',#407,1.28);
#149=CIRCLE('',#408,1.28);
#150=CIRCLE('',#410,1.28);
#151=CIRCLE('',#413,1.28);
#152=CIRCLE('',#416,1.28);
#153=VERTEX_POINT('',#543);
#154=VERTEX_POINT('',#545);
#155=VERTEX_POINT('',#547);
#156=VERTEX_POINT('',#551);
#157=VERTEX_POINT('',#556);
#158=VERTEX_POINT('',#558);
#159=VERTEX_POINT('',#560);
#160=VERTEX_POINT('',#564);
#161=VERTEX_POINT('',#569);
#162=VERTEX_POINT('',#571);
#163=VERTEX_POINT('',#573);
#164=VERTEX_POINT('',#577);
#165=VERTEX_POINT('',#582);
#166=VERTEX_POINT('',#584);
#167=VERTEX_POINT('',#586);
#168=VERTEX_POINT('',#590);
#169=VERTEX_POINT('',#595);
#170=VERTEX_POINT('',#596);
#171=VERTEX_POINT('',#598);
#172=VERTEX_POINT('',#600);
#173=VERTEX_POINT('',#604);
#174=VERTEX_POINT('',#606);
#175=VERTEX_POINT('',#610);
#176=VERTEX_POINT('',#612);
#177=VERTEX_POINT('',#614);
#178=VERTEX_POINT('',#616);
#179=VERTEX_POINT('',#618);
#180=VERTEX_POINT('',#622);
#181=VERTEX_POINT('',#626);
#182=VERTEX_POINT('',#630);
#183=VERTEX_POINT('',#634);
#184=VERTEX_POINT('',#638);
#185=EDGE_CURVE('',#153,#153,#125,.T.);
#186=EDGE_CURVE('',#153,#154,#126,.T.);
#187=EDGE_CURVE('',#154,#155,#127,.T.);
#188=EDGE_CURVE('',#155,#154,#128,.T.);
#189=EDGE_CURVE('',#155,#156,#29,.T.);
#190=EDGE_CURVE('',#156,#156,#129,.T.);
#191=EDGE_CURVE('',#157,#157,#130,.T.);
#192=EDGE_CURVE('',#157,#158,#131,.T.);
#193=EDGE_CURVE('',#158,#159,#132,.T.);
#194=EDGE_CURVE('',#159,#158,#133,.T.);
#195=EDGE_CURVE('',#159,#160,#30,.T.);
#196=EDGE_CURVE('',#160,#160,#134,.T.);
#197=EDGE_CURVE('',#161,#161,#135,.T.);
#198=EDGE_CURVE('',#161,#162,#136,.T.);
#199=EDGE_CURVE('',#162,#163,#137,.T.);
#200=EDGE_CURVE('',#163,#162,#138,.T.);
#201=EDGE_CURVE('',#163,#164,#31,.T.);
#202=EDGE_CURVE('',#164,#164,#139,.T.);
#203=EDGE_CURVE('',#165,#165,#140,.T.);
#204=EDGE_CURVE('',#165,#166,#141,.T.);
#205=EDGE_CURVE('',#166,#167,#142,.T.);
#206=EDGE_CURVE('',#167,#166,#143,.T.);
#207=EDGE_CURVE('',#167,#168,#32,.T.);
#208=EDGE_CURVE('',#168,#168,#144,.T.);
#209=EDGE_CURVE('',#169,#170,#145,.T.);
#210=EDGE_CURVE('',#170,#171,#33,.T.);
#211=EDGE_CURVE('',#171,#172,#146,.T.);
#212=EDGE_CURVE('',#172,#169,#34,.T.);
#213=EDGE_CURVE('',#172,#173,#35,.T.);
#214=EDGE_CURVE('',#174,#173,#36,.T.);
#215=EDGE_CURVE('',#169,#174,#37,.T.);
#216=EDGE_CURVE('',#175,#171,#38,.T.);
#217=EDGE_CURVE('',#176,#175,#147,.T.);
#218=EDGE_CURVE('',#177,#176,#39,.T.);
#219=EDGE_CURVE('',#178,#177,#148,.T.);
#220=EDGE_CURVE('',#179,#178,#40,.T.);
#221=EDGE_CURVE('',#173,#179,#149,.T.);
#222=EDGE_CURVE('',#180,#174,#150,.T.);
#223=EDGE_CURVE('',#179,#180,#41,.T.);
#224=EDGE_CURVE('',#181,#178,#42,.T.);
#225=EDGE_CURVE('',#180,#181,#43,.T.);
#226=EDGE_CURVE('',#182,#181,#151,.T.);
#227=EDGE_CURVE('',#177,#182,#44,.T.);
#228=EDGE_CURVE('',#183,#176,#45,.T.);
#229=EDGE_CURVE('',#182,#183,#46,.T.);
#230=EDGE_CURVE('',#184,#183,#152,.T.);
#231=EDGE_CURVE('',#175,#184,#47,.T.);
#232=EDGE_CURVE('',#184,#170,#48,.T.);
#233=ORIENTED_EDGE('',*,*,#185,.T.);
#234=ORIENTED_EDGE('',*,*,#186,.T.);
#235=ORIENTED_EDGE('',*,*,#187,.T.);
#236=ORIENTED_EDGE('',*,*,#188,.T.);
#237=ORIENTED_EDGE('',*,*,#186,.F.);
#238=ORIENTED_EDGE('',*,*,#188,.F.);
#239=ORIENTED_EDGE('',*,*,#189,.T.);
#240=ORIENTED_EDGE('',*,*,#190,.F.);
#241=ORIENTED_EDGE('',*,*,#189,.F.);
#242=ORIENTED_EDGE('',*,*,#187,.F.);
#243=ORIENTED_EDGE('',*,*,#185,.F.);
#244=ORIENTED_EDGE('',*,*,#191,.T.);
#245=ORIENTED_EDGE('',*,*,#192,.T.);
#246=ORIENTED_EDGE('',*,*,#193,.T.);
#247=ORIENTED_EDGE('',*,*,#194,.T.);
#248=ORIENTED_EDGE('',*,*,#192,.F.);
#249=ORIENTED_EDGE('',*,*,#194,.F.);
#250=ORIENTED_EDGE('',*,*,#195,.T.);
#251=ORIENTED_EDGE('',*,*,#196,.F.);
#252=ORIENTED_EDGE('',*,*,#195,.F.);
#253=ORIENTED_EDGE('',*,*,#193,.F.);
#254=ORIENTED_EDGE('',*,*,#191,.F.);
#255=ORIENTED_EDGE('',*,*,#197,.T.);
#256=ORIENTED_EDGE('',*,*,#198,.T.);
#257=ORIENTED_EDGE('',*,*,#199,.T.);
#258=ORIENTED_EDGE('',*,*,#200,.T.);
#259=ORIENTED_EDGE('',*,*,#198,.F.);
#260=ORIENTED_EDGE('',*,*,#200,.F.);
#261=ORIENTED_EDGE('',*,*,#201,.T.);
#262=ORIENTED_EDGE('',*,*,#202,.F.);
#263=ORIENTED_EDGE('',*,*,#201,.F.);
#264=ORIENTED_EDGE('',*,*,#199,.F.);
#265=ORIENTED_EDGE('',*,*,#197,.F.);
#266=ORIENTED_EDGE('',*,*,#203,.T.);
#267=ORIENTED_EDGE('',*,*,#204,.T.);
#268=ORIENTED_EDGE('',*,*,#205,.T.);
#269=ORIENTED_EDGE('',*,*,#206,.T.);
#270=ORIENTED_EDGE('',*,*,#204,.F.);
#271=ORIENTED_EDGE('',*,*,#206,.F.);
#272=ORIENTED_EDGE('',*,*,#207,.T.);
#273=ORIENTED_EDGE('',*,*,#208,.F.);
#274=ORIENTED_EDGE('',*,*,#207,.F.);
#275=ORIENTED_EDGE('',*,*,#205,.F.);
#276=ORIENTED_EDGE('',*,*,#203,.F.);
#277=ORIENTED_EDGE('',*,*,#209,.T.);
#278=ORIENTED_EDGE('',*,*,#210,.T.);
#279=ORIENTED_EDGE('',*,*,#211,.T.);
#280=ORIENTED_EDGE('',*,*,#212,.T.);
#281=ORIENTED_EDGE('',*,*,#212,.F.);
#282=ORIENTED_EDGE('',*,*,#213,.T.);
#283=ORIENTED_EDGE('',*,*,#214,.F.);
#284=ORIENTED_EDGE('',*,*,#215,.F.);
#285=ORIENTED_EDGE('',*,*,#211,.F.);
#286=ORIENTED_EDGE('',*,*,#216,.F.);
#287=ORIENTED_EDGE('',*,*,#217,.F.);
#288=ORIENTED_EDGE('',*,*,#218,.F.);
#289=ORIENTED_EDGE('',*,*,#219,.F.);
#290=ORIENTED_EDGE('',*,*,#220,.F.);
#291=ORIENTED_EDGE('',*,*,#221,.F.);
#292=ORIENTED_EDGE('',*,*,#213,.F.);
#293=ORIENTED_EDGE('',*,*,#222,.T.);
#294=ORIENTED_EDGE('',*,*,#214,.T.);
#295=ORIENTED_EDGE('',*,*,#221,.T.);
#296=ORIENTED_EDGE('',*,*,#223,.T.);
#297=ORIENTED_EDGE('',*,*,#223,.F.);
#298=ORIENTED_EDGE('',*,*,#220,.T.);
#299=ORIENTED_EDGE('',*,*,#224,.F.);
#300=ORIENTED_EDGE('',*,*,#225,.F.);
#301=ORIENTED_EDGE('',*,*,#226,.T.);
#302=ORIENTED_EDGE('',*,*,#224,.T.);
#303=ORIENTED_EDGE('',*,*,#219,.T.);
#304=ORIENTED_EDGE('',*,*,#227,.T.);
#305=ORIENTED_EDGE('',*,*,#227,.F.);
#306=ORIENTED_EDGE('',*,*,#218,.T.);
#307=ORIENTED_EDGE('',*,*,#228,.F.);
#308=ORIENTED_EDGE('',*,*,#229,.F.);
#309=ORIENTED_EDGE('',*,*,#230,.T.);
#310=ORIENTED_EDGE('',*,*,#228,.T.);
#311=ORIENTED_EDGE('',*,*,#217,.T.);
#312=ORIENTED_EDGE('',*,*,#231,.T.);
#313=ORIENTED_EDGE('',*,*,#210,.F.);
#314=ORIENTED_EDGE('',*,*,#232,.F.);
#315=ORIENTED_EDGE('',*,*,#231,.F.);
#316=ORIENTED_EDGE('',*,*,#216,.T.);
#317=ORIENTED_EDGE('',*,*,#209,.F.);
#318=ORIENTED_EDGE('',*,*,#215,.T.);
#319=ORIENTED_EDGE('',*,*,#222,.F.);
#320=ORIENTED_EDGE('',*,*,#225,.T.);
#321=ORIENTED_EDGE('',*,*,#226,.F.);
#322=ORIENTED_EDGE('',*,*,#229,.T.);
#323=ORIENTED_EDGE('',*,*,#230,.F.);
#324=ORIENTED_EDGE('',*,*,#232,.T.);
#325=ORIENTED_EDGE('',*,*,#196,.T.);
#326=ORIENTED_EDGE('',*,*,#208,.T.);
#327=ORIENTED_EDGE('',*,*,#202,.T.);
#328=ORIENTED_EDGE('',*,*,#190,.T.);
#329=TOROIDAL_SURFACE('',#369,0.625,0.4);
#330=TOROIDAL_SURFACE('',#377,0.625,0.4);
#331=TOROIDAL_SURFACE('',#385,0.625,0.4);
#332=TOROIDAL_SURFACE('',#393,0.625,0.4);
#333=ADVANCED_FACE('',(#77),#329,.T.);
#334=ADVANCED_FACE('',(#78),#69,.T.);
#335=ADVANCED_FACE('',(#79),#19,.T.);
#336=ADVANCED_FACE('',(#80),#330,.T.);
#337=ADVANCED_FACE('',(#81),#70,.T.);
#338=ADVANCED_FACE('',(#82),#20,.T.);
#339=ADVANCED_FACE('',(#83),#331,.T.);
#340=ADVANCED_FACE('',(#84),#71,.T.);
#341=ADVANCED_FACE('',(#85),#21,.T.);
#342=ADVANCED_FACE('',(#86),#332,.T.);
#343=ADVANCED_FACE('',(#87),#72,.T.);
#344=ADVANCED_FACE('',(#88),#22,.T.);
#345=ADVANCED_FACE('',(#89),#73,.T.);
#346=ADVANCED_FACE('',(#90),#23,.T.);
#347=ADVANCED_FACE('',(#91),#24,.F.);
#348=ADVANCED_FACE('',(#92),#74,.T.);
#349=ADVANCED_FACE('',(#93),#25,.T.);
#350=ADVANCED_FACE('',(#94),#75,.T.);
#351=ADVANCED_FACE('',(#95),#26,.T.);
#352=ADVANCED_FACE('',(#96),#76,.T.);
#353=ADVANCED_FACE('',(#97),#27,.T.);
#354=ADVANCED_FACE('',(#98,#15,#16,#17,#18),#28,.T.);
#355=CLOSED_SHELL('',(#333,#334,#335,#336,#337,#338,#339,#340,#341,#342,
#343,#344,#345,#346,#347,#348,#349,#350,#351,#352,#353,#354));
#356=DERIVED_UNIT_ELEMENT(#358,1.);
#357=DERIVED_UNIT_ELEMENT(#649,-3.);
#358=(
MASS_UNIT()
NAMED_UNIT(*)
SI_UNIT(.KILO.,.GRAM.)
);
#359=DERIVED_UNIT((#356,#357));
#360=MEASURE_REPRESENTATION_ITEM('density measure',
POSITIVE_RATIO_MEASURE(7850.),#359);
#361=PROPERTY_DEFINITION_REPRESENTATION(#366,#363);
#362=PROPERTY_DEFINITION_REPRESENTATION(#367,#364);
#363=REPRESENTATION('material name',(#365),#646);
#364=REPRESENTATION('density',(#360),#646);
#365=DESCRIPTIVE_REPRESENTATION_ITEM('Steel','Steel');
#366=PROPERTY_DEFINITION('material property','material name',#656);
#367=PROPERTY_DEFINITION('material property','density of part',#656);
#368=AXIS2_PLACEMENT_3D('',#541,#419,#420);
#369=AXIS2_PLACEMENT_3D('',#542,#421,#422);
#370=AXIS2_PLACEMENT_3D('',#544,#423,#424);
#371=AXIS2_PLACEMENT_3D('',#546,#425,#426);
#372=AXIS2_PLACEMENT_3D('',#548,#427,#428);
#373=AXIS2_PLACEMENT_3D('',#549,#429,#430);
#374=AXIS2_PLACEMENT_3D('',#550,#431,#432);
#375=AXIS2_PLACEMENT_3D('',#553,#434,#435);
#376=AXIS2_PLACEMENT_3D('',#554,#436,#437);
#377=AXIS2_PLACEMENT_3D('',#555,#438,#439);
#378=AXIS2_PLACEMENT_3D('',#557,#440,#441);
#379=AXIS2_PLACEMENT_3D('',#559,#442,#443);
#380=AXIS2_PLACEMENT_3D('',#561,#444,#445);
#381=AXIS2_PLACEMENT_3D('',#562,#446,#447);
#382=AXIS2_PLACEMENT_3D('',#563,#448,#449);
#383=AXIS2_PLACEMENT_3D('',#566,#451,#452);
#384=AXIS2_PLACEMENT_3D('',#567,#453,#454);
#385=AXIS2_PLACEMENT_3D('',#568,#455,#456);
#386=AXIS2_PLACEMENT_3D('',#570,#457,#458);
#387=AXIS2_PLACEMENT_3D('',#572,#459,#460);
#388=AXIS2_PLACEMENT_3D('',#574,#461,#462);
#389=AXIS2_PLACEMENT_3D('',#575,#463,#464);
#390=AXIS2_PLACEMENT_3D('',#576,#465,#466);
#391=AXIS2_PLACEMENT_3D('',#579,#468,#469);
#392=AXIS2_PLACEMENT_3D('',#580,#470,#471);
#393=AXIS2_PLACEMENT_3D('',#581,#472,#473);
#394=AXIS2_PLACEMENT_3D('',#583,#474,#475);
#395=AXIS2_PLACEMENT_3D('',#585,#476,#477);
#396=AXIS2_PLACEMENT_3D('',#587,#478,#479);
#397=AXIS2_PLACEMENT_3D('',#588,#480,#481);
#398=AXIS2_PLACEMENT_3D('',#589,#482,#483);
#399=AXIS2_PLACEMENT_3D('',#592,#485,#486);
#400=AXIS2_PLACEMENT_3D('',#593,#487,#488);
#401=AXIS2_PLACEMENT_3D('',#594,#489,#490);
#402=AXIS2_PLACEMENT_3D('',#597,#491,#492);
#403=AXIS2_PLACEMENT_3D('',#601,#494,#495);
#404=AXIS2_PLACEMENT_3D('',#603,#497,#498);
#405=AXIS2_PLACEMENT_3D('',#609,#502,#503);
#406=AXIS2_PLACEMENT_3D('',#613,#505,#506);
#407=AXIS2_PLACEMENT_3D('',#617,#508,#509);
#408=AXIS2_PLACEMENT_3D('',#620,#511,#512);
#409=AXIS2_PLACEMENT_3D('',#621,#513,#514);
#410=AXIS2_PLACEMENT_3D('',#623,#515,#516);
#411=AXIS2_PLACEMENT_3D('',#625,#518,#519);
#412=AXIS2_PLACEMENT_3D('',#629,#522,#523);
#413=AXIS2_PLACEMENT_3D('',#631,#524,#525);
#414=AXIS2_PLACEMENT_3D('',#633,#527,#528);
#415=AXIS2_PLACEMENT_3D('',#637,#531,#532);
#416=AXIS2_PLACEMENT_3D('',#639,#533,#534);
#417=AXIS2_PLACEMENT_3D('',#641,#536,#537);
#418=AXIS2_PLACEMENT_3D('',#643,#539,#540);
#419=DIRECTION('axis',(0.,0.,1.));
#420=DIRECTION('refdir',(1.,0.,0.));
#421=DIRECTION('center_axis',(1.,0.,0.));
#422=DIRECTION('ref_axis',(0.,0.,-1.));
#423=DIRECTION('center_axis',(-1.,0.,0.));
#424=DIRECTION('ref_axis',(0.,1.,0.));
#425=DIRECTION('center_axis',(0.,-1.,0.));
#426=DIRECTION('ref_axis',(0.,0.,1.));
#427=DIRECTION('center_axis',(1.,0.,0.));
#428=DIRECTION('ref_axis',(0.,1.,0.));
#429=DIRECTION('center_axis',(1.,0.,0.));
#430=DIRECTION('ref_axis',(0.,1.,0.));
#431=DIRECTION('center_axis',(1.,0.,0.));
#432=DIRECTION('ref_axis',(0.,1.,0.));
#433=DIRECTION('',(-1.,0.,0.));
#434=DIRECTION('center_axis',(-1.,0.,0.));
#435=DIRECTION('ref_axis',(0.,1.,0.));
#436=DIRECTION('center_axis',(1.,0.,0.));
#437=DIRECTION('ref_axis',(0.,1.,0.));
#438=DIRECTION('center_axis',(1.,0.,0.));
#439=DIRECTION('ref_axis',(0.,0.,-1.));
#440=DIRECTION('center_axis',(-1.,0.,0.));
#441=DIRECTION('ref_axis',(0.,1.,0.));
#442=DIRECTION('center_axis',(0.,-1.,0.));
#443=DIRECTION('ref_axis',(0.,0.,1.));
#444=DIRECTION('center_axis',(1.,0.,0.));
#445=DIRECTION('ref_axis',(0.,1.,0.));
#446=DIRECTION('center_axis',(1.,0.,0.));
#447=DIRECTION('ref_axis',(0.,1.,0.));
#448=DIRECTION('center_axis',(1.,0.,0.));
#449=DIRECTION('ref_axis',(0.,1.,0.));
#450=DIRECTION('',(-1.,0.,0.));
#451=DIRECTION('center_axis',(-1.,0.,0.));
#452=DIRECTION('ref_axis',(0.,1.,0.));
#453=DIRECTION('center_axis',(1.,0.,0.));
#454=DIRECTION('ref_axis',(0.,1.,0.));
#455=DIRECTION('center_axis',(1.,0.,0.));
#456=DIRECTION('ref_axis',(0.,0.,-1.));
#457=DIRECTION('center_axis',(-1.,0.,0.));
#458=DIRECTION('ref_axis',(0.,1.,0.));
#459=DIRECTION('center_axis',(0.,-1.,0.));
#460=DIRECTION('ref_axis',(0.,0.,1.));
#461=DIRECTION('center_axis',(1.,0.,0.));
#462=DIRECTION('ref_axis',(0.,1.,0.));
#463=DIRECTION('center_axis',(1.,0.,0.));
#464=DIRECTION('ref_axis',(0.,1.,0.));
#465=DIRECTION('center_axis',(1.,0.,0.));
#466=DIRECTION('ref_axis',(0.,1.,0.));
#467=DIRECTION('',(-1.,0.,0.));
#468=DIRECTION('center_axis',(-1.,0.,0.));
#469=DIRECTION('ref_axis',(0.,1.,0.));
#470=DIRECTION('center_axis',(1.,0.,0.));
#471=DIRECTION('ref_axis',(0.,1.,0.));
#472=DIRECTION('center_axis',(1.,0.,0.));
#473=DIRECTION('ref_axis',(0.,0.,-1.));
#474=DIRECTION('center_axis',(-1.,0.,0.));
#475=DIRECTION('ref_axis',(0.,1.,0.));
#476=DIRECTION('center_axis',(0.,-1.,0.));
#477=DIRECTION('ref_axis',(0.,0.,1.));
#478=DIRECTION('center_axis',(1.,0.,0.));
#479=DIRECTION('ref_axis',(0.,1.,0.));
#480=DIRECTION('center_axis',(1.,0.,0.));
#481=DIRECTION('ref_axis',(0.,1.,0.));
#482=DIRECTION('center_axis',(1.,0.,0.));
#483=DIRECTION('ref_axis',(0.,1.,0.));
#484=DIRECTION('',(-1.,0.,0.));
#485=DIRECTION('center_axis',(-1.,0.,0.));
#486=DIRECTION('ref_axis',(0.,1.,0.));
#487=DIRECTION('center_axis',(1.,0.,0.));
#488=DIRECTION('ref_axis',(0.,1.,0.));
#489=DIRECTION('center_axis',(1.,0.,0.));
#490=DIRECTION('ref_axis',(0.,-0.707106781186547,0.707106781186548));
#491=DIRECTION('center_axis',(-1.,0.,0.));
#492=DIRECTION('ref_axis',(0.,-0.707106781186547,0.707106781186548));
#493=DIRECTION('',(-1.,0.,0.));
#494=DIRECTION('center_axis',(1.,0.,0.));
#495=DIRECTION('ref_axis',(0.,-0.707106781186547,0.707106781186548));
#496=DIRECTION('',(1.,0.,0.));
#497=DIRECTION('center_axis',(0.,-1.,6.67655714054242E-33));
#498=DIRECTION('ref_axis',(0.,-6.67655714054242E-33,-1.));
#499=DIRECTION('',(0.,-6.67655714054242E-33,-1.));
#500=DIRECTION('',(-1.,0.,0.));
#501=DIRECTION('',(0.,-6.67655714054242E-33,-1.));
#502=DIRECTION('center_axis',(1.,0.,0.));
#503=DIRECTION('ref_axis',(0.,1.,0.));
#504=DIRECTION('',(0.,-1.,0.));
#505=DIRECTION('center_axis',(1.,0.,0.));
#506=DIRECTION('ref_axis',(0.,0.707106781186548,0.707106781186548));
#507=DIRECTION('',(0.,0.,1.));
#508=DIRECTION('center_axis',(1.,0.,0.));
#509=DIRECTION('ref_axis',(0.,0.707106781186548,-0.707106781186547));
#510=DIRECTION('',(0.,1.,0.));
#511=DIRECTION('center_axis',(1.,0.,0.));
#512=DIRECTION('ref_axis',(0.,-0.707106781186547,-0.707106781186547));
#513=DIRECTION('center_axis',(1.,0.,0.));
#514=DIRECTION('ref_axis',(0.,-0.707106781186547,-0.707106781186547));
#515=DIRECTION('center_axis',(-1.,0.,0.));
#516=DIRECTION('ref_axis',(0.,-0.707106781186547,-0.707106781186547));
#517=DIRECTION('',(1.,0.,0.));
#518=DIRECTION('center_axis',(0.,0.,-1.));
#519=DIRECTION('ref_axis',(0.,1.,0.));
#520=DIRECTION('',(-1.,0.,0.));
#521=DIRECTION('',(0.,1.,0.));
#522=DIRECTION('center_axis',(1.,0.,0.));
#523=DIRECTION('ref_axis',(0.,0.707106781186548,-0.707106781186547));
#524=DIRECTION('center_axis',(-1.,0.,0.));
#525=DIRECTION('ref_axis',(0.,0.707106781186548,-0.707106781186547));
#526=DIRECTION('',(1.,0.,0.));
#527=DIRECTION('center_axis',(0.,1.,0.));
#528=DIRECTION('ref_axis',(0.,0.,1.));
#529=DIRECTION('',(-1.,0.,0.));
#530=DIRECTION('',(0.,0.,1.));
#531=DIRECTION('center_axis',(1.,0.,0.));
#532=DIRECTION('ref_axis',(0.,0.707106781186548,0.707106781186548));
#533=DIRECTION('center_axis',(-1.,0.,0.));
#534=DIRECTION('ref_axis',(0.,0.707106781186548,0.707106781186548));
#535=DIRECTION('',(1.,0.,0.));
#536=DIRECTION('center_axis',(0.,0.,1.));
#537=DIRECTION('ref_axis',(0.,-1.,0.));
#538=DIRECTION('',(0.,-1.,0.));
#539=DIRECTION('center_axis',(1.,0.,0.));
#540=DIRECTION('ref_axis',(0.,1.,0.));
#541=CARTESIAN_POINT('',(0.,0.,0.));
#542=CARTESIAN_POINT('Origin',(1.8,2.,2.));
#543=CARTESIAN_POINT('',(2.2,2.,2.625));
#544=CARTESIAN_POINT('Origin',(2.2,2.,2.));
#545=CARTESIAN_POINT('',(1.8,2.,3.025));
#546=CARTESIAN_POINT('Origin',(1.8,2.,2.625));
#547=CARTESIAN_POINT('',(1.8,0.975,2.));
#548=CARTESIAN_POINT('Origin',(1.8,2.,2.));
#549=CARTESIAN_POINT('Origin',(1.8,2.,2.));
#550=CARTESIAN_POINT('Origin',(0.,2.,2.));
#551=CARTESIAN_POINT('',(1.,0.975,2.));
#552=CARTESIAN_POINT('',(0.,0.975,2.));
#553=CARTESIAN_POINT('Origin',(1.,2.,2.));
#554=CARTESIAN_POINT('Origin',(2.2,2.,2.));
#555=CARTESIAN_POINT('Origin',(1.8,7.,2.));
#556=CARTESIAN_POINT('',(2.2,7.,2.625));
#557=CARTESIAN_POINT('Origin',(2.2,7.,2.));
#558=CARTESIAN_POINT('',(1.8,7.,3.025));
#559=CARTESIAN_POINT('Origin',(1.8,7.,2.625));
#560=CARTESIAN_POINT('',(1.8,5.975,2.));
#561=CARTESIAN_POINT('Origin',(1.8,7.,2.));
#562=CARTESIAN_POINT('Origin',(1.8,7.,2.));
#563=CARTESIAN_POINT('Origin',(0.,7.,2.));
#564=CARTESIAN_POINT('',(1.,5.975,2.));
#565=CARTESIAN_POINT('',(0.,5.975,2.));
#566=CARTESIAN_POINT('Origin',(1.,7.,2.));
#567=CARTESIAN_POINT('Origin',(2.2,7.,2.));
#568=CARTESIAN_POINT('Origin',(1.8,7.,13.));
#569=CARTESIAN_POINT('',(2.2,7.,13.625));
#570=CARTESIAN_POINT('Origin',(2.2,7.,13.));
#571=CARTESIAN_POINT('',(1.8,7.,14.025));
#572=CARTESIAN_POINT('Origin',(1.8,7.,13.625));
#573=CARTESIAN_POINT('',(1.8,5.975,13.));
#574=CARTESIAN_POINT('Origin',(1.8,7.,13.));
#575=CARTESIAN_POINT('Origin',(1.8,7.,13.));
#576=CARTESIAN_POINT('Origin',(0.,7.,13.));
#577=CARTESIAN_POINT('',(1.,5.975,13.));
#578=CARTESIAN_POINT('',(0.,5.975,13.));
#579=CARTESIAN_POINT('Origin',(1.,7.,13.));
#580=CARTESIAN_POINT('Origin',(2.2,7.,13.));
#581=CARTESIAN_POINT('Origin',(1.8,2.,13.));
#582=CARTESIAN_POINT('',(2.2,2.,13.625));
#583=CARTESIAN_POINT('Origin',(2.2,2.,13.));
#584=CARTESIAN_POINT('',(1.8,2.,14.025));
#585=CARTESIAN_POINT('Origin',(1.8,2.,13.625));
#586=CARTESIAN_POINT('',(1.8,0.975,13.));
#587=CARTESIAN_POINT('Origin',(1.8,2.,13.));
#588=CARTESIAN_POINT('Origin',(1.8,2.,13.));
#589=CARTESIAN_POINT('Origin',(0.,2.,13.));
#590=CARTESIAN_POINT('',(1.,0.975,13.));
#591=CARTESIAN_POINT('',(0.,0.975,13.));
#592=CARTESIAN_POINT('Origin',(1.,2.,13.));
#593=CARTESIAN_POINT('Origin',(2.2,2.,13.));
#594=CARTESIAN_POINT('Origin',(0.,1.28,13.72));
#595=CARTESIAN_POINT('',(1.,9.1602363968242E-32,13.72));
#596=CARTESIAN_POINT('',(1.,1.28,15.));
#597=CARTESIAN_POINT('Origin',(1.,1.28,13.72));
#598=CARTESIAN_POINT('',(0.,1.28,15.));
#599=CARTESIAN_POINT('',(0.,1.28,15.));
#600=CARTESIAN_POINT('',(0.,9.1602363968242E-32,13.72));
#601=CARTESIAN_POINT('Origin',(0.,1.28,13.72));
#602=CARTESIAN_POINT('',(0.,0.,13.72));
#603=CARTESIAN_POINT('Origin',(0.,1.00148357108136E-31,15.));
#604=CARTESIAN_POINT('',(0.,8.54599313989431E-33,1.28));
#605=CARTESIAN_POINT('',(0.,1.00148357108136E-31,15.));
#606=CARTESIAN_POINT('',(1.,8.54599313989431E-33,1.28));
#607=CARTESIAN_POINT('',(0.,0.,1.28));
#608=CARTESIAN_POINT('',(1.,1.00148357108136E-31,15.));
#609=CARTESIAN_POINT('Origin',(0.,4.5,7.5));
#610=CARTESIAN_POINT('',(0.,7.72,15.));
#611=CARTESIAN_POINT('',(0.,9.,15.));
#612=CARTESIAN_POINT('',(0.,9.,13.72));
#613=CARTESIAN_POINT('Origin',(0.,7.72,13.72));
#614=CARTESIAN_POINT('',(0.,9.,1.28));
#615=CARTESIAN_POINT('',(0.,9.,0.));
#616=CARTESIAN_POINT('',(0.,7.72,0.));
#617=CARTESIAN_POINT('Origin',(0.,7.72,1.28));
#618=CARTESIAN_POINT('',(0.,1.28,0.));
#619=CARTESIAN_POINT('',(0.,0.,0.));
#620=CARTESIAN_POINT('Origin',(0.,1.28,1.28));
#621=CARTESIAN_POINT('Origin',(0.,1.28,1.28));
#622=CARTESIAN_POINT('',(1.,1.28,0.));
#623=CARTESIAN_POINT('Origin',(1.,1.28,1.28));
#624=CARTESIAN_POINT('',(0.,1.28,0.));
#625=CARTESIAN_POINT('Origin',(0.,0.,0.));
#626=CARTESIAN_POINT('',(1.,7.72,0.));
#627=CARTESIAN_POINT('',(0.,7.72,0.));
#628=CARTESIAN_POINT('',(1.,0.,0.));
#629=CARTESIAN_POINT('Origin',(0.,7.72,1.28));
#630=CARTESIAN_POINT('',(1.,9.,1.28));
#631=CARTESIAN_POINT('Origin',(1.,7.72,1.28));
#632=CARTESIAN_POINT('',(0.,9.,1.28));
#633=CARTESIAN_POINT('Origin',(0.,9.,0.));
#634=CARTESIAN_POINT('',(1.,9.,13.72));
#635=CARTESIAN_POINT('',(0.,9.,13.72));
#636=CARTESIAN_POINT('',(1.,9.,0.));
#637=CARTESIAN_POINT('Origin',(0.,7.72,13.72));
#638=CARTESIAN_POINT('',(1.,7.72,15.));
#639=CARTESIAN_POINT('Origin',(1.,7.72,13.72));
#640=CARTESIAN_POINT('',(0.,7.72,15.));
#641=CARTESIAN_POINT('Origin',(0.,9.,15.));
#642=CARTESIAN_POINT('',(1.,9.,15.));
#643=CARTESIAN_POINT('Origin',(1.,4.5,7.5));
#644=UNCERTAINTY_MEASURE_WITH_UNIT(LENGTH_MEASURE(0.01),#648,
'DISTANCE_ACCURACY_VALUE',
'Maximum model space distance between geometric entities at asserted c
onnectivities');
#645=UNCERTAINTY_MEASURE_WITH_UNIT(LENGTH_MEASURE(0.01),#648,
'DISTANCE_ACCURACY_VALUE',
'Maximum model space distance between geometric entities at asserted c
onnectivities');
#646=(
GEOMETRIC_REPRESENTATION_CONTEXT(3)
GLOBAL_UNCERTAINTY_ASSIGNED_CONTEXT((#644))
GLOBAL_UNIT_ASSIGNED_CONTEXT((#648,#650,#651))
REPRESENTATION_CONTEXT('','3D')
);
#647=(
GEOMETRIC_REPRESENTATION_CONTEXT(3)
GLOBAL_UNCERTAINTY_ASSIGNED_CONTEXT((#645))
GLOBAL_UNIT_ASSIGNED_CONTEXT((#648,#650,#651))
REPRESENTATION_CONTEXT('','3D')
);
#648=(
LENGTH_UNIT()
NAMED_UNIT(*)
SI_UNIT(.MILLI.,.METRE.)
);
#649=(
LENGTH_UNIT()
NAMED_UNIT(*)
SI_UNIT($,.METRE.)
);
#650=(
NAMED_UNIT(*)
PLANE_ANGLE_UNIT()
SI_UNIT($,.RADIAN.)
);
#651=(
NAMED_UNIT(*)
SI_UNIT($,.STERADIAN.)
SOLID_ANGLE_UNIT()
);
#652=SHAPE_DEFINITION_REPRESENTATION(#653,#654);
#653=PRODUCT_DEFINITION_SHAPE('',$,#656);
#654=SHAPE_REPRESENTATION('',(#368),#646);
#655=PRODUCT_DEFINITION_CONTEXT('part definition',#660,'design');
#656=PRODUCT_DEFINITION('Connector Bracket','Connector Bracket v7',#657,
#655);
#657=PRODUCT_DEFINITION_FORMATION('',$,#662);
#658=PRODUCT_RELATED_PRODUCT_CATEGORY('Connector Bracket v7',
'Connector Bracket v7',(#662));
#659=APPLICATION_PROTOCOL_DEFINITION('international standard',
'automotive_design',2009,#660);
#660=APPLICATION_CONTEXT(
'Core Data for Automotive Mechanical Design Process');
#661=PRODUCT_CONTEXT('part definition',#660,'mechanical');
#662=PRODUCT('Connector Bracket','Connector Bracket v7',$,(#661));
#663=PRESENTATION_STYLE_ASSIGNMENT((#664));
#664=SURFACE_STYLE_USAGE(.BOTH.,#665);
#665=SURFACE_SIDE_STYLE('',(#666));
#666=SURFACE_STYLE_FILL_AREA(#667);
#667=FILL_AREA_STYLE(
'HP 3D HR CB PA 12 (with HP Jet Fusion 580 Color 3D Printer)',(#668));
#668=FILL_AREA_STYLE_COLOUR(
'HP 3D HR CB PA 12 (with HP Jet Fusion 580 Color 3D Printer)',#669);
#669=COLOUR_RGB(
'HP 3D HR CB PA 12 (with HP Jet Fusion 580 Color 3D Printer)',0.964705882352941,
0.964705882352941,0.952941176470588);
ENDSEC;
END-ISO-10303-21;
