ISO-10303-21;
HEADER;
/* Generated by software containing ST-Developer
 * from STEP Tools, Inc. (www.steptools.com) 
 */

FILE_DESCRIPTION(
/* description */ (''),
/* implementation_level */ '2;1');

FILE_NAME(
/* name */ 'Front Cover.step',
/* time_stamp */ '2026-08-22T21:44:48+09:30',
/* author */ (''),
/* organization */ (''),
/* preprocessor_version */ 'ST-DEVELOPER v20.1',
/* originating_system */ 'Autodesk Translation Framework v15.8.0.0',
/* authorisation */ '');

FILE_SCHEMA (('AUTOMOTIVE_DESIGN { 1 0 10303 214 3 1 1 }'));
ENDSEC;

DATA;
#10=MECHANICAL_DESIGN_GEOMETRIC_PRESENTATION_REPRESENTATION('',(#13),#1627);
#11=SHAPE_REPRESENTATION_RELATIONSHIP('SRR','None',#1634,#12);
#12=ADVANCED_BREP_SHAPE_REPRESENTATION('',(#14),#1626);
#13=STYLED_ITEM('',(#1643),#14);
#14=MANIFOLD_SOLID_BREP('Body1',#936);
#15=FACE_BOUND('',#311,.T.);
#16=FACE_BOUND('',#312,.T.);
#17=FACE_BOUND('',#313,.T.);
#18=FACE_BOUND('',#314,.T.);
#19=FACE_BOUND('',#315,.T.);
#20=FACE_BOUND('',#346,.T.);
#21=FACE_BOUND('',#347,.T.);
#22=FACE_BOUND('',#348,.T.);
#23=FACE_BOUND('',#349,.T.);
#24=FACE_BOUND('',#350,.T.);
#25=FACE_BOUND('',#351,.T.);
#26=FACE_BOUND('',#352,.T.);
#27=FACE_BOUND('',#353,.T.);
#28=FACE_BOUND('',#354,.T.);
#29=FACE_BOUND('',#355,.T.);
#30=SPHERICAL_SURFACE('',#989,1.28);
#31=SPHERICAL_SURFACE('',#997,1.28);
#32=(
BOUNDED_SURFACE()
B_SPLINE_SURFACE(2,2,((#1357,#1358,#1359,#1360,#1361,#1362,#1363,#1364,
#1365),(#1366,#1367,#1368,#1369,#1370,#1371,#1372,#1373,#1374),(#1375,#1376,
#1377,#1378,#1379,#1380,#1381,#1382,#1383)),.UNSPECIFIED.,.F.,.T.,.F.)
B_SPLINE_SURFACE_WITH_KNOTS((3,3),(3,2,2,2,3),(0.,1.5707963267949),(-3.14159265358979,
-1.5707963267949,0.,1.5707963267949,3.14159265358979),.UNSPECIFIED.)
GEOMETRIC_REPRESENTATION_ITEM()
RATIONAL_B_SPLINE_SURFACE(((1.,0.707106781186548,1.,0.707106781186548,1.,
0.707106781186548,1.,0.707106781186548,1.),(0.707106781186554,0.500000000000005,
0.707106781186554,0.500000000000005,0.707106781186554,0.500000000000005,
0.707106781186554,0.500000000000005,0.707106781186554),(1.,0.707106781186548,
1.,0.707106781186548,1.,0.707106781186548,1.,0.707106781186548,1.)))
REPRESENTATION_ITEM('')
SURFACE()
);
#33=PLANE('',#957);
#34=PLANE('',#965);
#35=PLANE('',#972);
#36=PLANE('',#980);
#37=PLANE('',#988);
#38=PLANE('',#1002);
#39=PLANE('',#1011);
#40=PLANE('',#1012);
#41=PLANE('',#1013);
#42=PLANE('',#1014);
#43=PLANE('',#1015);
#44=PLANE('',#1016);
#45=PLANE('',#1019);
#46=PLANE('',#1022);
#47=PLANE('',#1025);
#48=PLANE('',#1028);
#49=PLANE('',#1029);
#50=PLANE('',#1030);
#51=PLANE('',#1031);
#52=PLANE('',#1032);
#53=PLANE('',#1033);
#54=PLANE('',#1034);
#55=PLANE('',#1035);
#56=PLANE('',#1038);
#57=PLANE('',#1041);
#58=PLANE('',#1044);
#59=PLANE('',#1047);
#60=PLANE('',#1048);
#61=LINE('',#1341,#142);
#62=LINE('',#1354,#143);
#63=LINE('',#1393,#144);
#64=LINE('',#1406,#145);
#65=LINE('',#1419,#146);
#66=LINE('',#1431,#147);
#67=LINE('',#1434,#148);
#68=LINE('',#1437,#149);
#69=LINE('',#1440,#150);
#70=LINE('',#1447,#151);
#71=LINE('',#1450,#152);
#72=LINE('',#1452,#153);
#73=LINE('',#1457,#154);
#74=LINE('',#1461,#155);
#75=LINE('',#1465,#156);
#76=LINE('',#1468,#157);
#77=LINE('',#1471,#158);
#78=LINE('',#1473,#159);
#79=LINE('',#1475,#160);
#80=LINE('',#1476,#161);
#81=LINE('',#1479,#162);
#82=LINE('',#1481,#163);
#83=LINE('',#1483,#164);
#84=LINE('',#1484,#165);
#85=LINE('',#1487,#166);
#86=LINE('',#1491,#167);
#87=LINE('',#1495,#168);
#88=LINE('',#1499,#169);
#89=LINE('',#1503,#170);
#90=LINE('',#1505,#171);
#91=LINE('',#1507,#172);
#92=LINE('',#1508,#173);
#93=LINE('',#1510,#174);
#94=LINE('',#1513,#175);
#95=LINE('',#1515,#176);
#96=LINE('',#1516,#177);
#97=LINE('',#1519,#178);
#98=LINE('',#1520,#179);
#99=LINE('',#1523,#180);
#100=LINE('',#1524,#181);
#101=LINE('',#1526,#182);
#102=LINE('',#1529,#183);
#103=LINE('',#1531,#184);
#104=LINE('',#1532,#185);
#105=LINE('',#1536,#186);
#106=LINE('',#1539,#187);
#107=LINE('',#1540,#188);
#108=LINE('',#1544,#189);
#109=LINE('',#1547,#190);
#110=LINE('',#1548,#191);
#111=LINE('',#1552,#192);
#112=LINE('',#1555,#193);
#113=LINE('',#1556,#194);
#114=LINE('',#1561,#195);
#115=LINE('',#1563,#196);
#116=LINE('',#1564,#197);
#117=LINE('',#1567,#198);
#118=LINE('',#1568,#199);
#119=LINE('',#1571,#200);
#120=LINE('',#1572,#201);
#121=LINE('',#1574,#202);
#122=LINE('',#1577,#203);
#123=LINE('',#1579,#204);
#124=LINE('',#1580,#205);
#125=LINE('',#1583,#206);
#126=LINE('',#1584,#207);
#127=LINE('',#1587,#208);
#128=LINE('',#1588,#209);
#129=LINE('',#1590,#210);
#130=LINE('',#1593,#211);
#131=LINE('',#1596,#212);
#132=LINE('',#1599,#213);
#133=LINE('',#1600,#214);
#134=LINE('',#1604,#215);
#135=LINE('',#1607,#216);
#136=LINE('',#1608,#217);
#137=LINE('',#1612,#218);
#138=LINE('',#1615,#219);
#139=LINE('',#1616,#220);
#140=LINE('',#1620,#221);
#141=LINE('',#1622,#222);
#142=VECTOR('',#1063,1.025);
#143=VECTOR('',#1080,1.025);
#144=VECTOR('',#1095,0.499999999999998);
#145=VECTOR('',#1112,1.02499999999999);
#146=VECTOR('',#1129,1.02499999999999);
#147=VECTOR('',#1144,1.28);
#148=VECTOR('',#1147,10.);
#149=VECTOR('',#1150,10.);
#150=VECTOR('',#1153,1.28);
#151=VECTOR('',#1162,10.);
#152=VECTOR('',#1165,1.28);
#153=VECTOR('',#1168,10.);
#154=VECTOR('',#1171,10.);
#155=VECTOR('',#1174,10.);
#156=VECTOR('',#1177,10.);
#157=VECTOR('',#1180,10.);
#158=VECTOR('',#1181,10.);
#159=VECTOR('',#1182,10.);
#160=VECTOR('',#1183,10.);
#161=VECTOR('',#1184,10.);
#162=VECTOR('',#1185,10.);
#163=VECTOR('',#1186,10.);
#164=VECTOR('',#1187,10.);
#165=VECTOR('',#1188,10.);
#166=VECTOR('',#1189,10.);
#167=VECTOR('',#1192,10.);
#168=VECTOR('',#1195,10.);
#169=VECTOR('',#1198,10.);
#170=VECTOR('',#1201,10.);
#171=VECTOR('',#1202,10.);
#172=VECTOR('',#1203,10.);
#173=VECTOR('',#1204,10.);
#174=VECTOR('',#1207,10.);
#175=VECTOR('',#1210,10.);
#176=VECTOR('',#1211,10.);
#177=VECTOR('',#1212,10.);
#178=VECTOR('',#1215,10.);
#179=VECTOR('',#1216,10.);
#180=VECTOR('',#1219,10.);
#181=VECTOR('',#1220,10.);
#182=VECTOR('',#1223,10.);
#183=VECTOR('',#1226,10.);
#184=VECTOR('',#1227,10.);
#185=VECTOR('',#1228,10.);
#186=VECTOR('',#1233,10.);
#187=VECTOR('',#1236,10.);
#188=VECTOR('',#1237,10.);
#189=VECTOR('',#1242,10.);
#190=VECTOR('',#1245,10.);
#191=VECTOR('',#1246,10.);
#192=VECTOR('',#1251,10.);
#193=VECTOR('',#1254,10.);
#194=VECTOR('',#1255,10.);
#195=VECTOR('',#1262,10.);
#196=VECTOR('',#1263,10.);
#197=VECTOR('',#1264,10.);
#198=VECTOR('',#1267,10.);
#199=VECTOR('',#1268,10.);
#200=VECTOR('',#1271,10.);
#201=VECTOR('',#1272,10.);
#202=VECTOR('',#1275,10.);
#203=VECTOR('',#1278,10.);
#204=VECTOR('',#1279,10.);
#205=VECTOR('',#1280,10.);
#206=VECTOR('',#1283,10.);
#207=VECTOR('',#1284,10.);
#208=VECTOR('',#1287,10.);
#209=VECTOR('',#1288,10.);
#210=VECTOR('',#1291,10.);
#211=VECTOR('',#1294,10.);
#212=VECTOR('',#1297,10.);
#213=VECTOR('',#1300,10.);
#214=VECTOR('',#1301,10.);
#215=VECTOR('',#1306,10.);
#216=VECTOR('',#1309,10.);
#217=VECTOR('',#1310,10.);
#218=VECTOR('',#1315,10.);
#219=VECTOR('',#1318,10.);
#220=VECTOR('',#1319,10.);
#221=VECTOR('',#1324,10.);
#222=VECTOR('',#1327,10.);
#223=CYLINDRICAL_SURFACE('',#955,1.025);
#224=CYLINDRICAL_SURFACE('',#963,1.025);
#225=CYLINDRICAL_SURFACE('',#970,0.499999999999998);
#226=CYLINDRICAL_SURFACE('',#978,1.02499999999999);
#227=CYLINDRICAL_SURFACE('',#986,1.02499999999999);
#228=CYLINDRICAL_SURFACE('',#993,1.27999999999999);
#229=CYLINDRICAL_SURFACE('',#995,1.28);
#230=CYLINDRICAL_SURFACE('',#1000,1.28);
#231=CYLINDRICAL_SURFACE('',#1017,1.28);
#232=CYLINDRICAL_SURFACE('',#1020,1.28000000000001);
#233=CYLINDRICAL_SURFACE('',#1023,1.28000000000001);
#234=CYLINDRICAL_SURFACE('',#1026,1.28000000000001);
#235=CYLINDRICAL_SURFACE('',#1036,1.28000000000001);
#236=CYLINDRICAL_SURFACE('',#1039,1.28000000000001);
#237=CYLINDRICAL_SURFACE('',#1042,1.28);
#238=CYLINDRICAL_SURFACE('',#1045,1.28000000000001);
#239=FACE_OUTER_BOUND('',#290,.T.);
#240=FACE_OUTER_BOUND('',#291,.T.);
#241=FACE_OUTER_BOUND('',#292,.T.);
#242=FACE_OUTER_BOUND('',#293,.T.);
#243=FACE_OUTER_BOUND('',#294,.T.);
#244=FACE_OUTER_BOUND('',#295,.T.);
#245=FACE_OUTER_BOUND('',#296,.T.);
#246=FACE_OUTER_BOUND('',#297,.T.);
#247=FACE_OUTER_BOUND('',#298,.T.);
#248=FACE_OUTER_BOUND('',#299,.T.);
#249=FACE_OUTER_BOUND('',#300,.T.);
#250=FACE_OUTER_BOUND('',#301,.T.);
#251=FACE_OUTER_BOUND('',#302,.T.);
#252=FACE_OUTER_BOUND('',#303,.T.);
#253=FACE_OUTER_BOUND('',#304,.T.);
#254=FACE_OUTER_BOUND('',#305,.T.);
#255=FACE_OUTER_BOUND('',#306,.T.);
#256=FACE_OUTER_BOUND('',#307,.T.);
#257=FACE_OUTER_BOUND('',#308,.T.);
#258=FACE_OUTER_BOUND('',#309,.T.);
#259=FACE_OUTER_BOUND('',#310,.T.);
#260=FACE_OUTER_BOUND('',#316,.T.);
#261=FACE_OUTER_BOUND('',#317,.T.);
#262=FACE_OUTER_BOUND('',#318,.T.);
#263=FACE_OUTER_BOUND('',#319,.T.);
#264=FACE_OUTER_BOUND('',#320,.T.);
#265=FACE_OUTER_BOUND('',#321,.T.);
#266=FACE_OUTER_BOUND('',#322,.T.);
#267=FACE_OUTER_BOUND('',#323,.T.);
#268=FACE_OUTER_BOUND('',#324,.T.);
#269=FACE_OUTER_BOUND('',#325,.T.);
#270=FACE_OUTER_BOUND('',#326,.T.);
#271=FACE_OUTER_BOUND('',#327,.T.);
#272=FACE_OUTER_BOUND('',#328,.T.);
#273=FACE_OUTER_BOUND('',#329,.T.);
#274=FACE_OUTER_BOUND('',#330,.T.);
#275=FACE_OUTER_BOUND('',#331,.T.);
#276=FACE_OUTER_BOUND('',#332,.T.);
#277=FACE_OUTER_BOUND('',#333,.T.);
#278=FACE_OUTER_BOUND('',#334,.T.);
#279=FACE_OUTER_BOUND('',#335,.T.);
#280=FACE_OUTER_BOUND('',#336,.T.);
#281=FACE_OUTER_BOUND('',#337,.T.);
#282=FACE_OUTER_BOUND('',#338,.T.);
#283=FACE_OUTER_BOUND('',#339,.T.);
#284=FACE_OUTER_BOUND('',#340,.T.);
#285=FACE_OUTER_BOUND('',#341,.T.);
#286=FACE_OUTER_BOUND('',#342,.T.);
#287=FACE_OUTER_BOUND('',#343,.T.);
#288=FACE_OUTER_BOUND('',#344,.T.);
#289=FACE_OUTER_BOUND('',#345,.T.);
#290=EDGE_LOOP('',(#621,#622,#623,#624,#625));
#291=EDGE_LOOP('',(#626,#627,#628,#629,#630));
#292=EDGE_LOOP('',(#631));
#293=EDGE_LOOP('',(#632,#633,#634,#635,#636));
#294=EDGE_LOOP('',(#637,#638,#639,#640,#641));
#295=EDGE_LOOP('',(#642));
#296=EDGE_LOOP('',(#643,#644,#645,#646,#647));
#297=EDGE_LOOP('',(#648,#649,#650,#651,#652));
#298=EDGE_LOOP('',(#653));
#299=EDGE_LOOP('',(#654,#655,#656,#657,#658));
#300=EDGE_LOOP('',(#659,#660,#661,#662,#663));
#301=EDGE_LOOP('',(#664));
#302=EDGE_LOOP('',(#665,#666,#667,#668,#669));
#303=EDGE_LOOP('',(#670,#671,#672,#673,#674));
#304=EDGE_LOOP('',(#675));
#305=EDGE_LOOP('',(#676,#677,#678));
#306=EDGE_LOOP('',(#679,#680,#681,#682));
#307=EDGE_LOOP('',(#683,#684,#685,#686));
#308=EDGE_LOOP('',(#687,#688,#689));
#309=EDGE_LOOP('',(#690,#691,#692,#693));
#310=EDGE_LOOP('',(#694,#695,#696,#697));
#311=EDGE_LOOP('',(#698,#699,#700,#701,#702,#703,#704,#705));
#312=EDGE_LOOP('',(#706,#707,#708,#709));
#313=EDGE_LOOP('',(#710,#711,#712,#713));
#314=EDGE_LOOP('',(#714,#715,#716,#717,#718,#719,#720,#721));
#315=EDGE_LOOP('',(#722,#723,#724,#725));
#316=EDGE_LOOP('',(#726,#727,#728,#729));
#317=EDGE_LOOP('',(#730,#731,#732,#733));
#318=EDGE_LOOP('',(#734,#735,#736,#737));
#319=EDGE_LOOP('',(#738,#739,#740,#741));
#320=EDGE_LOOP('',(#742,#743,#744,#745));
#321=EDGE_LOOP('',(#746,#747,#748,#749));
#322=EDGE_LOOP('',(#750,#751,#752,#753));
#323=EDGE_LOOP('',(#754,#755,#756,#757));
#324=EDGE_LOOP('',(#758,#759,#760,#761));
#325=EDGE_LOOP('',(#762,#763,#764,#765));
#326=EDGE_LOOP('',(#766,#767,#768,#769));
#327=EDGE_LOOP('',(#770,#771,#772,#773));
#328=EDGE_LOOP('',(#774,#775,#776,#777));
#329=EDGE_LOOP('',(#778,#779,#780,#781));
#330=EDGE_LOOP('',(#782,#783,#784,#785));
#331=EDGE_LOOP('',(#786,#787,#788,#789));
#332=EDGE_LOOP('',(#790,#791,#792,#793));
#333=EDGE_LOOP('',(#794,#795,#796,#797));
#334=EDGE_LOOP('',(#798,#799,#800,#801));
#335=EDGE_LOOP('',(#802,#803,#804,#805));
#336=EDGE_LOOP('',(#806,#807,#808,#809));
#337=EDGE_LOOP('',(#810,#811,#812,#813));
#338=EDGE_LOOP('',(#814,#815,#816,#817));
#339=EDGE_LOOP('',(#818,#819,#820,#821));
#340=EDGE_LOOP('',(#822,#823,#824,#825));
#341=EDGE_LOOP('',(#826,#827,#828,#829));
#342=EDGE_LOOP('',(#830,#831,#832,#833));
#343=EDGE_LOOP('',(#834,#835,#836,#837));
#344=EDGE_LOOP('',(#838,#839,#840,#841));
#345=EDGE_LOOP('',(#842,#843,#844,#845,#846,#847));
#346=EDGE_LOOP('',(#848));
#347=EDGE_LOOP('',(#849,#850,#851,#852,#853,#854,#855,#856));
#348=EDGE_LOOP('',(#857,#858,#859,#860));
#349=EDGE_LOOP('',(#861,#862,#863,#864));
#350=EDGE_LOOP('',(#865,#866,#867,#868,#869,#870,#871,#872));
#351=EDGE_LOOP('',(#873));
#352=EDGE_LOOP('',(#874));
#353=EDGE_LOOP('',(#875));
#354=EDGE_LOOP('',(#876));
#355=EDGE_LOOP('',(#877,#878,#879,#880));
#356=CIRCLE('',#951,0.625);
#357=CIRCLE('',#952,0.4);
#358=CIRCLE('',#953,1.025);
#359=CIRCLE('',#954,1.025);
#360=CIRCLE('',#956,1.025);
#361=CIRCLE('',#959,0.625);
#362=CIRCLE('',#960,0.4);
#363=CIRCLE('',#961,1.025);
#364=CIRCLE('',#962,1.025);
#365=CIRCLE('',#964,1.025);
#366=CIRCLE('',#966,0.0999999999999981);
#367=CIRCLE('',#967,0.4);
#368=CIRCLE('',#968,0.499999999999998);
#369=CIRCLE('',#969,0.499999999999998);
#370=CIRCLE('',#971,0.499999999999998);
#371=CIRCLE('',#974,0.624999999999991);
#372=CIRCLE('',#975,0.4);
#373=CIRCLE('',#976,1.02499999999999);
#374=CIRCLE('',#977,1.02499999999999);
#375=CIRCLE('',#979,1.02499999999999);
#376=CIRCLE('',#982,0.624999999999991);
#377=CIRCLE('',#983,0.4);
#378=CIRCLE('',#984,1.02499999999999);
#379=CIRCLE('',#985,1.02499999999999);
#380=CIRCLE('',#987,1.02499999999999);
#381=CIRCLE('',#990,1.24899959967968);
#382=CIRCLE('',#991,1.28);
#383=CIRCLE('',#992,1.27999999999999);
#384=CIRCLE('',#994,1.27999999999999);
#385=CIRCLE('',#996,1.28);
#386=CIRCLE('',#998,1.24899959967968);
#387=CIRCLE('',#999,1.28);
#388=CIRCLE('',#1001,1.28);
#389=CIRCLE('',#1003,1.28000000000001);
#390=CIRCLE('',#1004,1.28);
#391=CIRCLE('',#1005,1.28000000000001);
#392=CIRCLE('',#1006,1.28000000000001);
#393=CIRCLE('',#1007,1.28000000000001);
#394=CIRCLE('',#1008,1.28000000000001);
#395=CIRCLE('',#1009,1.28);
#396=CIRCLE('',#1010,1.28000000000001);
#397=CIRCLE('',#1018,1.28);
#398=CIRCLE('',#1021,1.28000000000001);
#399=CIRCLE('',#1024,1.28000000000001);
#400=CIRCLE('',#1027,1.28000000000001);
#401=CIRCLE('',#1037,1.28000000000001);
#402=CIRCLE('',#1040,1.28000000000001);
#403=CIRCLE('',#1043,1.28);
#404=CIRCLE('',#1046,1.28000000000001);
#405=VERTEX_POINT('',#1332);
#406=VERTEX_POINT('',#1334);
#407=VERTEX_POINT('',#1336);
#408=VERTEX_POINT('',#1340);
#409=VERTEX_POINT('',#1345);
#410=VERTEX_POINT('',#1347);
#411=VERTEX_POINT('',#1349);
#412=VERTEX_POINT('',#1353);
#413=VERTEX_POINT('',#1384);
#414=VERTEX_POINT('',#1386);
#415=VERTEX_POINT('',#1388);
#416=VERTEX_POINT('',#1392);
#417=VERTEX_POINT('',#1397);
#418=VERTEX_POINT('',#1399);
#419=VERTEX_POINT('',#1401);
#420=VERTEX_POINT('',#1405);
#421=VERTEX_POINT('',#1410);
#422=VERTEX_POINT('',#1412);
#423=VERTEX_POINT('',#1414);
#424=VERTEX_POINT('',#1418);
#425=VERTEX_POINT('',#1423);
#426=VERTEX_POINT('',#1424);
#427=VERTEX_POINT('',#1426);
#428=VERTEX_POINT('',#1430);
#429=VERTEX_POINT('',#1432);
#430=VERTEX_POINT('',#1436);
#431=VERTEX_POINT('',#1438);
#432=VERTEX_POINT('',#1442);
#433=VERTEX_POINT('',#1446);
#434=VERTEX_POINT('',#1448);
#435=VERTEX_POINT('',#1453);
#436=VERTEX_POINT('',#1454);
#437=VERTEX_POINT('',#1456);
#438=VERTEX_POINT('',#1458);
#439=VERTEX_POINT('',#1460);
#440=VERTEX_POINT('',#1462);
#441=VERTEX_POINT('',#1464);
#442=VERTEX_POINT('',#1466);
#443=VERTEX_POINT('',#1469);
#444=VERTEX_POINT('',#1470);
#445=VERTEX_POINT('',#1472);
#446=VERTEX_POINT('',#1474);
#447=VERTEX_POINT('',#1477);
#448=VERTEX_POINT('',#1478);
#449=VERTEX_POINT('',#1480);
#450=VERTEX_POINT('',#1482);
#451=VERTEX_POINT('',#1485);
#452=VERTEX_POINT('',#1486);
#453=VERTEX_POINT('',#1488);
#454=VERTEX_POINT('',#1490);
#455=VERTEX_POINT('',#1492);
#456=VERTEX_POINT('',#1494);
#457=VERTEX_POINT('',#1496);
#458=VERTEX_POINT('',#1498);
#459=VERTEX_POINT('',#1501);
#460=VERTEX_POINT('',#1502);
#461=VERTEX_POINT('',#1504);
#462=VERTEX_POINT('',#1506);
#463=VERTEX_POINT('',#1512);
#464=VERTEX_POINT('',#1514);
#465=VERTEX_POINT('',#1518);
#466=VERTEX_POINT('',#1522);
#467=VERTEX_POINT('',#1528);
#468=VERTEX_POINT('',#1530);
#469=VERTEX_POINT('',#1534);
#470=VERTEX_POINT('',#1538);
#471=VERTEX_POINT('',#1542);
#472=VERTEX_POINT('',#1546);
#473=VERTEX_POINT('',#1550);
#474=VERTEX_POINT('',#1554);
#475=VERTEX_POINT('',#1560);
#476=VERTEX_POINT('',#1562);
#477=VERTEX_POINT('',#1566);
#478=VERTEX_POINT('',#1570);
#479=VERTEX_POINT('',#1576);
#480=VERTEX_POINT('',#1578);
#481=VERTEX_POINT('',#1582);
#482=VERTEX_POINT('',#1586);
#483=VERTEX_POINT('',#1592);
#484=VERTEX_POINT('',#1594);
#485=VERTEX_POINT('',#1598);
#486=VERTEX_POINT('',#1602);
#487=VERTEX_POINT('',#1606);
#488=VERTEX_POINT('',#1610);
#489=VERTEX_POINT('',#1614);
#490=VERTEX_POINT('',#1618);
#491=EDGE_CURVE('',#405,#405,#356,.T.);
#492=EDGE_CURVE('',#405,#406,#357,.T.);
#493=EDGE_CURVE('',#406,#407,#358,.T.);
#494=EDGE_CURVE('',#407,#406,#359,.T.);
#495=EDGE_CURVE('',#407,#408,#61,.T.);
#496=EDGE_CURVE('',#408,#408,#360,.T.);
#497=EDGE_CURVE('',#409,#409,#361,.T.);
#498=EDGE_CURVE('',#409,#410,#362,.T.);
#499=EDGE_CURVE('',#410,#411,#363,.T.);
#500=EDGE_CURVE('',#411,#410,#364,.T.);
#501=EDGE_CURVE('',#411,#412,#62,.T.);
#502=EDGE_CURVE('',#412,#412,#365,.T.);
#503=EDGE_CURVE('',#413,#413,#366,.T.);
#504=EDGE_CURVE('',#413,#414,#367,.T.);
#505=EDGE_CURVE('',#414,#415,#368,.T.);
#506=EDGE_CURVE('',#415,#414,#369,.T.);
#507=EDGE_CURVE('',#415,#416,#63,.T.);
#508=EDGE_CURVE('',#416,#416,#370,.T.);
#509=EDGE_CURVE('',#417,#417,#371,.T.);
#510=EDGE_CURVE('',#417,#418,#372,.T.);
#511=EDGE_CURVE('',#418,#419,#373,.T.);
#512=EDGE_CURVE('',#419,#418,#374,.T.);
#513=EDGE_CURVE('',#419,#420,#64,.T.);
#514=EDGE_CURVE('',#420,#420,#375,.T.);
#515=EDGE_CURVE('',#421,#421,#376,.T.);
#516=EDGE_CURVE('',#421,#422,#377,.T.);
#517=EDGE_CURVE('',#422,#423,#378,.T.);
#518=EDGE_CURVE('',#423,#422,#379,.T.);
#519=EDGE_CURVE('',#423,#424,#65,.T.);
#520=EDGE_CURVE('',#424,#424,#380,.T.);
#521=EDGE_CURVE('',#425,#426,#381,.T.);
#522=EDGE_CURVE('',#426,#427,#382,.T.);
#523=EDGE_CURVE('',#427,#425,#383,.T.);
#524=EDGE_CURVE('',#427,#428,#66,.T.);
#525=EDGE_CURVE('',#428,#429,#384,.T.);
#526=EDGE_CURVE('',#425,#429,#67,.T.);
#527=EDGE_CURVE('',#430,#426,#68,.T.);
#528=EDGE_CURVE('',#431,#430,#385,.T.);
#529=EDGE_CURVE('',#431,#427,#69,.T.);
#530=EDGE_CURVE('',#430,#432,#386,.T.);
#531=EDGE_CURVE('',#432,#431,#387,.T.);
#532=EDGE_CURVE('',#433,#432,#70,.T.);
#533=EDGE_CURVE('',#433,#434,#388,.T.);
#534=EDGE_CURVE('',#434,#431,#71,.T.);
#535=EDGE_CURVE('',#434,#428,#72,.T.);
#536=EDGE_CURVE('',#435,#436,#389,.T.);
#537=EDGE_CURVE('',#437,#435,#73,.T.);
#538=EDGE_CURVE('',#438,#437,#390,.T.);
#539=EDGE_CURVE('',#439,#438,#74,.T.);
#540=EDGE_CURVE('',#440,#439,#391,.T.);
#541=EDGE_CURVE('',#441,#440,#75,.T.);
#542=EDGE_CURVE('',#442,#441,#392,.T.);
#543=EDGE_CURVE('',#436,#442,#76,.T.);
#544=EDGE_CURVE('',#443,#444,#77,.T.);
#545=EDGE_CURVE('',#445,#443,#78,.T.);
#546=EDGE_CURVE('',#446,#445,#79,.T.);
#547=EDGE_CURVE('',#444,#446,#80,.T.);
#548=EDGE_CURVE('',#447,#448,#81,.T.);
#549=EDGE_CURVE('',#449,#447,#82,.T.);
#550=EDGE_CURVE('',#450,#449,#83,.T.);
#551=EDGE_CURVE('',#448,#450,#84,.T.);
#552=EDGE_CURVE('',#451,#452,#85,.T.);
#553=EDGE_CURVE('',#453,#451,#393,.T.);
#554=EDGE_CURVE('',#454,#453,#86,.T.);
#555=EDGE_CURVE('',#455,#454,#394,.T.);
#556=EDGE_CURVE('',#456,#455,#87,.T.);
#557=EDGE_CURVE('',#457,#456,#395,.T.);
#558=EDGE_CURVE('',#458,#457,#88,.T.);
#559=EDGE_CURVE('',#452,#458,#396,.T.);
#560=EDGE_CURVE('',#459,#460,#89,.T.);
#561=EDGE_CURVE('',#460,#461,#90,.T.);
#562=EDGE_CURVE('',#461,#462,#91,.T.);
#563=EDGE_CURVE('',#462,#459,#92,.T.);
#564=EDGE_CURVE('',#429,#433,#93,.T.);
#565=EDGE_CURVE('',#459,#463,#94,.T.);
#566=EDGE_CURVE('',#464,#463,#95,.T.);
#567=EDGE_CURVE('',#460,#464,#96,.T.);
#568=EDGE_CURVE('',#462,#465,#97,.T.);
#569=EDGE_CURVE('',#463,#465,#98,.T.);
#570=EDGE_CURVE('',#461,#466,#99,.T.);
#571=EDGE_CURVE('',#465,#466,#100,.T.);
#572=EDGE_CURVE('',#466,#464,#101,.T.);
#573=EDGE_CURVE('',#435,#467,#102,.T.);
#574=EDGE_CURVE('',#468,#467,#103,.T.);
#575=EDGE_CURVE('',#437,#468,#104,.T.);
#576=EDGE_CURVE('',#469,#468,#397,.T.);
#577=EDGE_CURVE('',#438,#469,#105,.T.);
#578=EDGE_CURVE('',#470,#469,#106,.T.);
#579=EDGE_CURVE('',#439,#470,#107,.T.);
#580=EDGE_CURVE('',#471,#470,#398,.T.);
#581=EDGE_CURVE('',#440,#471,#108,.T.);
#582=EDGE_CURVE('',#472,#471,#109,.T.);
#583=EDGE_CURVE('',#441,#472,#110,.T.);
#584=EDGE_CURVE('',#473,#472,#399,.T.);
#585=EDGE_CURVE('',#442,#473,#111,.T.);
#586=EDGE_CURVE('',#474,#473,#112,.T.);
#587=EDGE_CURVE('',#436,#474,#113,.T.);
#588=EDGE_CURVE('',#467,#474,#400,.T.);
#589=EDGE_CURVE('',#443,#475,#114,.T.);
#590=EDGE_CURVE('',#476,#475,#115,.T.);
#591=EDGE_CURVE('',#445,#476,#116,.T.);
#592=EDGE_CURVE('',#477,#476,#117,.T.);
#593=EDGE_CURVE('',#446,#477,#118,.T.);
#594=EDGE_CURVE('',#478,#477,#119,.T.);
#595=EDGE_CURVE('',#444,#478,#120,.T.);
#596=EDGE_CURVE('',#475,#478,#121,.T.);
#597=EDGE_CURVE('',#447,#479,#122,.T.);
#598=EDGE_CURVE('',#480,#479,#123,.T.);
#599=EDGE_CURVE('',#449,#480,#124,.T.);
#600=EDGE_CURVE('',#481,#480,#125,.T.);
#601=EDGE_CURVE('',#450,#481,#126,.T.);
#602=EDGE_CURVE('',#482,#481,#127,.T.);
#603=EDGE_CURVE('',#448,#482,#128,.T.);
#604=EDGE_CURVE('',#479,#482,#129,.T.);
#605=EDGE_CURVE('',#451,#483,#130,.T.);
#606=EDGE_CURVE('',#484,#483,#401,.T.);
#607=EDGE_CURVE('',#453,#484,#131,.T.);
#608=EDGE_CURVE('',#485,#484,#132,.T.);
#609=EDGE_CURVE('',#454,#485,#133,.T.);
#610=EDGE_CURVE('',#486,#485,#402,.T.);
#611=EDGE_CURVE('',#455,#486,#134,.T.);
#612=EDGE_CURVE('',#487,#486,#135,.T.);
#613=EDGE_CURVE('',#456,#487,#136,.T.);
#614=EDGE_CURVE('',#488,#487,#403,.T.);
#615=EDGE_CURVE('',#457,#488,#137,.T.);
#616=EDGE_CURVE('',#489,#488,#138,.T.);
#617=EDGE_CURVE('',#458,#489,#139,.T.);
#618=EDGE_CURVE('',#490,#489,#404,.T.);
#619=EDGE_CURVE('',#452,#490,#140,.T.);
#620=EDGE_CURVE('',#483,#490,#141,.T.);
#621=ORIENTED_EDGE('',*,*,#491,.T.);
#622=ORIENTED_EDGE('',*,*,#492,.T.);
#623=ORIENTED_EDGE('',*,*,#493,.T.);
#624=ORIENTED_EDGE('',*,*,#494,.T.);
#625=ORIENTED_EDGE('',*,*,#492,.F.);
#626=ORIENTED_EDGE('',*,*,#494,.F.);
#627=ORIENTED_EDGE('',*,*,#495,.T.);
#628=ORIENTED_EDGE('',*,*,#496,.F.);
#629=ORIENTED_EDGE('',*,*,#495,.F.);
#630=ORIENTED_EDGE('',*,*,#493,.F.);
#631=ORIENTED_EDGE('',*,*,#491,.F.);
#632=ORIENTED_EDGE('',*,*,#497,.T.);
#633=ORIENTED_EDGE('',*,*,#498,.T.);
#634=ORIENTED_EDGE('',*,*,#499,.T.);
#635=ORIENTED_EDGE('',*,*,#500,.T.);
#636=ORIENTED_EDGE('',*,*,#498,.F.);
#637=ORIENTED_EDGE('',*,*,#500,.F.);
#638=ORIENTED_EDGE('',*,*,#501,.T.);
#639=ORIENTED_EDGE('',*,*,#502,.F.);
#640=ORIENTED_EDGE('',*,*,#501,.F.);
#641=ORIENTED_EDGE('',*,*,#499,.F.);
#642=ORIENTED_EDGE('',*,*,#497,.F.);
#643=ORIENTED_EDGE('',*,*,#503,.T.);
#644=ORIENTED_EDGE('',*,*,#504,.T.);
#645=ORIENTED_EDGE('',*,*,#505,.T.);
#646=ORIENTED_EDGE('',*,*,#506,.T.);
#647=ORIENTED_EDGE('',*,*,#504,.F.);
#648=ORIENTED_EDGE('',*,*,#506,.F.);
#649=ORIENTED_EDGE('',*,*,#507,.T.);
#650=ORIENTED_EDGE('',*,*,#508,.F.);
#651=ORIENTED_EDGE('',*,*,#507,.F.);
#652=ORIENTED_EDGE('',*,*,#505,.F.);
#653=ORIENTED_EDGE('',*,*,#503,.F.);
#654=ORIENTED_EDGE('',*,*,#509,.T.);
#655=ORIENTED_EDGE('',*,*,#510,.T.);
#656=ORIENTED_EDGE('',*,*,#511,.T.);
#657=ORIENTED_EDGE('',*,*,#512,.T.);
#658=ORIENTED_EDGE('',*,*,#510,.F.);
#659=ORIENTED_EDGE('',*,*,#512,.F.);
#660=ORIENTED_EDGE('',*,*,#513,.T.);
#661=ORIENTED_EDGE('',*,*,#514,.F.);
#662=ORIENTED_EDGE('',*,*,#513,.F.);
#663=ORIENTED_EDGE('',*,*,#511,.F.);
#664=ORIENTED_EDGE('',*,*,#509,.F.);
#665=ORIENTED_EDGE('',*,*,#515,.T.);
#666=ORIENTED_EDGE('',*,*,#516,.T.);
#667=ORIENTED_EDGE('',*,*,#517,.T.);
#668=ORIENTED_EDGE('',*,*,#518,.T.);
#669=ORIENTED_EDGE('',*,*,#516,.F.);
#670=ORIENTED_EDGE('',*,*,#518,.F.);
#671=ORIENTED_EDGE('',*,*,#519,.T.);
#672=ORIENTED_EDGE('',*,*,#520,.F.);
#673=ORIENTED_EDGE('',*,*,#519,.F.);
#674=ORIENTED_EDGE('',*,*,#517,.F.);
#675=ORIENTED_EDGE('',*,*,#515,.F.);
#676=ORIENTED_EDGE('',*,*,#521,.T.);
#677=ORIENTED_EDGE('',*,*,#522,.T.);
#678=ORIENTED_EDGE('',*,*,#523,.T.);
#679=ORIENTED_EDGE('',*,*,#523,.F.);
#680=ORIENTED_EDGE('',*,*,#524,.T.);
#681=ORIENTED_EDGE('',*,*,#525,.T.);
#682=ORIENTED_EDGE('',*,*,#526,.F.);
#683=ORIENTED_EDGE('',*,*,#522,.F.);
#684=ORIENTED_EDGE('',*,*,#527,.F.);
#685=ORIENTED_EDGE('',*,*,#528,.F.);
#686=ORIENTED_EDGE('',*,*,#529,.T.);
#687=ORIENTED_EDGE('',*,*,#530,.T.);
#688=ORIENTED_EDGE('',*,*,#531,.T.);
#689=ORIENTED_EDGE('',*,*,#528,.T.);
#690=ORIENTED_EDGE('',*,*,#531,.F.);
#691=ORIENTED_EDGE('',*,*,#532,.F.);
#692=ORIENTED_EDGE('',*,*,#533,.T.);
#693=ORIENTED_EDGE('',*,*,#534,.T.);
#694=ORIENTED_EDGE('',*,*,#534,.F.);
#695=ORIENTED_EDGE('',*,*,#535,.T.);
#696=ORIENTED_EDGE('',*,*,#524,.F.);
#697=ORIENTED_EDGE('',*,*,#529,.F.);
#698=ORIENTED_EDGE('',*,*,#536,.F.);
#699=ORIENTED_EDGE('',*,*,#537,.F.);
#700=ORIENTED_EDGE('',*,*,#538,.F.);
#701=ORIENTED_EDGE('',*,*,#539,.F.);
#702=ORIENTED_EDGE('',*,*,#540,.F.);
#703=ORIENTED_EDGE('',*,*,#541,.F.);
#704=ORIENTED_EDGE('',*,*,#542,.F.);
#705=ORIENTED_EDGE('',*,*,#543,.F.);
#706=ORIENTED_EDGE('',*,*,#544,.F.);
#707=ORIENTED_EDGE('',*,*,#545,.F.);
#708=ORIENTED_EDGE('',*,*,#546,.F.);
#709=ORIENTED_EDGE('',*,*,#547,.F.);
#710=ORIENTED_EDGE('',*,*,#548,.F.);
#711=ORIENTED_EDGE('',*,*,#549,.F.);
#712=ORIENTED_EDGE('',*,*,#550,.F.);
#713=ORIENTED_EDGE('',*,*,#551,.F.);
#714=ORIENTED_EDGE('',*,*,#552,.F.);
#715=ORIENTED_EDGE('',*,*,#553,.F.);
#716=ORIENTED_EDGE('',*,*,#554,.F.);
#717=ORIENTED_EDGE('',*,*,#555,.F.);
#718=ORIENTED_EDGE('',*,*,#556,.F.);
#719=ORIENTED_EDGE('',*,*,#557,.F.);
#720=ORIENTED_EDGE('',*,*,#558,.F.);
#721=ORIENTED_EDGE('',*,*,#559,.F.);
#722=ORIENTED_EDGE('',*,*,#560,.T.);
#723=ORIENTED_EDGE('',*,*,#561,.T.);
#724=ORIENTED_EDGE('',*,*,#562,.T.);
#725=ORIENTED_EDGE('',*,*,#563,.T.);
#726=ORIENTED_EDGE('',*,*,#533,.F.);
#727=ORIENTED_EDGE('',*,*,#564,.F.);
#728=ORIENTED_EDGE('',*,*,#525,.F.);
#729=ORIENTED_EDGE('',*,*,#535,.F.);
#730=ORIENTED_EDGE('',*,*,#560,.F.);
#731=ORIENTED_EDGE('',*,*,#565,.T.);
#732=ORIENTED_EDGE('',*,*,#566,.F.);
#733=ORIENTED_EDGE('',*,*,#567,.F.);
#734=ORIENTED_EDGE('',*,*,#563,.F.);
#735=ORIENTED_EDGE('',*,*,#568,.T.);
#736=ORIENTED_EDGE('',*,*,#569,.F.);
#737=ORIENTED_EDGE('',*,*,#565,.F.);
#738=ORIENTED_EDGE('',*,*,#562,.F.);
#739=ORIENTED_EDGE('',*,*,#570,.T.);
#740=ORIENTED_EDGE('',*,*,#571,.F.);
#741=ORIENTED_EDGE('',*,*,#568,.F.);
#742=ORIENTED_EDGE('',*,*,#561,.F.);
#743=ORIENTED_EDGE('',*,*,#567,.T.);
#744=ORIENTED_EDGE('',*,*,#572,.F.);
#745=ORIENTED_EDGE('',*,*,#570,.F.);
#746=ORIENTED_EDGE('',*,*,#537,.T.);
#747=ORIENTED_EDGE('',*,*,#573,.T.);
#748=ORIENTED_EDGE('',*,*,#574,.F.);
#749=ORIENTED_EDGE('',*,*,#575,.F.);
#750=ORIENTED_EDGE('',*,*,#538,.T.);
#751=ORIENTED_EDGE('',*,*,#575,.T.);
#752=ORIENTED_EDGE('',*,*,#576,.F.);
#753=ORIENTED_EDGE('',*,*,#577,.F.);
#754=ORIENTED_EDGE('',*,*,#539,.T.);
#755=ORIENTED_EDGE('',*,*,#577,.T.);
#756=ORIENTED_EDGE('',*,*,#578,.F.);
#757=ORIENTED_EDGE('',*,*,#579,.F.);
#758=ORIENTED_EDGE('',*,*,#540,.T.);
#759=ORIENTED_EDGE('',*,*,#579,.T.);
#760=ORIENTED_EDGE('',*,*,#580,.F.);
#761=ORIENTED_EDGE('',*,*,#581,.F.);
#762=ORIENTED_EDGE('',*,*,#541,.T.);
#763=ORIENTED_EDGE('',*,*,#581,.T.);
#764=ORIENTED_EDGE('',*,*,#582,.F.);
#765=ORIENTED_EDGE('',*,*,#583,.F.);
#766=ORIENTED_EDGE('',*,*,#542,.T.);
#767=ORIENTED_EDGE('',*,*,#583,.T.);
#768=ORIENTED_EDGE('',*,*,#584,.F.);
#769=ORIENTED_EDGE('',*,*,#585,.F.);
#770=ORIENTED_EDGE('',*,*,#543,.T.);
#771=ORIENTED_EDGE('',*,*,#585,.T.);
#772=ORIENTED_EDGE('',*,*,#586,.F.);
#773=ORIENTED_EDGE('',*,*,#587,.F.);
#774=ORIENTED_EDGE('',*,*,#536,.T.);
#775=ORIENTED_EDGE('',*,*,#587,.T.);
#776=ORIENTED_EDGE('',*,*,#588,.F.);
#777=ORIENTED_EDGE('',*,*,#573,.F.);
#778=ORIENTED_EDGE('',*,*,#545,.T.);
#779=ORIENTED_EDGE('',*,*,#589,.T.);
#780=ORIENTED_EDGE('',*,*,#590,.F.);
#781=ORIENTED_EDGE('',*,*,#591,.F.);
#782=ORIENTED_EDGE('',*,*,#546,.T.);
#783=ORIENTED_EDGE('',*,*,#591,.T.);
#784=ORIENTED_EDGE('',*,*,#592,.F.);
#785=ORIENTED_EDGE('',*,*,#593,.F.);
#786=ORIENTED_EDGE('',*,*,#547,.T.);
#787=ORIENTED_EDGE('',*,*,#593,.T.);
#788=ORIENTED_EDGE('',*,*,#594,.F.);
#789=ORIENTED_EDGE('',*,*,#595,.F.);
#790=ORIENTED_EDGE('',*,*,#544,.T.);
#791=ORIENTED_EDGE('',*,*,#595,.T.);
#792=ORIENTED_EDGE('',*,*,#596,.F.);
#793=ORIENTED_EDGE('',*,*,#589,.F.);
#794=ORIENTED_EDGE('',*,*,#549,.T.);
#795=ORIENTED_EDGE('',*,*,#597,.T.);
#796=ORIENTED_EDGE('',*,*,#598,.F.);
#797=ORIENTED_EDGE('',*,*,#599,.F.);
#798=ORIENTED_EDGE('',*,*,#550,.T.);
#799=ORIENTED_EDGE('',*,*,#599,.T.);
#800=ORIENTED_EDGE('',*,*,#600,.F.);
#801=ORIENTED_EDGE('',*,*,#601,.F.);
#802=ORIENTED_EDGE('',*,*,#551,.T.);
#803=ORIENTED_EDGE('',*,*,#601,.T.);
#804=ORIENTED_EDGE('',*,*,#602,.F.);
#805=ORIENTED_EDGE('',*,*,#603,.F.);
#806=ORIENTED_EDGE('',*,*,#548,.T.);
#807=ORIENTED_EDGE('',*,*,#603,.T.);
#808=ORIENTED_EDGE('',*,*,#604,.F.);
#809=ORIENTED_EDGE('',*,*,#597,.F.);
#810=ORIENTED_EDGE('',*,*,#553,.T.);
#811=ORIENTED_EDGE('',*,*,#605,.T.);
#812=ORIENTED_EDGE('',*,*,#606,.F.);
#813=ORIENTED_EDGE('',*,*,#607,.F.);
#814=ORIENTED_EDGE('',*,*,#554,.T.);
#815=ORIENTED_EDGE('',*,*,#607,.T.);
#816=ORIENTED_EDGE('',*,*,#608,.F.);
#817=ORIENTED_EDGE('',*,*,#609,.F.);
#818=ORIENTED_EDGE('',*,*,#555,.T.);
#819=ORIENTED_EDGE('',*,*,#609,.T.);
#820=ORIENTED_EDGE('',*,*,#610,.F.);
#821=ORIENTED_EDGE('',*,*,#611,.F.);
#822=ORIENTED_EDGE('',*,*,#556,.T.);
#823=ORIENTED_EDGE('',*,*,#611,.T.);
#824=ORIENTED_EDGE('',*,*,#612,.F.);
#825=ORIENTED_EDGE('',*,*,#613,.F.);
#826=ORIENTED_EDGE('',*,*,#557,.T.);
#827=ORIENTED_EDGE('',*,*,#613,.T.);
#828=ORIENTED_EDGE('',*,*,#614,.F.);
#829=ORIENTED_EDGE('',*,*,#615,.F.);
#830=ORIENTED_EDGE('',*,*,#558,.T.);
#831=ORIENTED_EDGE('',*,*,#615,.T.);
#832=ORIENTED_EDGE('',*,*,#616,.F.);
#833=ORIENTED_EDGE('',*,*,#617,.F.);
#834=ORIENTED_EDGE('',*,*,#559,.T.);
#835=ORIENTED_EDGE('',*,*,#617,.T.);
#836=ORIENTED_EDGE('',*,*,#618,.F.);
#837=ORIENTED_EDGE('',*,*,#619,.F.);
#838=ORIENTED_EDGE('',*,*,#552,.T.);
#839=ORIENTED_EDGE('',*,*,#619,.T.);
#840=ORIENTED_EDGE('',*,*,#620,.F.);
#841=ORIENTED_EDGE('',*,*,#605,.F.);
#842=ORIENTED_EDGE('',*,*,#521,.F.);
#843=ORIENTED_EDGE('',*,*,#526,.T.);
#844=ORIENTED_EDGE('',*,*,#564,.T.);
#845=ORIENTED_EDGE('',*,*,#532,.T.);
#846=ORIENTED_EDGE('',*,*,#530,.F.);
#847=ORIENTED_EDGE('',*,*,#527,.T.);
#848=ORIENTED_EDGE('',*,*,#496,.T.);
#849=ORIENTED_EDGE('',*,*,#588,.T.);
#850=ORIENTED_EDGE('',*,*,#586,.T.);
#851=ORIENTED_EDGE('',*,*,#584,.T.);
#852=ORIENTED_EDGE('',*,*,#582,.T.);
#853=ORIENTED_EDGE('',*,*,#580,.T.);
#854=ORIENTED_EDGE('',*,*,#578,.T.);
#855=ORIENTED_EDGE('',*,*,#576,.T.);
#856=ORIENTED_EDGE('',*,*,#574,.T.);
#857=ORIENTED_EDGE('',*,*,#596,.T.);
#858=ORIENTED_EDGE('',*,*,#594,.T.);
#859=ORIENTED_EDGE('',*,*,#592,.T.);
#860=ORIENTED_EDGE('',*,*,#590,.T.);
#861=ORIENTED_EDGE('',*,*,#604,.T.);
#862=ORIENTED_EDGE('',*,*,#602,.T.);
#863=ORIENTED_EDGE('',*,*,#600,.T.);
#864=ORIENTED_EDGE('',*,*,#598,.T.);
#865=ORIENTED_EDGE('',*,*,#620,.T.);
#866=ORIENTED_EDGE('',*,*,#618,.T.);
#867=ORIENTED_EDGE('',*,*,#616,.T.);
#868=ORIENTED_EDGE('',*,*,#614,.T.);
#869=ORIENTED_EDGE('',*,*,#612,.T.);
#870=ORIENTED_EDGE('',*,*,#610,.T.);
#871=ORIENTED_EDGE('',*,*,#608,.T.);
#872=ORIENTED_EDGE('',*,*,#606,.T.);
#873=ORIENTED_EDGE('',*,*,#508,.T.);
#874=ORIENTED_EDGE('',*,*,#514,.T.);
#875=ORIENTED_EDGE('',*,*,#502,.T.);
#876=ORIENTED_EDGE('',*,*,#520,.T.);
#877=ORIENTED_EDGE('',*,*,#566,.T.);
#878=ORIENTED_EDGE('',*,*,#569,.T.);
#879=ORIENTED_EDGE('',*,*,#571,.T.);
#880=ORIENTED_EDGE('',*,*,#572,.T.);
#881=TOROIDAL_SURFACE('',#950,0.625,0.4);
#882=TOROIDAL_SURFACE('',#958,0.625,0.4);
#883=TOROIDAL_SURFACE('',#973,0.624999999999991,0.4);
#884=TOROIDAL_SURFACE('',#981,0.624999999999991,0.4);
#885=ADVANCED_FACE('',(#239),#881,.T.);
#886=ADVANCED_FACE('',(#240),#223,.T.);
#887=ADVANCED_FACE('',(#241),#33,.T.);
#888=ADVANCED_FACE('',(#242),#882,.T.);
#889=ADVANCED_FACE('',(#243),#224,.T.);
#890=ADVANCED_FACE('',(#244),#34,.T.);
#891=ADVANCED_FACE('',(#245),#32,.F.);
#892=ADVANCED_FACE('',(#246),#225,.T.);
#893=ADVANCED_FACE('',(#247),#35,.T.);
#894=ADVANCED_FACE('',(#248),#883,.T.);
#895=ADVANCED_FACE('',(#249),#226,.T.);
#896=ADVANCED_FACE('',(#250),#36,.T.);
#897=ADVANCED_FACE('',(#251),#884,.T.);
#898=ADVANCED_FACE('',(#252),#227,.T.);
#899=ADVANCED_FACE('',(#253),#37,.T.);
#900=ADVANCED_FACE('',(#254),#30,.T.);
#901=ADVANCED_FACE('',(#255),#228,.T.);
#902=ADVANCED_FACE('',(#256),#229,.T.);
#903=ADVANCED_FACE('',(#257),#31,.T.);
#904=ADVANCED_FACE('',(#258),#230,.T.);
#905=ADVANCED_FACE('',(#259,#15,#16,#17,#18,#19),#38,.F.);
#906=ADVANCED_FACE('',(#260),#39,.T.);
#907=ADVANCED_FACE('',(#261),#40,.F.);
#908=ADVANCED_FACE('',(#262),#41,.F.);
#909=ADVANCED_FACE('',(#263),#42,.F.);
#910=ADVANCED_FACE('',(#264),#43,.F.);
#911=ADVANCED_FACE('',(#265),#44,.T.);
#912=ADVANCED_FACE('',(#266),#231,.F.);
#913=ADVANCED_FACE('',(#267),#45,.T.);
#914=ADVANCED_FACE('',(#268),#232,.F.);
#915=ADVANCED_FACE('',(#269),#46,.T.);
#916=ADVANCED_FACE('',(#270),#233,.F.);
#917=ADVANCED_FACE('',(#271),#47,.T.);
#918=ADVANCED_FACE('',(#272),#234,.F.);
#919=ADVANCED_FACE('',(#273),#48,.T.);
#920=ADVANCED_FACE('',(#274),#49,.T.);
#921=ADVANCED_FACE('',(#275),#50,.T.);
#922=ADVANCED_FACE('',(#276),#51,.T.);
#923=ADVANCED_FACE('',(#277),#52,.T.);
#924=ADVANCED_FACE('',(#278),#53,.T.);
#925=ADVANCED_FACE('',(#279),#54,.T.);
#926=ADVANCED_FACE('',(#280),#55,.T.);
#927=ADVANCED_FACE('',(#281),#235,.F.);
#928=ADVANCED_FACE('',(#282),#56,.T.);
#929=ADVANCED_FACE('',(#283),#236,.F.);
#930=ADVANCED_FACE('',(#284),#57,.T.);
#931=ADVANCED_FACE('',(#285),#237,.F.);
#932=ADVANCED_FACE('',(#286),#58,.T.);
#933=ADVANCED_FACE('',(#287),#238,.F.);
#934=ADVANCED_FACE('',(#288),#59,.T.);
#935=ADVANCED_FACE('',(#289,#20,#21,#22,#23,#24,#25,#26,#27,#28,#29),#60,
 .T.);
#936=CLOSED_SHELL('',(#885,#886,#887,#888,#889,#890,#891,#892,#893,#894,
#895,#896,#897,#898,#899,#900,#901,#902,#903,#904,#905,#906,#907,#908,#909,
#910,#911,#912,#913,#914,#915,#916,#917,#918,#919,#920,#921,#922,#923,#924,
#925,#926,#927,#928,#929,#930,#931,#932,#933,#934,#935));
#937=DERIVED_UNIT_ELEMENT(#939,1.);
#938=DERIVED_UNIT_ELEMENT(#1629,-3.);
#939=(
MASS_UNIT()
NAMED_UNIT(*)
SI_UNIT(.KILO.,.GRAM.)
);
#940=DERIVED_UNIT((#937,#938));
#941=MEASURE_REPRESENTATION_ITEM('density measure',
POSITIVE_RATIO_MEASURE(7850.),#940);
#942=PROPERTY_DEFINITION_REPRESENTATION(#947,#944);
#943=PROPERTY_DEFINITION_REPRESENTATION(#948,#945);
#944=REPRESENTATION('material name',(#946),#1626);
#945=REPRESENTATION('density',(#941),#1626);
#946=DESCRIPTIVE_REPRESENTATION_ITEM('Steel','Steel');
#947=PROPERTY_DEFINITION('material property','material name',#1636);
#948=PROPERTY_DEFINITION('material property','density of part',#1636);
#949=AXIS2_PLACEMENT_3D('',#1330,#1049,#1050);
#950=AXIS2_PLACEMENT_3D('',#1331,#1051,#1052);
#951=AXIS2_PLACEMENT_3D('',#1333,#1053,#1054);
#952=AXIS2_PLACEMENT_3D('',#1335,#1055,#1056);
#953=AXIS2_PLACEMENT_3D('',#1337,#1057,#1058);
#954=AXIS2_PLACEMENT_3D('',#1338,#1059,#1060);
#955=AXIS2_PLACEMENT_3D('',#1339,#1061,#1062);
#956=AXIS2_PLACEMENT_3D('',#1342,#1064,#1065);
#957=AXIS2_PLACEMENT_3D('',#1343,#1066,#1067);
#958=AXIS2_PLACEMENT_3D('',#1344,#1068,#1069);
#959=AXIS2_PLACEMENT_3D('',#1346,#1070,#1071);
#960=AXIS2_PLACEMENT_3D('',#1348,#1072,#1073);
#961=AXIS2_PLACEMENT_3D('',#1350,#1074,#1075);
#962=AXIS2_PLACEMENT_3D('',#1351,#1076,#1077);
#963=AXIS2_PLACEMENT_3D('',#1352,#1078,#1079);
#964=AXIS2_PLACEMENT_3D('',#1355,#1081,#1082);
#965=AXIS2_PLACEMENT_3D('',#1356,#1083,#1084);
#966=AXIS2_PLACEMENT_3D('',#1385,#1085,#1086);
#967=AXIS2_PLACEMENT_3D('',#1387,#1087,#1088);
#968=AXIS2_PLACEMENT_3D('',#1389,#1089,#1090);
#969=AXIS2_PLACEMENT_3D('',#1390,#1091,#1092);
#970=AXIS2_PLACEMENT_3D('',#1391,#1093,#1094);
#971=AXIS2_PLACEMENT_3D('',#1394,#1096,#1097);
#972=AXIS2_PLACEMENT_3D('',#1395,#1098,#1099);
#973=AXIS2_PLACEMENT_3D('',#1396,#1100,#1101);
#974=AXIS2_PLACEMENT_3D('',#1398,#1102,#1103);
#975=AXIS2_PLACEMENT_3D('',#1400,#1104,#1105);
#976=AXIS2_PLACEMENT_3D('',#1402,#1106,#1107);
#977=AXIS2_PLACEMENT_3D('',#1403,#1108,#1109);
#978=AXIS2_PLACEMENT_3D('',#1404,#1110,#1111);
#979=AXIS2_PLACEMENT_3D('',#1407,#1113,#1114);
#980=AXIS2_PLACEMENT_3D('',#1408,#1115,#1116);
#981=AXIS2_PLACEMENT_3D('',#1409,#1117,#1118);
#982=AXIS2_PLACEMENT_3D('',#1411,#1119,#1120);
#983=AXIS2_PLACEMENT_3D('',#1413,#1121,#1122);
#984=AXIS2_PLACEMENT_3D('',#1415,#1123,#1124);
#985=AXIS2_PLACEMENT_3D('',#1416,#1125,#1126);
#986=AXIS2_PLACEMENT_3D('',#1417,#1127,#1128);
#987=AXIS2_PLACEMENT_3D('',#1420,#1130,#1131);
#988=AXIS2_PLACEMENT_3D('',#1421,#1132,#1133);
#989=AXIS2_PLACEMENT_3D('',#1422,#1134,#1135);
#990=AXIS2_PLACEMENT_3D('',#1425,#1136,#1137);
#991=AXIS2_PLACEMENT_3D('',#1427,#1138,#1139);
#992=AXIS2_PLACEMENT_3D('',#1428,#1140,#1141);
#993=AXIS2_PLACEMENT_3D('',#1429,#1142,#1143);
#994=AXIS2_PLACEMENT_3D('',#1433,#1145,#1146);
#995=AXIS2_PLACEMENT_3D('',#1435,#1148,#1149);
#996=AXIS2_PLACEMENT_3D('',#1439,#1151,#1152);
#997=AXIS2_PLACEMENT_3D('',#1441,#1154,#1155);
#998=AXIS2_PLACEMENT_3D('',#1443,#1156,#1157);
#999=AXIS2_PLACEMENT_3D('',#1444,#1158,#1159);
#1000=AXIS2_PLACEMENT_3D('',#1445,#1160,#1161);
#1001=AXIS2_PLACEMENT_3D('',#1449,#1163,#1164);
#1002=AXIS2_PLACEMENT_3D('',#1451,#1166,#1167);
#1003=AXIS2_PLACEMENT_3D('',#1455,#1169,#1170);
#1004=AXIS2_PLACEMENT_3D('',#1459,#1172,#1173);
#1005=AXIS2_PLACEMENT_3D('',#1463,#1175,#1176);
#1006=AXIS2_PLACEMENT_3D('',#1467,#1178,#1179);
#1007=AXIS2_PLACEMENT_3D('',#1489,#1190,#1191);
#1008=AXIS2_PLACEMENT_3D('',#1493,#1193,#1194);
#1009=AXIS2_PLACEMENT_3D('',#1497,#1196,#1197);
#1010=AXIS2_PLACEMENT_3D('',#1500,#1199,#1200);
#1011=AXIS2_PLACEMENT_3D('',#1509,#1205,#1206);
#1012=AXIS2_PLACEMENT_3D('',#1511,#1208,#1209);
#1013=AXIS2_PLACEMENT_3D('',#1517,#1213,#1214);
#1014=AXIS2_PLACEMENT_3D('',#1521,#1217,#1218);
#1015=AXIS2_PLACEMENT_3D('',#1525,#1221,#1222);
#1016=AXIS2_PLACEMENT_3D('',#1527,#1224,#1225);
#1017=AXIS2_PLACEMENT_3D('',#1533,#1229,#1230);
#1018=AXIS2_PLACEMENT_3D('',#1535,#1231,#1232);
#1019=AXIS2_PLACEMENT_3D('',#1537,#1234,#1235);
#1020=AXIS2_PLACEMENT_3D('',#1541,#1238,#1239);
#1021=AXIS2_PLACEMENT_3D('',#1543,#1240,#1241);
#1022=AXIS2_PLACEMENT_3D('',#1545,#1243,#1244);
#1023=AXIS2_PLACEMENT_3D('',#1549,#1247,#1248);
#1024=AXIS2_PLACEMENT_3D('',#1551,#1249,#1250);
#1025=AXIS2_PLACEMENT_3D('',#1553,#1252,#1253);
#1026=AXIS2_PLACEMENT_3D('',#1557,#1256,#1257);
#1027=AXIS2_PLACEMENT_3D('',#1558,#1258,#1259);
#1028=AXIS2_PLACEMENT_3D('',#1559,#1260,#1261);
#1029=AXIS2_PLACEMENT_3D('',#1565,#1265,#1266);
#1030=AXIS2_PLACEMENT_3D('',#1569,#1269,#1270);
#1031=AXIS2_PLACEMENT_3D('',#1573,#1273,#1274);
#1032=AXIS2_PLACEMENT_3D('',#1575,#1276,#1277);
#1033=AXIS2_PLACEMENT_3D('',#1581,#1281,#1282);
#1034=AXIS2_PLACEMENT_3D('',#1585,#1285,#1286);
#1035=AXIS2_PLACEMENT_3D('',#1589,#1289,#1290);
#1036=AXIS2_PLACEMENT_3D('',#1591,#1292,#1293);
#1037=AXIS2_PLACEMENT_3D('',#1595,#1295,#1296);
#1038=AXIS2_PLACEMENT_3D('',#1597,#1298,#1299);
#1039=AXIS2_PLACEMENT_3D('',#1601,#1302,#1303);
#1040=AXIS2_PLACEMENT_3D('',#1603,#1304,#1305);
#1041=AXIS2_PLACEMENT_3D('',#1605,#1307,#1308);
#1042=AXIS2_PLACEMENT_3D('',#1609,#1311,#1312);
#1043=AXIS2_PLACEMENT_3D('',#1611,#1313,#1314);
#1044=AXIS2_PLACEMENT_3D('',#1613,#1316,#1317);
#1045=AXIS2_PLACEMENT_3D('',#1617,#1320,#1321);
#1046=AXIS2_PLACEMENT_3D('',#1619,#1322,#1323);
#1047=AXIS2_PLACEMENT_3D('',#1621,#1325,#1326);
#1048=AXIS2_PLACEMENT_3D('',#1623,#1328,#1329);
#1049=DIRECTION('axis',(0.,0.,1.));
#1050=DIRECTION('refdir',(1.,0.,0.));
#1051=DIRECTION('center_axis',(0.,1.,0.));
#1052=DIRECTION('ref_axis',(0.,0.,1.));
#1053=DIRECTION('center_axis',(0.,-1.,0.));
#1054=DIRECTION('ref_axis',(-1.,0.,0.));
#1055=DIRECTION('center_axis',(-1.,0.,0.));
#1056=DIRECTION('ref_axis',(0.,0.,-1.));
#1057=DIRECTION('center_axis',(0.,1.,0.));
#1058=DIRECTION('ref_axis',(-1.,0.,0.));
#1059=DIRECTION('center_axis',(0.,1.,0.));
#1060=DIRECTION('ref_axis',(-1.,0.,0.));
#1061=DIRECTION('center_axis',(0.,1.,0.));
#1062=DIRECTION('ref_axis',(-1.,0.,0.));
#1063=DIRECTION('',(0.,-1.,0.));
#1064=DIRECTION('center_axis',(0.,-1.,0.));
#1065=DIRECTION('ref_axis',(-1.,0.,0.));
#1066=DIRECTION('center_axis',(0.,1.,0.));
#1067=DIRECTION('ref_axis',(-1.,0.,0.));
#1068=DIRECTION('center_axis',(0.,1.,0.));
#1069=DIRECTION('ref_axis',(0.,0.,1.));
#1070=DIRECTION('center_axis',(0.,-1.,0.));
#1071=DIRECTION('ref_axis',(-1.,0.,0.));
#1072=DIRECTION('center_axis',(-1.,0.,0.));
#1073=DIRECTION('ref_axis',(0.,0.,-1.));
#1074=DIRECTION('center_axis',(0.,1.,0.));
#1075=DIRECTION('ref_axis',(-1.,0.,0.));
#1076=DIRECTION('center_axis',(0.,1.,0.));
#1077=DIRECTION('ref_axis',(-1.,0.,0.));
#1078=DIRECTION('center_axis',(0.,1.,0.));
#1079=DIRECTION('ref_axis',(-1.,0.,0.));
#1080=DIRECTION('',(0.,-1.,0.));
#1081=DIRECTION('center_axis',(0.,-1.,0.));
#1082=DIRECTION('ref_axis',(-1.,0.,0.));
#1083=DIRECTION('center_axis',(0.,1.,0.));
#1084=DIRECTION('ref_axis',(-1.,0.,0.));
#1085=DIRECTION('center_axis',(0.,-1.,0.));
#1086=DIRECTION('ref_axis',(-1.,0.,0.));
#1087=DIRECTION('center_axis',(-1.,0.,0.));
#1088=DIRECTION('ref_axis',(0.,0.,-1.));
#1089=DIRECTION('center_axis',(0.,1.,0.));
#1090=DIRECTION('ref_axis',(-1.,0.,0.));
#1091=DIRECTION('center_axis',(0.,1.,0.));
#1092=DIRECTION('ref_axis',(-1.,0.,0.));
#1093=DIRECTION('center_axis',(0.,1.,0.));
#1094=DIRECTION('ref_axis',(-1.,0.,0.));
#1095=DIRECTION('',(0.,-1.,0.));
#1096=DIRECTION('center_axis',(0.,-1.,0.));
#1097=DIRECTION('ref_axis',(-1.,0.,0.));
#1098=DIRECTION('center_axis',(0.,1.,0.));
#1099=DIRECTION('ref_axis',(-1.,0.,0.));
#1100=DIRECTION('center_axis',(0.,1.,0.));
#1101=DIRECTION('ref_axis',(0.,0.,1.));
#1102=DIRECTION('center_axis',(0.,-1.,0.));
#1103=DIRECTION('ref_axis',(-1.,0.,0.));
#1104=DIRECTION('center_axis',(-1.,0.,0.));
#1105=DIRECTION('ref_axis',(0.,0.,-1.));
#1106=DIRECTION('center_axis',(0.,1.,0.));
#1107=DIRECTION('ref_axis',(-1.,0.,0.));
#1108=DIRECTION('center_axis',(0.,1.,0.));
#1109=DIRECTION('ref_axis',(-1.,0.,0.));
#1110=DIRECTION('center_axis',(0.,1.,0.));
#1111=DIRECTION('ref_axis',(-1.,0.,0.));
#1112=DIRECTION('',(0.,-1.,0.));
#1113=DIRECTION('center_axis',(0.,-1.,0.));
#1114=DIRECTION('ref_axis',(-1.,0.,0.));
#1115=DIRECTION('center_axis',(0.,1.,0.));
#1116=DIRECTION('ref_axis',(-1.,0.,0.));
#1117=DIRECTION('center_axis',(0.,1.,0.));
#1118=DIRECTION('ref_axis',(0.,0.,1.));
#1119=DIRECTION('center_axis',(0.,-1.,0.));
#1120=DIRECTION('ref_axis',(-1.,0.,0.));
#1121=DIRECTION('center_axis',(-1.,0.,0.));
#1122=DIRECTION('ref_axis',(0.,0.,-1.));
#1123=DIRECTION('center_axis',(0.,1.,0.));
#1124=DIRECTION('ref_axis',(-1.,0.,0.));
#1125=DIRECTION('center_axis',(0.,1.,0.));
#1126=DIRECTION('ref_axis',(-1.,0.,0.));
#1127=DIRECTION('center_axis',(0.,1.,0.));
#1128=DIRECTION('ref_axis',(-1.,0.,0.));
#1129=DIRECTION('',(0.,-1.,0.));
#1130=DIRECTION('center_axis',(0.,-1.,0.));
#1131=DIRECTION('ref_axis',(-1.,0.,0.));
#1132=DIRECTION('center_axis',(0.,1.,0.));
#1133=DIRECTION('ref_axis',(-1.,0.,0.));
#1134=DIRECTION('center_axis',(0.,0.,1.));
#1135=DIRECTION('ref_axis',(1.,0.,0.));
#1136=DIRECTION('center_axis',(0.,-1.,0.));
#1137=DIRECTION('ref_axis',(0.,0.,-1.));
#1138=DIRECTION('center_axis',(1.,0.,0.));
#1139=DIRECTION('ref_axis',(0.,-0.21875,0.97578093724975));
#1140=DIRECTION('center_axis',(0.,0.,1.));
#1141=DIRECTION('ref_axis',(0.975780937249749,-0.218750000000001,0.));
#1142=DIRECTION('center_axis',(0.,0.,-1.));
#1143=DIRECTION('ref_axis',(0.975780937249749,-0.218750000000001,0.));
#1144=DIRECTION('',(0.,0.,-1.));
#1145=DIRECTION('center_axis',(0.,0.,1.));
#1146=DIRECTION('ref_axis',(0.975780937249749,-0.218750000000001,0.));
#1147=DIRECTION('',(0.,0.,-1.));
#1148=DIRECTION('center_axis',(1.,0.,0.));
#1149=DIRECTION('ref_axis',(0.,-0.21875,0.97578093724975));
#1150=DIRECTION('',(1.,0.,0.));
#1151=DIRECTION('center_axis',(-1.,0.,0.));
#1152=DIRECTION('ref_axis',(0.,-0.21875,0.97578093724975));
#1153=DIRECTION('',(1.,0.,0.));
#1154=DIRECTION('center_axis',(0.,0.,1.));
#1155=DIRECTION('ref_axis',(1.,0.,0.));
#1156=DIRECTION('center_axis',(0.,-1.,0.));
#1157=DIRECTION('ref_axis',(0.,0.,-1.));
#1158=DIRECTION('center_axis',(0.,0.,1.));
#1159=DIRECTION('ref_axis',(-0.97578093724975,-0.21875,0.));
#1160=DIRECTION('center_axis',(0.,0.,1.));
#1161=DIRECTION('ref_axis',(-0.97578093724975,-0.21875,0.));
#1162=DIRECTION('',(0.,0.,1.));
#1163=DIRECTION('center_axis',(0.,0.,1.));
#1164=DIRECTION('ref_axis',(-0.97578093724975,-0.21875,0.));
#1165=DIRECTION('',(0.,0.,1.));
#1166=DIRECTION('center_axis',(0.,1.,0.));
#1167=DIRECTION('ref_axis',(1.,0.,0.));
#1168=DIRECTION('',(1.,0.,0.));
#1169=DIRECTION('center_axis',(0.,-1.,0.));
#1170=DIRECTION('ref_axis',(1.,0.,-6.07153216591878E-15));
#1171=DIRECTION('',(1.,0.,-3.48032296120739E-16));
#1172=DIRECTION('center_axis',(0.,-1.,0.));
#1173=DIRECTION('ref_axis',(0.,0.,-1.));
#1174=DIRECTION('',(0.,0.,-1.));
#1175=DIRECTION('center_axis',(0.,-1.,0.));
#1176=DIRECTION('ref_axis',(-1.,0.,5.20417042793038E-15));
#1177=DIRECTION('',(-1.,0.,0.));
#1178=DIRECTION('center_axis',(0.,-1.,0.));
#1179=DIRECTION('ref_axis',(6.93889390390719E-15,0.,1.));
#1180=DIRECTION('',(0.,0.,1.));
#1181=DIRECTION('',(-1.,0.,0.));
#1182=DIRECTION('',(0.,0.,1.));
#1183=DIRECTION('',(1.,0.,0.));
#1184=DIRECTION('',(0.,0.,-1.));
#1185=DIRECTION('',(-1.,0.,0.));
#1186=DIRECTION('',(0.,0.,1.));
#1187=DIRECTION('',(1.,0.,0.));
#1188=DIRECTION('',(0.,0.,-1.));
#1189=DIRECTION('',(-1.,0.,0.));
#1190=DIRECTION('center_axis',(0.,-1.,0.));
#1191=DIRECTION('ref_axis',(6.93889390390719E-15,0.,1.));
#1192=DIRECTION('',(0.,0.,1.));
#1193=DIRECTION('center_axis',(0.,-1.,0.));
#1194=DIRECTION('ref_axis',(1.,0.,-6.07153216591878E-15));
#1195=DIRECTION('',(1.,0.,-3.48032296120739E-16));
#1196=DIRECTION('center_axis',(0.,-1.,0.));
#1197=DIRECTION('ref_axis',(0.,0.,-1.));
#1198=DIRECTION('',(0.,0.,-1.));
#1199=DIRECTION('center_axis',(0.,-1.,0.));
#1200=DIRECTION('ref_axis',(-1.,0.,5.20417042793038E-15));
#1201=DIRECTION('',(0.,0.,1.));
#1202=DIRECTION('',(1.,0.,0.));
#1203=DIRECTION('',(0.,0.,-1.));
#1204=DIRECTION('',(-1.,0.,0.));
#1205=DIRECTION('center_axis',(0.,0.,-1.));
#1206=DIRECTION('ref_axis',(-1.,0.,0.));
#1207=DIRECTION('',(-1.,0.,0.));
#1208=DIRECTION('center_axis',(-1.,0.,0.));
#1209=DIRECTION('ref_axis',(0.,0.,1.));
#1210=DIRECTION('',(0.,1.,0.));
#1211=DIRECTION('',(0.,0.,-1.));
#1212=DIRECTION('',(0.,1.,0.));
#1213=DIRECTION('center_axis',(0.,0.,-1.));
#1214=DIRECTION('ref_axis',(-1.,0.,0.));
#1215=DIRECTION('',(0.,1.,0.));
#1216=DIRECTION('',(1.,0.,0.));
#1217=DIRECTION('center_axis',(1.,0.,0.));
#1218=DIRECTION('ref_axis',(0.,0.,-1.));
#1219=DIRECTION('',(0.,1.,0.));
#1220=DIRECTION('',(0.,0.,1.));
#1221=DIRECTION('center_axis',(0.,0.,1.));
#1222=DIRECTION('ref_axis',(1.,0.,0.));
#1223=DIRECTION('',(-1.,0.,0.));
#1224=DIRECTION('center_axis',(3.48032296120739E-16,0.,1.));
#1225=DIRECTION('ref_axis',(1.,0.,-3.48032296120739E-16));
#1226=DIRECTION('',(0.,1.,0.));
#1227=DIRECTION('',(1.,0.,-3.48032296120739E-16));
#1228=DIRECTION('',(0.,1.,0.));
#1229=DIRECTION('center_axis',(0.,1.,0.));
#1230=DIRECTION('ref_axis',(0.,0.,-1.));
#1231=DIRECTION('center_axis',(0.,-1.,0.));
#1232=DIRECTION('ref_axis',(0.,0.,-1.));
#1233=DIRECTION('',(0.,1.,0.));
#1234=DIRECTION('center_axis',(1.,0.,0.));
#1235=DIRECTION('ref_axis',(0.,0.,-1.));
#1236=DIRECTION('',(0.,0.,-1.));
#1237=DIRECTION('',(0.,1.,0.));
#1238=DIRECTION('center_axis',(0.,1.,0.));
#1239=DIRECTION('ref_axis',(-1.,0.,5.20417042793038E-15));
#1240=DIRECTION('center_axis',(0.,-1.,0.));
#1241=DIRECTION('ref_axis',(-1.,0.,5.20417042793038E-15));
#1242=DIRECTION('',(0.,1.,0.));
#1243=DIRECTION('center_axis',(0.,0.,-1.));
#1244=DIRECTION('ref_axis',(-1.,0.,0.));
#1245=DIRECTION('',(-1.,0.,0.));
#1246=DIRECTION('',(0.,1.,0.));
#1247=DIRECTION('center_axis',(0.,1.,0.));
#1248=DIRECTION('ref_axis',(6.93889390390719E-15,0.,1.));
#1249=DIRECTION('center_axis',(0.,-1.,0.));
#1250=DIRECTION('ref_axis',(6.93889390390719E-15,0.,1.));
#1251=DIRECTION('',(0.,1.,0.));
#1252=DIRECTION('center_axis',(-1.,0.,0.));
#1253=DIRECTION('ref_axis',(0.,0.,1.));
#1254=DIRECTION('',(0.,0.,1.));
#1255=DIRECTION('',(0.,1.,0.));
#1256=DIRECTION('center_axis',(0.,1.,0.));
#1257=DIRECTION('ref_axis',(1.,0.,-6.07153216591878E-15));
#1258=DIRECTION('center_axis',(0.,-1.,0.));
#1259=DIRECTION('ref_axis',(1.,0.,-6.07153216591878E-15));
#1260=DIRECTION('center_axis',(-1.,0.,0.));
#1261=DIRECTION('ref_axis',(0.,0.,1.));
#1262=DIRECTION('',(0.,1.,0.));
#1263=DIRECTION('',(0.,0.,1.));
#1264=DIRECTION('',(0.,1.,0.));
#1265=DIRECTION('center_axis',(0.,0.,1.));
#1266=DIRECTION('ref_axis',(1.,0.,0.));
#1267=DIRECTION('',(1.,0.,0.));
#1268=DIRECTION('',(0.,1.,0.));
#1269=DIRECTION('center_axis',(1.,0.,0.));
#1270=DIRECTION('ref_axis',(0.,0.,-1.));
#1271=DIRECTION('',(0.,0.,-1.));
#1272=DIRECTION('',(0.,1.,0.));
#1273=DIRECTION('center_axis',(0.,0.,-1.));
#1274=DIRECTION('ref_axis',(-1.,0.,0.));
#1275=DIRECTION('',(-1.,0.,0.));
#1276=DIRECTION('center_axis',(-1.,0.,0.));
#1277=DIRECTION('ref_axis',(0.,0.,1.));
#1278=DIRECTION('',(0.,1.,0.));
#1279=DIRECTION('',(0.,0.,1.));
#1280=DIRECTION('',(0.,1.,0.));
#1281=DIRECTION('center_axis',(0.,0.,1.));
#1282=DIRECTION('ref_axis',(1.,0.,0.));
#1283=DIRECTION('',(1.,0.,0.));
#1284=DIRECTION('',(0.,1.,0.));
#1285=DIRECTION('center_axis',(1.,0.,0.));
#1286=DIRECTION('ref_axis',(0.,0.,-1.));
#1287=DIRECTION('',(0.,0.,-1.));
#1288=DIRECTION('',(0.,1.,0.));
#1289=DIRECTION('center_axis',(0.,0.,-1.));
#1290=DIRECTION('ref_axis',(-1.,0.,0.));
#1291=DIRECTION('',(-1.,0.,0.));
#1292=DIRECTION('center_axis',(0.,1.,0.));
#1293=DIRECTION('ref_axis',(6.93889390390719E-15,0.,1.));
#1294=DIRECTION('',(0.,1.,0.));
#1295=DIRECTION('center_axis',(0.,-1.,0.));
#1296=DIRECTION('ref_axis',(6.93889390390719E-15,0.,1.));
#1297=DIRECTION('',(0.,1.,0.));
#1298=DIRECTION('center_axis',(-1.,0.,0.));
#1299=DIRECTION('ref_axis',(0.,0.,1.));
#1300=DIRECTION('',(0.,0.,1.));
#1301=DIRECTION('',(0.,1.,0.));
#1302=DIRECTION('center_axis',(0.,1.,0.));
#1303=DIRECTION('ref_axis',(1.,0.,-6.07153216591878E-15));
#1304=DIRECTION('center_axis',(0.,-1.,0.));
#1305=DIRECTION('ref_axis',(1.,0.,-6.07153216591878E-15));
#1306=DIRECTION('',(0.,1.,0.));
#1307=DIRECTION('center_axis',(3.48032296120739E-16,0.,1.));
#1308=DIRECTION('ref_axis',(1.,0.,-3.48032296120739E-16));
#1309=DIRECTION('',(1.,0.,-3.48032296120739E-16));
#1310=DIRECTION('',(0.,1.,0.));
#1311=DIRECTION('center_axis',(0.,1.,0.));
#1312=DIRECTION('ref_axis',(0.,0.,-1.));
#1313=DIRECTION('center_axis',(0.,-1.,0.));
#1314=DIRECTION('ref_axis',(0.,0.,-1.));
#1315=DIRECTION('',(0.,1.,0.));
#1316=DIRECTION('center_axis',(1.,0.,0.));
#1317=DIRECTION('ref_axis',(0.,0.,-1.));
#1318=DIRECTION('',(0.,0.,-1.));
#1319=DIRECTION('',(0.,1.,0.));
#1320=DIRECTION('center_axis',(0.,1.,0.));
#1321=DIRECTION('ref_axis',(-1.,0.,5.20417042793038E-15));
#1322=DIRECTION('center_axis',(0.,-1.,0.));
#1323=DIRECTION('ref_axis',(-1.,0.,5.20417042793038E-15));
#1324=DIRECTION('',(0.,1.,0.));
#1325=DIRECTION('center_axis',(0.,0.,-1.));
#1326=DIRECTION('ref_axis',(-1.,0.,0.));
#1327=DIRECTION('',(-1.,0.,0.));
#1328=DIRECTION('center_axis',(0.,1.,0.));
#1329=DIRECTION('ref_axis',(1.,0.,0.));
#1330=CARTESIAN_POINT('',(0.,0.,0.));
#1331=CARTESIAN_POINT('Origin',(3.,1.8,2.5));
#1332=CARTESIAN_POINT('',(3.,2.2,1.875));
#1333=CARTESIAN_POINT('Origin',(3.,2.2,2.5));
#1334=CARTESIAN_POINT('',(3.,1.8,1.475));
#1335=CARTESIAN_POINT('Origin',(3.,1.8,1.875));
#1336=CARTESIAN_POINT('',(4.025,1.8,2.5));
#1337=CARTESIAN_POINT('Origin',(3.,1.8,2.5));
#1338=CARTESIAN_POINT('Origin',(3.,1.8,2.5));
#1339=CARTESIAN_POINT('Origin',(3.,1.,2.5));
#1340=CARTESIAN_POINT('',(4.025,1.,2.5));
#1341=CARTESIAN_POINT('',(4.025,1.,2.5));
#1342=CARTESIAN_POINT('Origin',(3.,1.,2.5));
#1343=CARTESIAN_POINT('Origin',(3.,2.2,2.5));
#1344=CARTESIAN_POINT('Origin',(2.5,1.8,14.));
#1345=CARTESIAN_POINT('',(2.5,2.2,13.375));
#1346=CARTESIAN_POINT('Origin',(2.5,2.2,14.));
#1347=CARTESIAN_POINT('',(2.5,1.8,12.975));
#1348=CARTESIAN_POINT('Origin',(2.5,1.8,13.375));
#1349=CARTESIAN_POINT('',(3.525,1.8,14.));
#1350=CARTESIAN_POINT('Origin',(2.5,1.8,14.));
#1351=CARTESIAN_POINT('Origin',(2.5,1.8,14.));
#1352=CARTESIAN_POINT('Origin',(2.5,1.,14.));
#1353=CARTESIAN_POINT('',(3.525,1.,14.));
#1354=CARTESIAN_POINT('',(3.525,1.,14.));
#1355=CARTESIAN_POINT('Origin',(2.5,1.,14.));
#1356=CARTESIAN_POINT('Origin',(2.5,2.2,14.));
#1357=CARTESIAN_POINT('Ctrl Pts',(52.,1.8,22.5));
#1358=CARTESIAN_POINT('Ctrl Pts',(51.5,1.8,22.5));
#1359=CARTESIAN_POINT('Ctrl Pts',(51.5,1.8,23.));
#1360=CARTESIAN_POINT('Ctrl Pts',(51.5,1.8,23.5));
#1361=CARTESIAN_POINT('Ctrl Pts',(52.,1.8,23.5));
#1362=CARTESIAN_POINT('Ctrl Pts',(52.5,1.8,23.5));
#1363=CARTESIAN_POINT('Ctrl Pts',(52.5,1.8,23.));
#1364=CARTESIAN_POINT('Ctrl Pts',(52.5,1.8,22.5));
#1365=CARTESIAN_POINT('Ctrl Pts',(52.,1.8,22.5));
#1366=CARTESIAN_POINT('Ctrl Pts',(52.,2.2,22.5));
#1367=CARTESIAN_POINT('Ctrl Pts',(51.5,2.2,22.5));
#1368=CARTESIAN_POINT('Ctrl Pts',(51.5,2.2,23.));
#1369=CARTESIAN_POINT('Ctrl Pts',(51.5,2.2,23.5));
#1370=CARTESIAN_POINT('Ctrl Pts',(52.,2.2,23.5));
#1371=CARTESIAN_POINT('Ctrl Pts',(52.5,2.2,23.5));
#1372=CARTESIAN_POINT('Ctrl Pts',(52.5,2.2,23.));
#1373=CARTESIAN_POINT('Ctrl Pts',(52.5,2.2,22.5));
#1374=CARTESIAN_POINT('Ctrl Pts',(52.,2.2,22.5));
#1375=CARTESIAN_POINT('Ctrl Pts',(52.,2.2,22.9));
#1376=CARTESIAN_POINT('Ctrl Pts',(51.9,2.2,22.9));
#1377=CARTESIAN_POINT('Ctrl Pts',(51.9,2.2,23.));
#1378=CARTESIAN_POINT('Ctrl Pts',(51.9,2.2,23.1));
#1379=CARTESIAN_POINT('Ctrl Pts',(52.,2.2,23.1));
#1380=CARTESIAN_POINT('Ctrl Pts',(52.1,2.2,23.1));
#1381=CARTESIAN_POINT('Ctrl Pts',(52.1,2.2,23.));
#1382=CARTESIAN_POINT('Ctrl Pts',(52.1,2.2,22.9));
#1383=CARTESIAN_POINT('Ctrl Pts',(52.,2.2,22.9));
#1384=CARTESIAN_POINT('',(52.,2.2,22.9));
#1385=CARTESIAN_POINT('Origin',(52.,2.2,23.));
#1386=CARTESIAN_POINT('',(52.,1.8,22.5));
#1387=CARTESIAN_POINT('Origin',(52.,1.8,22.9));
#1388=CARTESIAN_POINT('',(52.5,1.8,23.));
#1389=CARTESIAN_POINT('Origin',(52.,1.8,23.));
#1390=CARTESIAN_POINT('Origin',(52.,1.8,23.));
#1391=CARTESIAN_POINT('Origin',(52.,1.,23.));
#1392=CARTESIAN_POINT('',(52.5,1.,23.));
#1393=CARTESIAN_POINT('',(52.5,1.,23.));
#1394=CARTESIAN_POINT('Origin',(52.,1.,23.));
#1395=CARTESIAN_POINT('Origin',(52.,2.2,23.));
#1396=CARTESIAN_POINT('Origin',(102.,1.8,2.5));
#1397=CARTESIAN_POINT('',(102.,2.2,1.87500000000001));
#1398=CARTESIAN_POINT('Origin',(102.,2.2,2.5));
#1399=CARTESIAN_POINT('',(102.,1.8,1.47500000000001));
#1400=CARTESIAN_POINT('Origin',(102.,1.8,1.87500000000001));
#1401=CARTESIAN_POINT('',(103.025,1.8,2.5));
#1402=CARTESIAN_POINT('Origin',(102.,1.8,2.5));
#1403=CARTESIAN_POINT('Origin',(102.,1.8,2.5));
#1404=CARTESIAN_POINT('Origin',(102.,1.,2.5));
#1405=CARTESIAN_POINT('',(103.025,1.,2.5));
#1406=CARTESIAN_POINT('',(103.025,1.,2.5));
#1407=CARTESIAN_POINT('Origin',(102.,1.,2.5));
#1408=CARTESIAN_POINT('Origin',(102.,2.2,2.5));
#1409=CARTESIAN_POINT('Origin',(101.5,1.8,14.));
#1410=CARTESIAN_POINT('',(101.5,2.2,13.375));
#1411=CARTESIAN_POINT('Origin',(101.5,2.2,14.));
#1412=CARTESIAN_POINT('',(101.5,1.8,12.975));
#1413=CARTESIAN_POINT('Origin',(101.5,1.8,13.375));
#1414=CARTESIAN_POINT('',(102.525,1.8,14.));
#1415=CARTESIAN_POINT('Origin',(101.5,1.8,14.));
#1416=CARTESIAN_POINT('Origin',(101.5,1.8,14.));
#1417=CARTESIAN_POINT('Origin',(101.5,1.,14.));
#1418=CARTESIAN_POINT('',(102.525,1.,14.));
#1419=CARTESIAN_POINT('',(102.525,1.,14.));
#1420=CARTESIAN_POINT('Origin',(101.5,1.,14.));
#1421=CARTESIAN_POINT('Origin',(101.5,2.2,14.));
#1422=CARTESIAN_POINT('Origin',(102.75100040032,1.28,22.7510004003203));
#1423=CARTESIAN_POINT('',(104.,1.,22.7510004003203));
#1424=CARTESIAN_POINT('',(102.75100040032,1.,24.));
#1425=CARTESIAN_POINT('Origin',(102.75100040032,1.,22.7510004003203));
#1426=CARTESIAN_POINT('',(102.75100040032,0.,22.7510004003203));
#1427=CARTESIAN_POINT('Origin',(102.75100040032,1.28,22.7510004003203));
#1428=CARTESIAN_POINT('Origin',(102.75100040032,1.28,22.7510004003203));
#1429=CARTESIAN_POINT('Origin',(102.75100040032,1.28,0.));
#1430=CARTESIAN_POINT('',(102.75100040032,0.,0.));
#1431=CARTESIAN_POINT('',(102.75100040032,0.,0.));
#1432=CARTESIAN_POINT('',(104.,1.,0.));
#1433=CARTESIAN_POINT('Origin',(102.75100040032,1.28,0.));
#1434=CARTESIAN_POINT('',(104.,1.,0.));
#1435=CARTESIAN_POINT('Origin',(104.,1.28,22.7510004003203));
#1436=CARTESIAN_POINT('',(1.24899959967967,1.,24.));
#1437=CARTESIAN_POINT('',(104.,1.,24.));
#1438=CARTESIAN_POINT('',(1.24899959967967,0.,22.7510004003203));
#1439=CARTESIAN_POINT('Origin',(1.24899959967967,1.28,22.7510004003203));
#1440=CARTESIAN_POINT('',(104.,0.,22.7510004003203));
#1441=CARTESIAN_POINT('Origin',(1.24899959967968,1.28,22.7510004003203));
#1442=CARTESIAN_POINT('',(0.,1.,22.7510004003203));
#1443=CARTESIAN_POINT('Origin',(1.24899959967968,1.,22.7510004003203));
#1444=CARTESIAN_POINT('Origin',(1.24899959967968,1.28,22.7510004003203));
#1445=CARTESIAN_POINT('Origin',(1.24899959967968,1.28,24.));
#1446=CARTESIAN_POINT('',(0.,1.,0.));
#1447=CARTESIAN_POINT('',(0.,1.,24.));
#1448=CARTESIAN_POINT('',(1.24899959967968,0.,0.));
#1449=CARTESIAN_POINT('Origin',(1.24899959967968,1.28,0.));
#1450=CARTESIAN_POINT('',(1.24899959967968,0.,24.));
#1451=CARTESIAN_POINT('Origin',(52.,0.,12.));
#1452=CARTESIAN_POINT('',(0.,0.,0.));
#1453=CARTESIAN_POINT('',(65.753,0.,6.00000008940697));
#1454=CARTESIAN_POINT('',(67.033,0.,7.28000008940697));
#1455=CARTESIAN_POINT('Origin',(65.753,0.,7.28000008940698));
#1456=CARTESIAN_POINT('',(59.373,0.,6.00000008940697));
#1457=CARTESIAN_POINT('',(65.753,0.,6.00000008940697));
#1458=CARTESIAN_POINT('',(58.093,0.,7.28000008940697));
#1459=CARTESIAN_POINT('Origin',(59.373,0.,7.28000008940697));
#1460=CARTESIAN_POINT('',(58.093,0.,8.11500008940697));
#1461=CARTESIAN_POINT('',(58.093,0.,7.28000008940697));
#1462=CARTESIAN_POINT('',(59.373,0.,9.39500008940697));
#1463=CARTESIAN_POINT('Origin',(59.373,0.,8.11500008940696));
#1464=CARTESIAN_POINT('',(65.753,0.,9.39500008940697));
#1465=CARTESIAN_POINT('',(59.373,0.,9.39500008940697));
#1466=CARTESIAN_POINT('',(67.033,0.,8.11500008940697));
#1467=CARTESIAN_POINT('Origin',(65.753,0.,8.11500008940696));
#1468=CARTESIAN_POINT('',(67.033,0.,8.11500008940697));
#1469=CARTESIAN_POINT('',(94.208,0.,7.76500008940697));
#1470=CARTESIAN_POINT('',(81.361,0.,7.76500008940697));
#1471=CARTESIAN_POINT('',(94.208,0.,7.76500008940697));
#1472=CARTESIAN_POINT('',(94.208,0.,6.47500008940697));
#1473=CARTESIAN_POINT('',(94.208,0.,6.47500008940697));
#1474=CARTESIAN_POINT('',(81.361,0.,6.47500008940697));
#1475=CARTESIAN_POINT('',(81.361,0.,6.47500008940697));
#1476=CARTESIAN_POINT('',(81.361,0.,7.76500008940697));
#1477=CARTESIAN_POINT('',(38.251240604501,0.,20.745));
#1478=CARTESIAN_POINT('',(25.111240604501,0.,20.745));
#1479=CARTESIAN_POINT('',(38.251240604501,0.,20.745));
#1480=CARTESIAN_POINT('',(38.251240604501,0.,6.485));
#1481=CARTESIAN_POINT('',(38.251240604501,0.,6.485));
#1482=CARTESIAN_POINT('',(25.111240604501,0.,6.485));
#1483=CARTESIAN_POINT('',(25.111240604501,0.,6.485));
#1484=CARTESIAN_POINT('',(25.111240604501,0.,20.745));
#1485=CARTESIAN_POINT('',(77.214,0.,9.39500008940697));
#1486=CARTESIAN_POINT('',(70.834,0.,9.39500008940697));
#1487=CARTESIAN_POINT('',(70.834,0.,9.39500008940697));
#1488=CARTESIAN_POINT('',(78.494,0.,8.11500008940697));
#1489=CARTESIAN_POINT('Origin',(77.214,0.,8.11500008940696));
#1490=CARTESIAN_POINT('',(78.494,0.,7.28000008940697));
#1491=CARTESIAN_POINT('',(78.494,0.,8.11500008940697));
#1492=CARTESIAN_POINT('',(77.214,0.,6.00000008940697));
#1493=CARTESIAN_POINT('Origin',(77.214,0.,7.28000008940698));
#1494=CARTESIAN_POINT('',(70.834,0.,6.00000008940697));
#1495=CARTESIAN_POINT('',(77.214,0.,6.00000008940697));
#1496=CARTESIAN_POINT('',(69.554,0.,7.28000008940697));
#1497=CARTESIAN_POINT('Origin',(70.834,0.,7.28000008940697));
#1498=CARTESIAN_POINT('',(69.554,0.,8.11500008940697));
#1499=CARTESIAN_POINT('',(69.554,0.,7.28000008940697));
#1500=CARTESIAN_POINT('Origin',(70.834,0.,8.11500008940696));
#1501=CARTESIAN_POINT('',(42.462000372529,0.,7.117));
#1502=CARTESIAN_POINT('',(42.462000372529,0.,12.873));
#1503=CARTESIAN_POINT('',(42.462000372529,0.,9.5585));
#1504=CARTESIAN_POINT('',(55.592000372529,0.,12.873));
#1505=CARTESIAN_POINT('',(47.2310001862645,0.,12.873));
#1506=CARTESIAN_POINT('',(55.592000372529,0.,7.117));
#1507=CARTESIAN_POINT('',(55.592000372529,0.,12.4365));
#1508=CARTESIAN_POINT('',(53.7960001862645,0.,7.117));
#1509=CARTESIAN_POINT('Origin',(104.,0.,0.));
#1510=CARTESIAN_POINT('',(0.,1.,0.));
#1511=CARTESIAN_POINT('Origin',(42.462000372529,0.,7.117));
#1512=CARTESIAN_POINT('',(42.462000372529,1.,7.117));
#1513=CARTESIAN_POINT('',(42.462000372529,0.,7.117));
#1514=CARTESIAN_POINT('',(42.462000372529,1.,12.873));
#1515=CARTESIAN_POINT('',(42.462000372529,1.,9.5585));
#1516=CARTESIAN_POINT('',(42.462000372529,0.,12.873));
#1517=CARTESIAN_POINT('Origin',(55.592000372529,0.,7.117));
#1518=CARTESIAN_POINT('',(55.592000372529,1.,7.117));
#1519=CARTESIAN_POINT('',(55.592000372529,0.,7.117));
#1520=CARTESIAN_POINT('',(53.7960001862645,1.,7.117));
#1521=CARTESIAN_POINT('Origin',(55.592000372529,0.,12.873));
#1522=CARTESIAN_POINT('',(55.592000372529,1.,12.873));
#1523=CARTESIAN_POINT('',(55.592000372529,0.,12.873));
#1524=CARTESIAN_POINT('',(55.592000372529,1.,12.4365));
#1525=CARTESIAN_POINT('Origin',(42.462000372529,0.,12.873));
#1526=CARTESIAN_POINT('',(47.2310001862645,1.,12.873));
#1527=CARTESIAN_POINT('Origin',(59.373,0.,6.00000008940697));
#1528=CARTESIAN_POINT('',(65.753,1.,6.00000008940697));
#1529=CARTESIAN_POINT('',(65.753,0.,6.00000008940697));
#1530=CARTESIAN_POINT('',(59.373,1.,6.00000008940697));
#1531=CARTESIAN_POINT('',(65.753,1.,6.00000008940697));
#1532=CARTESIAN_POINT('',(59.373,0.,6.00000008940697));
#1533=CARTESIAN_POINT('Origin',(59.373,0.,7.28000008940697));
#1534=CARTESIAN_POINT('',(58.093,1.,7.28000008940697));
#1535=CARTESIAN_POINT('Origin',(59.373,1.,7.28000008940697));
#1536=CARTESIAN_POINT('',(58.093,0.,7.28000008940697));
#1537=CARTESIAN_POINT('Origin',(58.093,0.,8.11500008940697));
#1538=CARTESIAN_POINT('',(58.093,1.,8.11500008940697));
#1539=CARTESIAN_POINT('',(58.093,1.,7.28000008940697));
#1540=CARTESIAN_POINT('',(58.093,0.,8.11500008940697));
#1541=CARTESIAN_POINT('Origin',(59.373,0.,8.11500008940696));
#1542=CARTESIAN_POINT('',(59.373,1.,9.39500008940697));
#1543=CARTESIAN_POINT('Origin',(59.373,1.,8.11500008940696));
#1544=CARTESIAN_POINT('',(59.373,0.,9.39500008940697));
#1545=CARTESIAN_POINT('Origin',(65.753,0.,9.39500008940697));
#1546=CARTESIAN_POINT('',(65.753,1.,9.39500008940697));
#1547=CARTESIAN_POINT('',(59.373,1.,9.39500008940697));
#1548=CARTESIAN_POINT('',(65.753,0.,9.39500008940697));
#1549=CARTESIAN_POINT('Origin',(65.753,0.,8.11500008940696));
#1550=CARTESIAN_POINT('',(67.033,1.,8.11500008940697));
#1551=CARTESIAN_POINT('Origin',(65.753,1.,8.11500008940696));
#1552=CARTESIAN_POINT('',(67.033,0.,8.11500008940697));
#1553=CARTESIAN_POINT('Origin',(67.033,0.,7.28000008940697));
#1554=CARTESIAN_POINT('',(67.033,1.,7.28000008940697));
#1555=CARTESIAN_POINT('',(67.033,1.,8.11500008940697));
#1556=CARTESIAN_POINT('',(67.033,0.,7.28000008940697));
#1557=CARTESIAN_POINT('Origin',(65.753,0.,7.28000008940698));
#1558=CARTESIAN_POINT('Origin',(65.753,1.,7.28000008940698));
#1559=CARTESIAN_POINT('Origin',(94.208,0.,6.47500008940697));
#1560=CARTESIAN_POINT('',(94.208,1.,7.76500008940697));
#1561=CARTESIAN_POINT('',(94.208,0.,7.76500008940697));
#1562=CARTESIAN_POINT('',(94.208,1.,6.47500008940697));
#1563=CARTESIAN_POINT('',(94.208,1.,6.47500008940697));
#1564=CARTESIAN_POINT('',(94.208,0.,6.47500008940697));
#1565=CARTESIAN_POINT('Origin',(81.361,0.,6.47500008940697));
#1566=CARTESIAN_POINT('',(81.361,1.,6.47500008940697));
#1567=CARTESIAN_POINT('',(81.361,1.,6.47500008940697));
#1568=CARTESIAN_POINT('',(81.361,0.,6.47500008940697));
#1569=CARTESIAN_POINT('Origin',(81.361,0.,7.76500008940697));
#1570=CARTESIAN_POINT('',(81.361,1.,7.76500008940697));
#1571=CARTESIAN_POINT('',(81.361,1.,7.76500008940697));
#1572=CARTESIAN_POINT('',(81.361,0.,7.76500008940697));
#1573=CARTESIAN_POINT('Origin',(94.208,0.,7.76500008940697));
#1574=CARTESIAN_POINT('',(94.208,1.,7.76500008940697));
#1575=CARTESIAN_POINT('Origin',(38.251240604501,0.,6.485));
#1576=CARTESIAN_POINT('',(38.251240604501,1.,20.745));
#1577=CARTESIAN_POINT('',(38.251240604501,0.,20.745));
#1578=CARTESIAN_POINT('',(38.251240604501,1.,6.485));
#1579=CARTESIAN_POINT('',(38.251240604501,1.,6.485));
#1580=CARTESIAN_POINT('',(38.251240604501,0.,6.485));
#1581=CARTESIAN_POINT('Origin',(25.111240604501,0.,6.485));
#1582=CARTESIAN_POINT('',(25.111240604501,1.,6.485));
#1583=CARTESIAN_POINT('',(25.111240604501,1.,6.485));
#1584=CARTESIAN_POINT('',(25.111240604501,0.,6.485));
#1585=CARTESIAN_POINT('Origin',(25.111240604501,0.,20.745));
#1586=CARTESIAN_POINT('',(25.111240604501,1.,20.745));
#1587=CARTESIAN_POINT('',(25.111240604501,1.,20.745));
#1588=CARTESIAN_POINT('',(25.111240604501,0.,20.745));
#1589=CARTESIAN_POINT('Origin',(38.251240604501,0.,20.745));
#1590=CARTESIAN_POINT('',(38.251240604501,1.,20.745));
#1591=CARTESIAN_POINT('Origin',(77.214,0.,8.11500008940696));
#1592=CARTESIAN_POINT('',(77.214,1.,9.39500008940697));
#1593=CARTESIAN_POINT('',(77.214,0.,9.39500008940697));
#1594=CARTESIAN_POINT('',(78.494,1.,8.11500008940697));
#1595=CARTESIAN_POINT('Origin',(77.214,1.,8.11500008940696));
#1596=CARTESIAN_POINT('',(78.494,0.,8.11500008940697));
#1597=CARTESIAN_POINT('Origin',(78.494,0.,7.28000008940697));
#1598=CARTESIAN_POINT('',(78.494,1.,7.28000008940697));
#1599=CARTESIAN_POINT('',(78.494,1.,8.11500008940697));
#1600=CARTESIAN_POINT('',(78.494,0.,7.28000008940697));
#1601=CARTESIAN_POINT('Origin',(77.214,0.,7.28000008940698));
#1602=CARTESIAN_POINT('',(77.214,1.,6.00000008940697));
#1603=CARTESIAN_POINT('Origin',(77.214,1.,7.28000008940698));
#1604=CARTESIAN_POINT('',(77.214,0.,6.00000008940697));
#1605=CARTESIAN_POINT('Origin',(70.834,0.,6.00000008940697));
#1606=CARTESIAN_POINT('',(70.834,1.,6.00000008940697));
#1607=CARTESIAN_POINT('',(77.214,1.,6.00000008940697));
#1608=CARTESIAN_POINT('',(70.834,0.,6.00000008940697));
#1609=CARTESIAN_POINT('Origin',(70.834,0.,7.28000008940697));
#1610=CARTESIAN_POINT('',(69.554,1.,7.28000008940697));
#1611=CARTESIAN_POINT('Origin',(70.834,1.,7.28000008940697));
#1612=CARTESIAN_POINT('',(69.554,0.,7.28000008940697));
#1613=CARTESIAN_POINT('Origin',(69.554,0.,8.11500008940697));
#1614=CARTESIAN_POINT('',(69.554,1.,8.11500008940697));
#1615=CARTESIAN_POINT('',(69.554,1.,7.28000008940697));
#1616=CARTESIAN_POINT('',(69.554,0.,8.11500008940697));
#1617=CARTESIAN_POINT('Origin',(70.834,0.,8.11500008940696));
#1618=CARTESIAN_POINT('',(70.834,1.,9.39500008940697));
#1619=CARTESIAN_POINT('Origin',(70.834,1.,8.11500008940696));
#1620=CARTESIAN_POINT('',(70.834,0.,9.39500008940697));
#1621=CARTESIAN_POINT('Origin',(77.214,0.,9.39500008940697));
#1622=CARTESIAN_POINT('',(70.834,1.,9.39500008940697));
#1623=CARTESIAN_POINT('Origin',(52.,1.,12.));
#1624=UNCERTAINTY_MEASURE_WITH_UNIT(LENGTH_MEASURE(0.01),#1628,
'DISTANCE_ACCURACY_VALUE',
'Maximum model space distance between geometric entities at asserted c
onnectivities');
#1625=UNCERTAINTY_MEASURE_WITH_UNIT(LENGTH_MEASURE(0.01),#1628,
'DISTANCE_ACCURACY_VALUE',
'Maximum model space distance between geometric entities at asserted c
onnectivities');
#1626=(
GEOMETRIC_REPRESENTATION_CONTEXT(3)
GLOBAL_UNCERTAINTY_ASSIGNED_CONTEXT((#1624))
GLOBAL_UNIT_ASSIGNED_CONTEXT((#1628,#1630,#1631))
REPRESENTATION_CONTEXT('','3D')
);
#1627=(
GEOMETRIC_REPRESENTATION_CONTEXT(3)
GLOBAL_UNCERTAINTY_ASSIGNED_CONTEXT((#1625))
GLOBAL_UNIT_ASSIGNED_CONTEXT((#1628,#1630,#1631))
REPRESENTATION_CONTEXT('','3D')
);
#1628=(
LENGTH_UNIT()
NAMED_UNIT(*)
SI_UNIT(.MILLI.,.METRE.)
);
#1629=(
LENGTH_UNIT()
NAMED_UNIT(*)
SI_UNIT($,.METRE.)
);
#1630=(
NAMED_UNIT(*)
PLANE_ANGLE_UNIT()
SI_UNIT($,.RADIAN.)
);
#1631=(
NAMED_UNIT(*)
SI_UNIT($,.STERADIAN.)
SOLID_ANGLE_UNIT()
);
#1632=SHAPE_DEFINITION_REPRESENTATION(#1633,#1634);
#1633=PRODUCT_DEFINITION_SHAPE('',$,#1636);
#1634=SHAPE_REPRESENTATION('',(#949),#1626);
#1635=PRODUCT_DEFINITION_CONTEXT('part definition',#1640,'design');
#1636=PRODUCT_DEFINITION('Front Cover','Front Cover v13',#1637,#1635);
#1637=PRODUCT_DEFINITION_FORMATION('',$,#1642);
#1638=PRODUCT_RELATED_PRODUCT_CATEGORY('Front Cover v13',
'Front Cover v13',(#1642));
#1639=APPLICATION_PROTOCOL_DEFINITION('international standard',
'automotive_design',2009,#1640);
#1640=APPLICATION_CONTEXT(
'Core Data for Automotive Mechanical Design Process');
#1641=PRODUCT_CONTEXT('part definition',#1640,'mechanical');
#1642=PRODUCT('Front Cover','Front Cover v13',$,(#1641));
#1643=PRESENTATION_STYLE_ASSIGNMENT((#1644));
#1644=SURFACE_STYLE_USAGE(.BOTH.,#1645);
#1645=SURFACE_SIDE_STYLE('',(#1646));
#1646=SURFACE_STYLE_FILL_AREA(#1647);
#1647=FILL_AREA_STYLE('EPX 82 (with Carbon M2 M3 L1 3D Printers)',(#1648));
#1648=FILL_AREA_STYLE_COLOUR(
'EPX 82 (with Carbon M2 M3 L1 3D Printers)',#1649);
#1649=COLOUR_RGB('EPX 82 (with Carbon M2 M3 L1 3D Printers)',0.247058823529412,
0.247058823529412,0.247058823529412);
ENDSEC;
END-ISO-10303-21;
