ISO-10303-21;
HEADER;
/* Generated by software containing ST-Developer
 * from STEP Tools, Inc. (www.steptools.com) 
 */

FILE_DESCRIPTION(
/* description */ (''),
/* implementation_level */ '2;1');

FILE_NAME(
/* name */ 'Top.step',
/* time_stamp */ '2026-08-20T15:05:09+09:30',
/* author */ (''),
/* organization */ (''),
/* preprocessor_version */ 'ST-DEVELOPER v20.1',
/* originating_system */ 'Autodesk Translation Framework v15.8.0.0',
/* authorisation */ '');

FILE_SCHEMA (('AUTOMOTIVE_DESIGN { 1 0 10303 214 3 1 1 }'));
ENDSEC;

DATA;
#10=MECHANICAL_DESIGN_GEOMETRIC_PRESENTATION_REPRESENTATION('',(#13),#550);
#11=SHAPE_REPRESENTATION_RELATIONSHIP('SRR','None',#557,#12);
#12=ADVANCED_BREP_SHAPE_REPRESENTATION('',(#14),#549);
#13=STYLED_ITEM('',(#566),#14);
#14=MANIFOLD_SOLID_BREP('Body1',#308);
#15=FACE_BOUND('',#56,.T.);
#16=FACE_BOUND('',#57,.T.);
#17=FACE_BOUND('',#58,.T.);
#18=FACE_BOUND('',#65,.T.);
#19=PLANE('',#328);
#20=PLANE('',#329);
#21=PLANE('',#334);
#22=PLANE('',#343);
#23=PLANE('',#346);
#24=PLANE('',#348);
#25=PLANE('',#351);
#26=PLANE('',#354);
#27=PLANE('',#357);
#28=PLANE('',#360);
#29=SPHERICAL_SURFACE('',#325,1.28);
#30=SPHERICAL_SURFACE('',#341,1.28);
#31=FACE_OUTER_BOUND('',#52,.T.);
#32=FACE_OUTER_BOUND('',#53,.T.);
#33=FACE_OUTER_BOUND('',#54,.T.);
#34=FACE_OUTER_BOUND('',#55,.T.);
#35=FACE_OUTER_BOUND('',#59,.T.);
#36=FACE_OUTER_BOUND('',#60,.T.);
#37=FACE_OUTER_BOUND('',#61,.T.);
#38=FACE_OUTER_BOUND('',#62,.T.);
#39=FACE_OUTER_BOUND('',#63,.T.);
#40=FACE_OUTER_BOUND('',#64,.T.);
#41=FACE_OUTER_BOUND('',#66,.T.);
#42=FACE_OUTER_BOUND('',#67,.T.);
#43=FACE_OUTER_BOUND('',#68,.T.);
#44=FACE_OUTER_BOUND('',#69,.T.);
#45=FACE_OUTER_BOUND('',#70,.T.);
#46=FACE_OUTER_BOUND('',#71,.T.);
#47=FACE_OUTER_BOUND('',#72,.T.);
#48=FACE_OUTER_BOUND('',#73,.T.);
#49=FACE_OUTER_BOUND('',#74,.T.);
#50=FACE_OUTER_BOUND('',#75,.T.);
#51=FACE_OUTER_BOUND('',#76,.T.);
#52=EDGE_LOOP('',(#200,#201,#202,#203));
#53=EDGE_LOOP('',(#204,#205,#206));
#54=EDGE_LOOP('',(#207,#208,#209,#210));
#55=EDGE_LOOP('',(#211,#212,#213,#214,#215,#216));
#56=EDGE_LOOP('',(#217));
#57=EDGE_LOOP('',(#218));
#58=EDGE_LOOP('',(#219));
#59=EDGE_LOOP('',(#220,#221,#222,#223));
#60=EDGE_LOOP('',(#224,#225,#226,#227));
#61=EDGE_LOOP('',(#228,#229,#230,#231));
#62=EDGE_LOOP('',(#232,#233,#234,#235));
#63=EDGE_LOOP('',(#236,#237,#238));
#64=EDGE_LOOP('',(#239,#240,#241,#242,#243,#244));
#65=EDGE_LOOP('',(#245));
#66=EDGE_LOOP('',(#246,#247,#248,#249));
#67=EDGE_LOOP('',(#250,#251,#252,#253));
#68=EDGE_LOOP('',(#254,#255,#256,#257));
#69=EDGE_LOOP('',(#258,#259,#260,#261));
#70=EDGE_LOOP('',(#262));
#71=EDGE_LOOP('',(#263,#264,#265,#266));
#72=EDGE_LOOP('',(#267));
#73=EDGE_LOOP('',(#268,#269,#270,#271));
#74=EDGE_LOOP('',(#272));
#75=EDGE_LOOP('',(#273,#274,#275,#276));
#76=EDGE_LOOP('',(#277));
#77=LINE('',#468,#98);
#78=LINE('',#471,#99);
#79=LINE('',#478,#100);
#80=LINE('',#480,#101);
#81=LINE('',#481,#102);
#82=LINE('',#484,#103);
#83=LINE('',#486,#104);
#84=LINE('',#488,#105);
#85=LINE('',#498,#106);
#86=LINE('',#499,#107);
#87=LINE('',#503,#108);
#88=LINE('',#506,#109);
#89=LINE('',#510,#110);
#90=LINE('',#516,#111);
#91=LINE('',#519,#112);
#92=LINE('',#523,#113);
#93=LINE('',#525,#114);
#94=LINE('',#529,#115);
#95=LINE('',#535,#116);
#96=LINE('',#540,#117);
#97=LINE('',#545,#118);
#98=VECTOR('',#367,10.);
#99=VECTOR('',#370,10.);
#100=VECTOR('',#379,10.);
#101=VECTOR('',#380,10.);
#102=VECTOR('',#381,10.);
#103=VECTOR('',#384,10.);
#104=VECTOR('',#385,10.);
#105=VECTOR('',#386,10.);
#106=VECTOR('',#397,10.);
#107=VECTOR('',#398,10.);
#108=VECTOR('',#403,10.);
#109=VECTOR('',#406,10.);
#110=VECTOR('',#411,10.);
#111=VECTOR('',#420,10.);
#112=VECTOR('',#423,10.);
#113=VECTOR('',#428,10.);
#114=VECTOR('',#431,10.);
#115=VECTOR('',#436,0.499999999999998);
#116=VECTOR('',#445,1.02499999999999);
#117=VECTOR('',#452,1.025);
#118=VECTOR('',#459,1.025);
#119=CIRCLE('',#323,1.28);
#120=CIRCLE('',#324,1.28);
#121=CIRCLE('',#326,1.28);
#122=CIRCLE('',#327,1.28);
#123=CIRCLE('',#330,1.28);
#124=CIRCLE('',#331,1.025);
#125=CIRCLE('',#332,1.025);
#126=CIRCLE('',#333,1.02499999999999);
#127=CIRCLE('',#336,1.28);
#128=CIRCLE('',#338,1.28);
#129=CIRCLE('',#340,1.28);
#130=CIRCLE('',#342,1.28);
#131=CIRCLE('',#344,1.28);
#132=CIRCLE('',#345,0.499999999999998);
#133=CIRCLE('',#350,0.499999999999998);
#134=CIRCLE('',#353,1.02499999999999);
#135=CIRCLE('',#356,1.025);
#136=CIRCLE('',#359,1.025);
#137=VERTEX_POINT('',#464);
#138=VERTEX_POINT('',#465);
#139=VERTEX_POINT('',#467);
#140=VERTEX_POINT('',#469);
#141=VERTEX_POINT('',#473);
#142=VERTEX_POINT('',#477);
#143=VERTEX_POINT('',#479);
#144=VERTEX_POINT('',#483);
#145=VERTEX_POINT('',#485);
#146=VERTEX_POINT('',#487);
#147=VERTEX_POINT('',#490);
#148=VERTEX_POINT('',#492);
#149=VERTEX_POINT('',#494);
#150=VERTEX_POINT('',#497);
#151=VERTEX_POINT('',#501);
#152=VERTEX_POINT('',#505);
#153=VERTEX_POINT('',#509);
#154=VERTEX_POINT('',#515);
#155=VERTEX_POINT('',#517);
#156=VERTEX_POINT('',#520);
#157=VERTEX_POINT('',#528);
#158=VERTEX_POINT('',#533);
#159=VERTEX_POINT('',#538);
#160=VERTEX_POINT('',#543);
#161=EDGE_CURVE('',#137,#138,#119,.T.);
#162=EDGE_CURVE('',#138,#139,#77,.T.);
#163=EDGE_CURVE('',#139,#140,#120,.T.);
#164=EDGE_CURVE('',#140,#137,#78,.T.);
#165=EDGE_CURVE('',#139,#141,#121,.T.);
#166=EDGE_CURVE('',#141,#140,#122,.T.);
#167=EDGE_CURVE('',#138,#142,#79,.T.);
#168=EDGE_CURVE('',#143,#142,#80,.T.);
#169=EDGE_CURVE('',#139,#143,#81,.T.);
#170=EDGE_CURVE('',#144,#137,#82,.T.);
#171=EDGE_CURVE('',#145,#144,#83,.T.);
#172=EDGE_CURVE('',#146,#145,#84,.T.);
#173=EDGE_CURVE('',#142,#146,#123,.T.);
#174=EDGE_CURVE('',#147,#147,#124,.T.);
#175=EDGE_CURVE('',#148,#148,#125,.T.);
#176=EDGE_CURVE('',#149,#149,#126,.T.);
#177=EDGE_CURVE('',#150,#140,#85,.T.);
#178=EDGE_CURVE('',#144,#150,#86,.T.);
#179=EDGE_CURVE('',#143,#151,#127,.T.);
#180=EDGE_CURVE('',#151,#141,#87,.T.);
#181=EDGE_CURVE('',#141,#152,#88,.T.);
#182=EDGE_CURVE('',#152,#150,#128,.T.);
#183=EDGE_CURVE('',#146,#153,#89,.T.);
#184=EDGE_CURVE('',#153,#143,#129,.T.);
#185=EDGE_CURVE('',#153,#151,#130,.T.);
#186=EDGE_CURVE('',#154,#152,#90,.T.);
#187=EDGE_CURVE('',#155,#154,#131,.T.);
#188=EDGE_CURVE('',#145,#155,#91,.T.);
#189=EDGE_CURVE('',#156,#156,#132,.T.);
#190=EDGE_CURVE('',#154,#151,#92,.T.);
#191=EDGE_CURVE('',#153,#155,#93,.T.);
#192=EDGE_CURVE('',#156,#157,#94,.T.);
#193=EDGE_CURVE('',#157,#157,#133,.T.);
#194=EDGE_CURVE('',#158,#158,#134,.T.);
#195=EDGE_CURVE('',#158,#149,#95,.T.);
#196=EDGE_CURVE('',#159,#159,#135,.T.);
#197=EDGE_CURVE('',#159,#148,#96,.T.);
#198=EDGE_CURVE('',#160,#160,#136,.T.);
#199=EDGE_CURVE('',#160,#147,#97,.T.);
#200=ORIENTED_EDGE('',*,*,#161,.T.);
#201=ORIENTED_EDGE('',*,*,#162,.T.);
#202=ORIENTED_EDGE('',*,*,#163,.T.);
#203=ORIENTED_EDGE('',*,*,#164,.T.);
#204=ORIENTED_EDGE('',*,*,#163,.F.);
#205=ORIENTED_EDGE('',*,*,#165,.T.);
#206=ORIENTED_EDGE('',*,*,#166,.T.);
#207=ORIENTED_EDGE('',*,*,#162,.F.);
#208=ORIENTED_EDGE('',*,*,#167,.T.);
#209=ORIENTED_EDGE('',*,*,#168,.F.);
#210=ORIENTED_EDGE('',*,*,#169,.F.);
#211=ORIENTED_EDGE('',*,*,#161,.F.);
#212=ORIENTED_EDGE('',*,*,#170,.F.);
#213=ORIENTED_EDGE('',*,*,#171,.F.);
#214=ORIENTED_EDGE('',*,*,#172,.F.);
#215=ORIENTED_EDGE('',*,*,#173,.F.);
#216=ORIENTED_EDGE('',*,*,#167,.F.);
#217=ORIENTED_EDGE('',*,*,#174,.T.);
#218=ORIENTED_EDGE('',*,*,#175,.T.);
#219=ORIENTED_EDGE('',*,*,#176,.T.);
#220=ORIENTED_EDGE('',*,*,#164,.F.);
#221=ORIENTED_EDGE('',*,*,#177,.F.);
#222=ORIENTED_EDGE('',*,*,#178,.F.);
#223=ORIENTED_EDGE('',*,*,#170,.T.);
#224=ORIENTED_EDGE('',*,*,#165,.F.);
#225=ORIENTED_EDGE('',*,*,#169,.T.);
#226=ORIENTED_EDGE('',*,*,#179,.T.);
#227=ORIENTED_EDGE('',*,*,#180,.T.);
#228=ORIENTED_EDGE('',*,*,#166,.F.);
#229=ORIENTED_EDGE('',*,*,#181,.T.);
#230=ORIENTED_EDGE('',*,*,#182,.T.);
#231=ORIENTED_EDGE('',*,*,#177,.T.);
#232=ORIENTED_EDGE('',*,*,#173,.T.);
#233=ORIENTED_EDGE('',*,*,#183,.T.);
#234=ORIENTED_EDGE('',*,*,#184,.T.);
#235=ORIENTED_EDGE('',*,*,#168,.T.);
#236=ORIENTED_EDGE('',*,*,#184,.F.);
#237=ORIENTED_EDGE('',*,*,#185,.T.);
#238=ORIENTED_EDGE('',*,*,#179,.F.);
#239=ORIENTED_EDGE('',*,*,#182,.F.);
#240=ORIENTED_EDGE('',*,*,#186,.F.);
#241=ORIENTED_EDGE('',*,*,#187,.F.);
#242=ORIENTED_EDGE('',*,*,#188,.F.);
#243=ORIENTED_EDGE('',*,*,#171,.T.);
#244=ORIENTED_EDGE('',*,*,#178,.T.);
#245=ORIENTED_EDGE('',*,*,#189,.T.);
#246=ORIENTED_EDGE('',*,*,#181,.F.);
#247=ORIENTED_EDGE('',*,*,#180,.F.);
#248=ORIENTED_EDGE('',*,*,#190,.F.);
#249=ORIENTED_EDGE('',*,*,#186,.T.);
#250=ORIENTED_EDGE('',*,*,#185,.F.);
#251=ORIENTED_EDGE('',*,*,#191,.T.);
#252=ORIENTED_EDGE('',*,*,#187,.T.);
#253=ORIENTED_EDGE('',*,*,#190,.T.);
#254=ORIENTED_EDGE('',*,*,#183,.F.);
#255=ORIENTED_EDGE('',*,*,#172,.T.);
#256=ORIENTED_EDGE('',*,*,#188,.T.);
#257=ORIENTED_EDGE('',*,*,#191,.F.);
#258=ORIENTED_EDGE('',*,*,#189,.F.);
#259=ORIENTED_EDGE('',*,*,#192,.T.);
#260=ORIENTED_EDGE('',*,*,#193,.T.);
#261=ORIENTED_EDGE('',*,*,#192,.F.);
#262=ORIENTED_EDGE('',*,*,#193,.F.);
#263=ORIENTED_EDGE('',*,*,#194,.F.);
#264=ORIENTED_EDGE('',*,*,#195,.T.);
#265=ORIENTED_EDGE('',*,*,#176,.F.);
#266=ORIENTED_EDGE('',*,*,#195,.F.);
#267=ORIENTED_EDGE('',*,*,#194,.T.);
#268=ORIENTED_EDGE('',*,*,#196,.F.);
#269=ORIENTED_EDGE('',*,*,#197,.T.);
#270=ORIENTED_EDGE('',*,*,#175,.F.);
#271=ORIENTED_EDGE('',*,*,#197,.F.);
#272=ORIENTED_EDGE('',*,*,#196,.T.);
#273=ORIENTED_EDGE('',*,*,#198,.F.);
#274=ORIENTED_EDGE('',*,*,#199,.T.);
#275=ORIENTED_EDGE('',*,*,#174,.F.);
#276=ORIENTED_EDGE('',*,*,#199,.F.);
#277=ORIENTED_EDGE('',*,*,#198,.T.);
#278=CYLINDRICAL_SURFACE('',#322,1.28);
#279=CYLINDRICAL_SURFACE('',#335,1.28);
#280=CYLINDRICAL_SURFACE('',#337,1.28);
#281=CYLINDRICAL_SURFACE('',#339,1.28);
#282=CYLINDRICAL_SURFACE('',#347,1.28);
#283=CYLINDRICAL_SURFACE('',#349,0.499999999999998);
#284=CYLINDRICAL_SURFACE('',#352,1.02499999999999);
#285=CYLINDRICAL_SURFACE('',#355,1.025);
#286=CYLINDRICAL_SURFACE('',#358,1.025);
#287=ADVANCED_FACE('',(#31),#278,.T.);
#288=ADVANCED_FACE('',(#32),#29,.T.);
#289=ADVANCED_FACE('',(#33),#19,.T.);
#290=ADVANCED_FACE('',(#34,#15,#16,#17),#20,.F.);
#291=ADVANCED_FACE('',(#35),#21,.T.);
#292=ADVANCED_FACE('',(#36),#279,.T.);
#293=ADVANCED_FACE('',(#37),#280,.T.);
#294=ADVANCED_FACE('',(#38),#281,.T.);
#295=ADVANCED_FACE('',(#39),#30,.T.);
#296=ADVANCED_FACE('',(#40,#18),#22,.T.);
#297=ADVANCED_FACE('',(#41),#23,.T.);
#298=ADVANCED_FACE('',(#42),#282,.T.);
#299=ADVANCED_FACE('',(#43),#24,.T.);
#300=ADVANCED_FACE('',(#44),#283,.F.);
#301=ADVANCED_FACE('',(#45),#25,.T.);
#302=ADVANCED_FACE('',(#46),#284,.T.);
#303=ADVANCED_FACE('',(#47),#26,.T.);
#304=ADVANCED_FACE('',(#48),#285,.T.);
#305=ADVANCED_FACE('',(#49),#27,.T.);
#306=ADVANCED_FACE('',(#50),#286,.T.);
#307=ADVANCED_FACE('',(#51),#28,.T.);
#308=CLOSED_SHELL('',(#287,#288,#289,#290,#291,#292,#293,#294,#295,#296,
#297,#298,#299,#300,#301,#302,#303,#304,#305,#306,#307));
#309=DERIVED_UNIT_ELEMENT(#311,1.);
#310=DERIVED_UNIT_ELEMENT(#552,-3.);
#311=(
MASS_UNIT()
NAMED_UNIT(*)
SI_UNIT(.KILO.,.GRAM.)
);
#312=DERIVED_UNIT((#309,#310));
#313=MEASURE_REPRESENTATION_ITEM('density measure',
POSITIVE_RATIO_MEASURE(7850.),#312);
#314=PROPERTY_DEFINITION_REPRESENTATION(#319,#316);
#315=PROPERTY_DEFINITION_REPRESENTATION(#320,#317);
#316=REPRESENTATION('material name',(#318),#549);
#317=REPRESENTATION('density',(#313),#549);
#318=DESCRIPTIVE_REPRESENTATION_ITEM('Steel','Steel');
#319=PROPERTY_DEFINITION('material property','material name',#559);
#320=PROPERTY_DEFINITION('material property','density of part',#559);
#321=AXIS2_PLACEMENT_3D('',#462,#361,#362);
#322=AXIS2_PLACEMENT_3D('',#463,#363,#364);
#323=AXIS2_PLACEMENT_3D('',#466,#365,#366);
#324=AXIS2_PLACEMENT_3D('',#470,#368,#369);
#325=AXIS2_PLACEMENT_3D('',#472,#371,#372);
#326=AXIS2_PLACEMENT_3D('',#474,#373,#374);
#327=AXIS2_PLACEMENT_3D('',#475,#375,#376);
#328=AXIS2_PLACEMENT_3D('',#476,#377,#378);
#329=AXIS2_PLACEMENT_3D('',#482,#382,#383);
#330=AXIS2_PLACEMENT_3D('',#489,#387,#388);
#331=AXIS2_PLACEMENT_3D('',#491,#389,#390);
#332=AXIS2_PLACEMENT_3D('',#493,#391,#392);
#333=AXIS2_PLACEMENT_3D('',#495,#393,#394);
#334=AXIS2_PLACEMENT_3D('',#496,#395,#396);
#335=AXIS2_PLACEMENT_3D('',#500,#399,#400);
#336=AXIS2_PLACEMENT_3D('',#502,#401,#402);
#337=AXIS2_PLACEMENT_3D('',#504,#404,#405);
#338=AXIS2_PLACEMENT_3D('',#507,#407,#408);
#339=AXIS2_PLACEMENT_3D('',#508,#409,#410);
#340=AXIS2_PLACEMENT_3D('',#511,#412,#413);
#341=AXIS2_PLACEMENT_3D('',#512,#414,#415);
#342=AXIS2_PLACEMENT_3D('',#513,#416,#417);
#343=AXIS2_PLACEMENT_3D('',#514,#418,#419);
#344=AXIS2_PLACEMENT_3D('',#518,#421,#422);
#345=AXIS2_PLACEMENT_3D('',#521,#424,#425);
#346=AXIS2_PLACEMENT_3D('',#522,#426,#427);
#347=AXIS2_PLACEMENT_3D('',#524,#429,#430);
#348=AXIS2_PLACEMENT_3D('',#526,#432,#433);
#349=AXIS2_PLACEMENT_3D('',#527,#434,#435);
#350=AXIS2_PLACEMENT_3D('',#530,#437,#438);
#351=AXIS2_PLACEMENT_3D('',#531,#439,#440);
#352=AXIS2_PLACEMENT_3D('',#532,#441,#442);
#353=AXIS2_PLACEMENT_3D('',#534,#443,#444);
#354=AXIS2_PLACEMENT_3D('',#536,#446,#447);
#355=AXIS2_PLACEMENT_3D('',#537,#448,#449);
#356=AXIS2_PLACEMENT_3D('',#539,#450,#451);
#357=AXIS2_PLACEMENT_3D('',#541,#453,#454);
#358=AXIS2_PLACEMENT_3D('',#542,#455,#456);
#359=AXIS2_PLACEMENT_3D('',#544,#457,#458);
#360=AXIS2_PLACEMENT_3D('',#546,#460,#461);
#361=DIRECTION('axis',(0.,0.,1.));
#362=DIRECTION('refdir',(1.,0.,0.));
#363=DIRECTION('center_axis',(0.,0.,1.));
#364=DIRECTION('ref_axis',(0.707106781186548,0.707106781186548,0.));
#365=DIRECTION('center_axis',(0.,0.,1.));
#366=DIRECTION('ref_axis',(0.707106781186548,0.707106781186548,0.));
#367=DIRECTION('',(0.,0.,1.));
#368=DIRECTION('center_axis',(0.,0.,-1.));
#369=DIRECTION('ref_axis',(0.,1.,0.));
#370=DIRECTION('',(0.,0.,-1.));
#371=DIRECTION('center_axis',(-0.816496580927726,0.408248290463863,0.408248290463862));
#372=DIRECTION('ref_axis',(0.577350269189626,0.577350269189626,0.577350269189626));
#373=DIRECTION('center_axis',(1.,-1.22464679914735E-16,0.));
#374=DIRECTION('ref_axis',(0.,0.707106781186546,0.707106781186549));
#375=DIRECTION('center_axis',(1.22464679914735E-16,1.,0.));
#376=DIRECTION('ref_axis',(0.707106781186546,0.,0.707106781186549));
#377=DIRECTION('center_axis',(1.22464679914735E-16,1.,0.));
#378=DIRECTION('ref_axis',(-1.,1.22464679914735E-16,0.));
#379=DIRECTION('',(-1.,1.22464679914735E-16,0.));
#380=DIRECTION('',(0.,0.,-1.));
#381=DIRECTION('',(-1.,1.22464679914735E-16,0.));
#382=DIRECTION('center_axis',(0.,0.,1.));
#383=DIRECTION('ref_axis',(-1.,1.22464679914735E-16,0.));
#384=DIRECTION('',(1.22464679914735E-16,1.,0.));
#385=DIRECTION('',(1.,-1.22464679914735E-16,0.));
#386=DIRECTION('',(-1.22464679914735E-16,-1.,0.));
#387=DIRECTION('center_axis',(0.,0.,1.));
#388=DIRECTION('ref_axis',(-0.707106781186548,0.707106781186548,0.));
#389=DIRECTION('center_axis',(0.,0.,1.));
#390=DIRECTION('ref_axis',(-1.,1.22464679914735E-16,0.));
#391=DIRECTION('center_axis',(0.,0.,1.));
#392=DIRECTION('ref_axis',(-1.,1.22464679914735E-16,0.));
#393=DIRECTION('center_axis',(0.,0.,1.));
#394=DIRECTION('ref_axis',(-1.,1.22464679914735E-16,0.));
#395=DIRECTION('center_axis',(1.,-1.22464679914735E-16,0.));
#396=DIRECTION('ref_axis',(1.22464679914735E-16,1.,0.));
#397=DIRECTION('',(1.22464679914735E-16,1.,0.));
#398=DIRECTION('',(0.,0.,1.));
#399=DIRECTION('center_axis',(-1.,1.22464679914735E-16,0.));
#400=DIRECTION('ref_axis',(0.,0.707106781186548,0.707106781186547));
#401=DIRECTION('center_axis',(1.,0.,-1.30104260698261E-15));
#402=DIRECTION('ref_axis',(0.,1.,0.));
#403=DIRECTION('',(1.,-1.22464679914735E-16,0.));
#404=DIRECTION('center_axis',(1.22464679914735E-16,1.,0.));
#405=DIRECTION('ref_axis',(0.707106781186548,0.,0.707106781186547));
#406=DIRECTION('',(-1.22464679914735E-16,-1.,0.));
#407=DIRECTION('center_axis',(1.22464679914735E-16,1.,0.));
#408=DIRECTION('ref_axis',(0.707106781186548,0.,0.707106781186547));
#409=DIRECTION('center_axis',(0.,0.,1.));
#410=DIRECTION('ref_axis',(-0.707106781186548,0.707106781186548,0.));
#411=DIRECTION('',(0.,0.,1.));
#412=DIRECTION('center_axis',(0.,0.,-1.));
#413=DIRECTION('ref_axis',(-1.,0.,0.));
#414=DIRECTION('center_axis',(-0.408248290463863,0.408248290463864,-0.816496580927726));
#415=DIRECTION('ref_axis',(-0.577350269189627,0.577350269189625,0.577350269189625));
#416=DIRECTION('center_axis',(1.22464679914735E-16,1.,0.));
#417=DIRECTION('ref_axis',(-0.707106781186548,0.,0.707106781186547));
#418=DIRECTION('center_axis',(-1.22464679914735E-16,-1.,0.));
#419=DIRECTION('ref_axis',(1.,-1.22464679914735E-16,0.));
#420=DIRECTION('',(1.,-1.22464679914735E-16,0.));
#421=DIRECTION('center_axis',(1.22464679914735E-16,1.,0.));
#422=DIRECTION('ref_axis',(-0.707106781186548,0.,0.707106781186547));
#423=DIRECTION('',(0.,0.,1.));
#424=DIRECTION('center_axis',(1.22464679914735E-16,1.,0.));
#425=DIRECTION('ref_axis',(1.,0.,0.));
#426=DIRECTION('center_axis',(0.,0.,1.));
#427=DIRECTION('ref_axis',(-1.,1.22464679914735E-16,0.));
#428=DIRECTION('',(1.22464679914735E-16,1.,0.));
#429=DIRECTION('center_axis',(-1.22464679914735E-16,-1.,0.));
#430=DIRECTION('ref_axis',(-0.707106781186548,0.,0.707106781186547));
#431=DIRECTION('',(-1.22464679914735E-16,-1.,0.));
#432=DIRECTION('center_axis',(-1.,1.22464679914735E-16,0.));
#433=DIRECTION('ref_axis',(-1.22464679914735E-16,-1.,0.));
#434=DIRECTION('center_axis',(0.,1.,0.));
#435=DIRECTION('ref_axis',(1.,0.,0.));
#436=DIRECTION('',(0.,1.,0.));
#437=DIRECTION('center_axis',(0.,1.,0.));
#438=DIRECTION('ref_axis',(1.,0.,0.));
#439=DIRECTION('center_axis',(0.,-1.,0.));
#440=DIRECTION('ref_axis',(1.,0.,0.));
#441=DIRECTION('center_axis',(0.,0.,-1.));
#442=DIRECTION('ref_axis',(-1.,1.22464679914735E-16,0.));
#443=DIRECTION('center_axis',(0.,0.,-1.));
#444=DIRECTION('ref_axis',(-1.,1.22464679914735E-16,0.));
#445=DIRECTION('',(0.,0.,1.));
#446=DIRECTION('center_axis',(0.,0.,-1.));
#447=DIRECTION('ref_axis',(-1.,1.22464679914735E-16,0.));
#448=DIRECTION('center_axis',(0.,0.,-1.));
#449=DIRECTION('ref_axis',(-1.,1.22464679914735E-16,0.));
#450=DIRECTION('center_axis',(0.,0.,-1.));
#451=DIRECTION('ref_axis',(-1.,1.22464679914735E-16,0.));
#452=DIRECTION('',(0.,0.,1.));
#453=DIRECTION('center_axis',(0.,0.,-1.));
#454=DIRECTION('ref_axis',(-1.,1.22464679914735E-16,0.));
#455=DIRECTION('center_axis',(0.,0.,-1.));
#456=DIRECTION('ref_axis',(-1.,1.22464679914735E-16,0.));
#457=DIRECTION('center_axis',(0.,0.,-1.));
#458=DIRECTION('ref_axis',(-1.,1.22464679914735E-16,0.));
#459=DIRECTION('',(0.,0.,1.));
#460=DIRECTION('center_axis',(0.,0.,-1.));
#461=DIRECTION('ref_axis',(-1.,1.22464679914735E-16,0.));
#462=CARTESIAN_POINT('',(0.,0.,0.));
#463=CARTESIAN_POINT('Origin',(102.72,62.72,0.));
#464=CARTESIAN_POINT('',(104.,62.72,0.));
#465=CARTESIAN_POINT('',(102.72,64.,0.));
#466=CARTESIAN_POINT('Origin',(102.72,62.72,0.));
#467=CARTESIAN_POINT('',(102.72,64.,0.72));
#468=CARTESIAN_POINT('',(102.72,64.,0.));
#469=CARTESIAN_POINT('',(104.,62.72,0.72));
#470=CARTESIAN_POINT('Origin',(102.72,62.72,0.72));
#471=CARTESIAN_POINT('',(104.,62.72,0.));
#472=CARTESIAN_POINT('Origin',(102.72,62.72,0.72));
#473=CARTESIAN_POINT('',(102.72,62.72,2.));
#474=CARTESIAN_POINT('Origin',(102.72,62.72,0.72));
#475=CARTESIAN_POINT('Origin',(102.72,62.72,0.72));
#476=CARTESIAN_POINT('Origin',(104.,64.,0.));
#477=CARTESIAN_POINT('',(1.28,64.,0.));
#478=CARTESIAN_POINT('',(104.,64.,0.));
#479=CARTESIAN_POINT('',(1.28,64.,0.72));
#480=CARTESIAN_POINT('',(1.28,64.,0.));
#481=CARTESIAN_POINT('',(78.,64.,0.72));
#482=CARTESIAN_POINT('Origin',(52.,32.,0.));
#483=CARTESIAN_POINT('',(104.,0.,0.));
#484=CARTESIAN_POINT('',(104.,0.,0.));
#485=CARTESIAN_POINT('',(0.,8.88178419700125E-15,0.));
#486=CARTESIAN_POINT('',(0.,8.88178419700125E-15,0.));
#487=CARTESIAN_POINT('',(-1.56754790290861E-16,62.72,0.));
#488=CARTESIAN_POINT('',(0.,64.,0.));
#489=CARTESIAN_POINT('Origin',(1.28,62.72,0.));
#490=CARTESIAN_POINT('',(102.525,32.,0.));
#491=CARTESIAN_POINT('Origin',(101.5,32.,0.));
#492=CARTESIAN_POINT('',(53.025,61.5,0.));
#493=CARTESIAN_POINT('Origin',(52.,61.5,0.));
#494=CARTESIAN_POINT('',(3.52499999999999,32.,0.));
#495=CARTESIAN_POINT('Origin',(2.5,32.,0.));
#496=CARTESIAN_POINT('Origin',(104.,0.,0.));
#497=CARTESIAN_POINT('',(104.,0.,0.72));
#498=CARTESIAN_POINT('',(104.,16.,0.72));
#499=CARTESIAN_POINT('',(104.,0.,0.));
#500=CARTESIAN_POINT('Origin',(78.,62.72,0.72));
#501=CARTESIAN_POINT('',(1.28,62.72,2.));
#502=CARTESIAN_POINT('Origin',(1.28,62.72,0.72));
#503=CARTESIAN_POINT('',(78.,62.72,2.));
#504=CARTESIAN_POINT('Origin',(102.72,16.,0.72));
#505=CARTESIAN_POINT('',(102.72,-3.69778772384036E-15,2.));
#506=CARTESIAN_POINT('',(102.72,16.,2.));
#507=CARTESIAN_POINT('Origin',(102.72,-4.44089209850063E-15,0.72));
#508=CARTESIAN_POINT('Origin',(1.28,62.72,0.));
#509=CARTESIAN_POINT('',(-1.4021020474912E-16,62.72,0.72));
#510=CARTESIAN_POINT('',(-2.77555756156289E-16,62.72,0.));
#511=CARTESIAN_POINT('Origin',(1.28,62.72,0.72));
#512=CARTESIAN_POINT('Origin',(1.28,62.72,0.72));
#513=CARTESIAN_POINT('Origin',(1.28,62.72,0.72));
#514=CARTESIAN_POINT('Origin',(0.,8.88178419700125E-15,0.));
#515=CARTESIAN_POINT('',(1.28,8.72502940671039E-15,2.));
#516=CARTESIAN_POINT('',(0.,8.88178419700125E-15,2.));
#517=CARTESIAN_POINT('',(0.,8.88178419700125E-15,0.72));
#518=CARTESIAN_POINT('Origin',(1.28,8.88178419700125E-15,0.72));
#519=CARTESIAN_POINT('',(0.,8.88178419700125E-15,0.));
#520=CARTESIAN_POINT('',(51.5,2.51362084143502E-15,1.));
#521=CARTESIAN_POINT('Origin',(52.,8.88178419700125E-15,1.));
#522=CARTESIAN_POINT('Origin',(52.,32.,2.));
#523=CARTESIAN_POINT('',(1.28,48.,2.));
#524=CARTESIAN_POINT('Origin',(1.28,48.,0.72));
#525=CARTESIAN_POINT('',(-1.94289029309402E-15,48.,0.72));
#526=CARTESIAN_POINT('Origin',(0.,64.,0.));
#527=CARTESIAN_POINT('Origin',(52.,2.51362084143502E-15,1.));
#528=CARTESIAN_POINT('',(51.5,1.2,1.));
#529=CARTESIAN_POINT('',(51.5,2.51362084143502E-15,1.));
#530=CARTESIAN_POINT('Origin',(52.,1.2,1.));
#531=CARTESIAN_POINT('Origin',(52.,1.2,1.));
#532=CARTESIAN_POINT('Origin',(2.5,32.,0.));
#533=CARTESIAN_POINT('',(3.52499999999999,32.,-1.2));
#534=CARTESIAN_POINT('Origin',(2.5,32.,-1.2));
#535=CARTESIAN_POINT('',(3.52499999999999,32.,0.));
#536=CARTESIAN_POINT('Origin',(2.5,32.,-1.2));
#537=CARTESIAN_POINT('Origin',(52.,61.5,0.));
#538=CARTESIAN_POINT('',(53.025,61.5,-1.2));
#539=CARTESIAN_POINT('Origin',(52.,61.5,-1.2));
#540=CARTESIAN_POINT('',(53.025,61.5,0.));
#541=CARTESIAN_POINT('Origin',(52.,61.5,-1.2));
#542=CARTESIAN_POINT('Origin',(101.5,32.,0.));
#543=CARTESIAN_POINT('',(102.525,32.,-1.2));
#544=CARTESIAN_POINT('Origin',(101.5,32.,-1.2));
#545=CARTESIAN_POINT('',(102.525,32.,0.));
#546=CARTESIAN_POINT('Origin',(101.5,32.,-1.2));
#547=UNCERTAINTY_MEASURE_WITH_UNIT(LENGTH_MEASURE(0.01),#551,
'DISTANCE_ACCURACY_VALUE',
'Maximum model space distance between geometric entities at asserted c
onnectivities');
#548=UNCERTAINTY_MEASURE_WITH_UNIT(LENGTH_MEASURE(0.01),#551,
'DISTANCE_ACCURACY_VALUE',
'Maximum model space distance between geometric entities at asserted c
onnectivities');
#549=(
GEOMETRIC_REPRESENTATION_CONTEXT(3)
GLOBAL_UNCERTAINTY_ASSIGNED_CONTEXT((#547))
GLOBAL_UNIT_ASSIGNED_CONTEXT((#551,#553,#554))
REPRESENTATION_CONTEXT('','3D')
);
#550=(
GEOMETRIC_REPRESENTATION_CONTEXT(3)
GLOBAL_UNCERTAINTY_ASSIGNED_CONTEXT((#548))
GLOBAL_UNIT_ASSIGNED_CONTEXT((#551,#553,#554))
REPRESENTATION_CONTEXT('','3D')
);
#551=(
LENGTH_UNIT()
NAMED_UNIT(*)
SI_UNIT(.MILLI.,.METRE.)
);
#552=(
LENGTH_UNIT()
NAMED_UNIT(*)
SI_UNIT($,.METRE.)
);
#553=(
NAMED_UNIT(*)
PLANE_ANGLE_UNIT()
SI_UNIT($,.RADIAN.)
);
#554=(
NAMED_UNIT(*)
SI_UNIT($,.STERADIAN.)
SOLID_ANGLE_UNIT()
);
#555=SHAPE_DEFINITION_REPRESENTATION(#556,#557);
#556=PRODUCT_DEFINITION_SHAPE('',$,#559);
#557=SHAPE_REPRESENTATION('',(#321),#549);
#558=PRODUCT_DEFINITION_CONTEXT('part definition',#563,'design');
#559=PRODUCT_DEFINITION('Top','Top v7',#560,#558);
#560=PRODUCT_DEFINITION_FORMATION('',$,#565);
#561=PRODUCT_RELATED_PRODUCT_CATEGORY('Top v7','Top v7',(#565));
#562=APPLICATION_PROTOCOL_DEFINITION('international standard',
'automotive_design',2009,#563);
#563=APPLICATION_CONTEXT(
'Core Data for Automotive Mechanical Design Process');
#564=PRODUCT_CONTEXT('part definition',#563,'mechanical');
#565=PRODUCT('Top','Top v7',$,(#564));
#566=PRESENTATION_STYLE_ASSIGNMENT((#567));
#567=SURFACE_STYLE_USAGE(.BOTH.,#568);
#568=SURFACE_SIDE_STYLE('',(#569));
#569=SURFACE_STYLE_FILL_AREA(#570);
#570=FILL_AREA_STYLE('EPX 82 (with Carbon M2 M3 L1 3D Printers)',(#571));
#571=FILL_AREA_STYLE_COLOUR('EPX 82 (with Carbon M2 M3 L1 3D Printers)',
#572);
#572=COLOUR_RGB('EPX 82 (with Carbon M2 M3 L1 3D Printers)',0.247058823529412,
0.247058823529412,0.247058823529412);
ENDSEC;
END-ISO-10303-21;
