ISO-10303-21;
HEADER;
/* Generated by software containing ST-Developer
 * from STEP Tools, Inc. (www.steptools.com) 
 */

FILE_DESCRIPTION(
/* description */ (''),
/* implementation_level */ '2;1');

FILE_NAME(
/* name */ 'Walls.step',
/* time_stamp */ '2026-08-22T21:44:34+09:30',
/* author */ (''),
/* organization */ (''),
/* preprocessor_version */ 'ST-DEVELOPER v20.1',
/* originating_system */ 'Autodesk Translation Framework v15.8.0.0',
/* authorisation */ '');

FILE_SCHEMA (('AUTOMOTIVE_DESIGN { 1 0 10303 214 3 1 1 }'));
ENDSEC;

DATA;
#10=MECHANICAL_DESIGN_GEOMETRIC_PRESENTATION_REPRESENTATION('',(#13),#1472);
#11=SHAPE_REPRESENTATION_RELATIONSHIP('SRR','None',#1479,#12);
#12=ADVANCED_BREP_SHAPE_REPRESENTATION('',(#14),#1471);
#13=STYLED_ITEM('',(#1488),#14);
#14=MANIFOLD_SOLID_BREP('Body1',#856);
#15=FACE_BOUND('',#131,.T.);
#16=FACE_BOUND('',#132,.T.);
#17=FACE_BOUND('',#133,.T.);
#18=FACE_BOUND('',#134,.T.);
#19=FACE_BOUND('',#135,.T.);
#20=FACE_BOUND('',#174,.T.);
#21=FACE_BOUND('',#176,.T.);
#22=FACE_BOUND('',#178,.T.);
#23=FACE_BOUND('',#180,.T.);
#24=FACE_BOUND('',#181,.T.);
#25=FACE_BOUND('',#182,.T.);
#26=FACE_BOUND('',#183,.T.);
#27=FACE_BOUND('',#184,.T.);
#28=FACE_BOUND('',#186,.T.);
#29=FACE_BOUND('',#187,.T.);
#30=FACE_BOUND('',#189,.T.);
#31=FACE_BOUND('',#191,.T.);
#32=FACE_BOUND('',#192,.T.);
#33=FACE_BOUND('',#193,.T.);
#34=PLANE('',#873);
#35=PLANE('',#877);
#36=PLANE('',#878);
#37=PLANE('',#879);
#38=PLANE('',#880);
#39=PLANE('',#881);
#40=PLANE('',#885);
#41=PLANE('',#894);
#42=PLANE('',#901);
#43=PLANE('',#905);
#44=PLANE('',#909);
#45=PLANE('',#913);
#46=PLANE('',#917);
#47=PLANE('',#918);
#48=PLANE('',#921);
#49=PLANE('',#924);
#50=PLANE('',#927);
#51=PLANE('',#932);
#52=PLANE('',#935);
#53=PLANE('',#939);
#54=PLANE('',#943);
#55=PLANE('',#946);
#56=PLANE('',#949);
#57=PLANE('',#953);
#58=PLANE('',#957);
#59=PLANE('',#958);
#60=PLANE('',#959);
#61=PLANE('',#960);
#62=PLANE('',#961);
#63=PLANE('',#962);
#64=PLANE('',#963);
#65=PLANE('',#964);
#66=PLANE('',#965);
#67=FACE_OUTER_BOUND('',#121,.T.);
#68=FACE_OUTER_BOUND('',#122,.T.);
#69=FACE_OUTER_BOUND('',#123,.T.);
#70=FACE_OUTER_BOUND('',#124,.T.);
#71=FACE_OUTER_BOUND('',#125,.T.);
#72=FACE_OUTER_BOUND('',#126,.T.);
#73=FACE_OUTER_BOUND('',#127,.T.);
#74=FACE_OUTER_BOUND('',#128,.T.);
#75=FACE_OUTER_BOUND('',#129,.T.);
#76=FACE_OUTER_BOUND('',#130,.T.);
#77=FACE_OUTER_BOUND('',#136,.T.);
#78=FACE_OUTER_BOUND('',#137,.T.);
#79=FACE_OUTER_BOUND('',#138,.T.);
#80=FACE_OUTER_BOUND('',#139,.T.);
#81=FACE_OUTER_BOUND('',#140,.T.);
#82=FACE_OUTER_BOUND('',#141,.T.);
#83=FACE_OUTER_BOUND('',#142,.T.);
#84=FACE_OUTER_BOUND('',#143,.T.);
#85=FACE_OUTER_BOUND('',#144,.T.);
#86=FACE_OUTER_BOUND('',#145,.T.);
#87=FACE_OUTER_BOUND('',#146,.T.);
#88=FACE_OUTER_BOUND('',#147,.T.);
#89=FACE_OUTER_BOUND('',#148,.T.);
#90=FACE_OUTER_BOUND('',#149,.T.);
#91=FACE_OUTER_BOUND('',#150,.T.);
#92=FACE_OUTER_BOUND('',#151,.T.);
#93=FACE_OUTER_BOUND('',#152,.T.);
#94=FACE_OUTER_BOUND('',#153,.T.);
#95=FACE_OUTER_BOUND('',#154,.T.);
#96=FACE_OUTER_BOUND('',#155,.T.);
#97=FACE_OUTER_BOUND('',#156,.T.);
#98=FACE_OUTER_BOUND('',#157,.T.);
#99=FACE_OUTER_BOUND('',#158,.T.);
#100=FACE_OUTER_BOUND('',#159,.T.);
#101=FACE_OUTER_BOUND('',#160,.T.);
#102=FACE_OUTER_BOUND('',#161,.T.);
#103=FACE_OUTER_BOUND('',#162,.T.);
#104=FACE_OUTER_BOUND('',#163,.T.);
#105=FACE_OUTER_BOUND('',#164,.T.);
#106=FACE_OUTER_BOUND('',#165,.T.);
#107=FACE_OUTER_BOUND('',#166,.T.);
#108=FACE_OUTER_BOUND('',#167,.T.);
#109=FACE_OUTER_BOUND('',#168,.T.);
#110=FACE_OUTER_BOUND('',#169,.T.);
#111=FACE_OUTER_BOUND('',#170,.T.);
#112=FACE_OUTER_BOUND('',#171,.T.);
#113=FACE_OUTER_BOUND('',#172,.T.);
#114=FACE_OUTER_BOUND('',#173,.T.);
#115=FACE_OUTER_BOUND('',#175,.T.);
#116=FACE_OUTER_BOUND('',#177,.T.);
#117=FACE_OUTER_BOUND('',#179,.T.);
#118=FACE_OUTER_BOUND('',#185,.T.);
#119=FACE_OUTER_BOUND('',#188,.T.);
#120=FACE_OUTER_BOUND('',#190,.T.);
#121=EDGE_LOOP('',(#559,#560,#561,#562));
#122=EDGE_LOOP('',(#563));
#123=EDGE_LOOP('',(#564,#565,#566,#567));
#124=EDGE_LOOP('',(#568));
#125=EDGE_LOOP('',(#569,#570,#571,#572));
#126=EDGE_LOOP('',(#573,#574,#575,#576));
#127=EDGE_LOOP('',(#577,#578,#579,#580));
#128=EDGE_LOOP('',(#581,#582,#583,#584));
#129=EDGE_LOOP('',(#585,#586,#587,#588));
#130=EDGE_LOOP('',(#589,#590,#591,#592));
#131=EDGE_LOOP('',(#593,#594,#595,#596,#597,#598,#599,#600));
#132=EDGE_LOOP('',(#601));
#133=EDGE_LOOP('',(#602));
#134=EDGE_LOOP('',(#603));
#135=EDGE_LOOP('',(#604));
#136=EDGE_LOOP('',(#605,#606,#607,#608,#609,#610,#611,#612,#613,#614));
#137=EDGE_LOOP('',(#615,#616,#617,#618));
#138=EDGE_LOOP('',(#619,#620,#621,#622));
#139=EDGE_LOOP('',(#623));
#140=EDGE_LOOP('',(#624,#625,#626,#627));
#141=EDGE_LOOP('',(#628));
#142=EDGE_LOOP('',(#629,#630,#631,#632));
#143=EDGE_LOOP('',(#633));
#144=EDGE_LOOP('',(#634,#635,#636,#637));
#145=EDGE_LOOP('',(#638));
#146=EDGE_LOOP('',(#639,#640,#641,#642));
#147=EDGE_LOOP('',(#643));
#148=EDGE_LOOP('',(#644,#645,#646,#647));
#149=EDGE_LOOP('',(#648,#649,#650,#651));
#150=EDGE_LOOP('',(#652,#653,#654,#655));
#151=EDGE_LOOP('',(#656,#657,#658,#659));
#152=EDGE_LOOP('',(#660,#661,#662,#663));
#153=EDGE_LOOP('',(#664,#665,#666,#667));
#154=EDGE_LOOP('',(#668,#669,#670,#671));
#155=EDGE_LOOP('',(#672,#673,#674,#675));
#156=EDGE_LOOP('',(#676,#677,#678,#679));
#157=EDGE_LOOP('',(#680));
#158=EDGE_LOOP('',(#681,#682,#683,#684));
#159=EDGE_LOOP('',(#685));
#160=EDGE_LOOP('',(#686,#687,#688,#689));
#161=EDGE_LOOP('',(#690));
#162=EDGE_LOOP('',(#691,#692,#693,#694));
#163=EDGE_LOOP('',(#695));
#164=EDGE_LOOP('',(#696,#697,#698,#699));
#165=EDGE_LOOP('',(#700));
#166=EDGE_LOOP('',(#701,#702,#703,#704));
#167=EDGE_LOOP('',(#705));
#168=EDGE_LOOP('',(#706,#707,#708,#709));
#169=EDGE_LOOP('',(#710));
#170=EDGE_LOOP('',(#711,#712,#713,#714));
#171=EDGE_LOOP('',(#715));
#172=EDGE_LOOP('',(#716,#717,#718,#719));
#173=EDGE_LOOP('',(#720,#721,#722,#723));
#174=EDGE_LOOP('',(#724,#725,#726,#727,#728,#729,#730,#731));
#175=EDGE_LOOP('',(#732,#733,#734,#735));
#176=EDGE_LOOP('',(#736,#737,#738,#739));
#177=EDGE_LOOP('',(#740,#741,#742,#743));
#178=EDGE_LOOP('',(#744));
#179=EDGE_LOOP('',(#745,#746,#747,#748));
#180=EDGE_LOOP('',(#749));
#181=EDGE_LOOP('',(#750));
#182=EDGE_LOOP('',(#751,#752,#753,#754));
#183=EDGE_LOOP('',(#755));
#184=EDGE_LOOP('',(#756));
#185=EDGE_LOOP('',(#757,#758,#759,#760));
#186=EDGE_LOOP('',(#761));
#187=EDGE_LOOP('',(#762));
#188=EDGE_LOOP('',(#763,#764,#765,#766));
#189=EDGE_LOOP('',(#767));
#190=EDGE_LOOP('',(#768,#769,#770,#771,#772,#773,#774,#775,#776,#777));
#191=EDGE_LOOP('',(#778));
#192=EDGE_LOOP('',(#779));
#193=EDGE_LOOP('',(#780));
#194=LINE('',#1234,#263);
#195=LINE('',#1241,#264);
#196=LINE('',#1247,#265);
#197=LINE('',#1249,#266);
#198=LINE('',#1251,#267);
#199=LINE('',#1252,#268);
#200=LINE('',#1255,#269);
#201=LINE('',#1257,#270);
#202=LINE('',#1258,#271);
#203=LINE('',#1261,#272);
#204=LINE('',#1263,#273);
#205=LINE('',#1264,#274);
#206=LINE('',#1266,#275);
#207=LINE('',#1267,#276);
#208=LINE('',#1273,#277);
#209=LINE('',#1276,#278);
#210=LINE('',#1279,#279);
#211=LINE('',#1281,#280);
#212=LINE('',#1282,#281);
#213=LINE('',#1285,#282);
#214=LINE('',#1289,#283);
#215=LINE('',#1293,#284);
#216=LINE('',#1297,#285);
#217=LINE('',#1309,#286);
#218=LINE('',#1311,#287);
#219=LINE('',#1313,#288);
#220=LINE('',#1315,#289);
#221=LINE('',#1317,#290);
#222=LINE('',#1319,#291);
#223=LINE('',#1321,#292);
#224=LINE('',#1326,#293);
#225=LINE('',#1331,#294);
#226=LINE('',#1338,#295);
#227=LINE('',#1345,#296);
#228=LINE('',#1352,#297);
#229=LINE('',#1359,#298);
#230=LINE('',#1365,#299);
#231=LINE('',#1366,#300);
#232=LINE('',#1367,#301);
#233=LINE('',#1371,#302);
#234=LINE('',#1374,#303);
#235=LINE('',#1375,#304);
#236=LINE('',#1379,#305);
#237=LINE('',#1382,#306);
#238=LINE('',#1383,#307);
#239=LINE('',#1387,#308);
#240=LINE('',#1390,#309);
#241=LINE('',#1391,#310);
#242=LINE('',#1396,#311);
#243=LINE('',#1401,#312);
#244=LINE('',#1408,#313);
#245=LINE('',#1415,#314);
#246=LINE('',#1420,#315);
#247=LINE('',#1425,#316);
#248=LINE('',#1432,#317);
#249=LINE('',#1439,#318);
#250=LINE('',#1444,#319);
#251=LINE('',#1446,#320);
#252=LINE('',#1447,#321);
#253=LINE('',#1450,#322);
#254=LINE('',#1451,#323);
#255=LINE('',#1454,#324);
#256=LINE('',#1455,#325);
#257=LINE('',#1458,#326);
#258=LINE('',#1459,#327);
#259=LINE('',#1461,#328);
#260=LINE('',#1464,#329);
#261=LINE('',#1465,#330);
#262=LINE('',#1467,#331);
#263=VECTOR('',#972,1.15);
#264=VECTOR('',#981,1.15);
#265=VECTOR('',#988,10.);
#266=VECTOR('',#989,10.);
#267=VECTOR('',#990,10.);
#268=VECTOR('',#991,10.);
#269=VECTOR('',#994,10.);
#270=VECTOR('',#995,10.);
#271=VECTOR('',#996,10.);
#272=VECTOR('',#999,10.);
#273=VECTOR('',#1000,10.);
#274=VECTOR('',#1001,10.);
#275=VECTOR('',#1004,10.);
#276=VECTOR('',#1005,10.);
#277=VECTOR('',#1010,10.);
#278=VECTOR('',#1013,10.);
#279=VECTOR('',#1016,10.);
#280=VECTOR('',#1017,10.);
#281=VECTOR('',#1018,10.);
#282=VECTOR('',#1019,10.);
#283=VECTOR('',#1022,10.);
#284=VECTOR('',#1025,10.);
#285=VECTOR('',#1028,10.);
#286=VECTOR('',#1041,10.);
#287=VECTOR('',#1042,10.);
#288=VECTOR('',#1043,10.);
#289=VECTOR('',#1044,10.);
#290=VECTOR('',#1045,10.);
#291=VECTOR('',#1046,10.);
#292=VECTOR('',#1047,10.);
#293=VECTOR('',#1054,10.);
#294=VECTOR('',#1059,1.15);
#295=VECTOR('',#1068,1.15);
#296=VECTOR('',#1077,1.15);
#297=VECTOR('',#1086,1.15);
#298=VECTOR('',#1095,1.15);
#299=VECTOR('',#1102,10.);
#300=VECTOR('',#1103,10.);
#301=VECTOR('',#1104,10.);
#302=VECTOR('',#1109,10.);
#303=VECTOR('',#1112,10.);
#304=VECTOR('',#1113,10.);
#305=VECTOR('',#1118,10.);
#306=VECTOR('',#1121,10.);
#307=VECTOR('',#1122,10.);
#308=VECTOR('',#1127,10.);
#309=VECTOR('',#1130,10.);
#310=VECTOR('',#1131,10.);
#311=VECTOR('',#1138,1.15);
#312=VECTOR('',#1145,1.15);
#313=VECTOR('',#1154,1.15);
#314=VECTOR('',#1163,1.15);
#315=VECTOR('',#1170,1.15);
#316=VECTOR('',#1177,1.15);
#317=VECTOR('',#1186,1.15);
#318=VECTOR('',#1195,1.15);
#319=VECTOR('',#1202,10.);
#320=VECTOR('',#1203,10.);
#321=VECTOR('',#1204,10.);
#322=VECTOR('',#1207,10.);
#323=VECTOR('',#1208,10.);
#324=VECTOR('',#1211,10.);
#325=VECTOR('',#1212,10.);
#326=VECTOR('',#1215,10.);
#327=VECTOR('',#1216,10.);
#328=VECTOR('',#1219,10.);
#329=VECTOR('',#1222,10.);
#330=VECTOR('',#1223,10.);
#331=VECTOR('',#1226,10.);
#332=CIRCLE('',#871,1.15);
#333=CIRCLE('',#872,1.15);
#334=CIRCLE('',#875,1.15);
#335=CIRCLE('',#876,1.15);
#336=CIRCLE('',#883,1.28);
#337=CIRCLE('',#884,1.28);
#338=CIRCLE('',#886,1.28);
#339=CIRCLE('',#887,1.28000000000001);
#340=CIRCLE('',#888,1.28000000000001);
#341=CIRCLE('',#889,1.28000000000001);
#342=CIRCLE('',#890,1.15);
#343=CIRCLE('',#891,1.15);
#344=CIRCLE('',#892,1.15);
#345=CIRCLE('',#893,1.15);
#346=CIRCLE('',#895,1.28);
#347=CIRCLE('',#897,1.28);
#348=CIRCLE('',#899,1.15);
#349=CIRCLE('',#900,1.15);
#350=CIRCLE('',#903,1.15);
#351=CIRCLE('',#904,1.15);
#352=CIRCLE('',#907,1.15);
#353=CIRCLE('',#908,1.15);
#354=CIRCLE('',#911,1.15);
#355=CIRCLE('',#912,1.15);
#356=CIRCLE('',#915,1.15);
#357=CIRCLE('',#916,1.15);
#358=CIRCLE('',#920,1.28000000000001);
#359=CIRCLE('',#923,1.28);
#360=CIRCLE('',#926,1.28000000000001);
#361=CIRCLE('',#929,1.28000000000001);
#362=CIRCLE('',#931,1.15);
#363=CIRCLE('',#934,1.15);
#364=CIRCLE('',#937,1.15);
#365=CIRCLE('',#938,1.15);
#366=CIRCLE('',#941,1.15);
#367=CIRCLE('',#942,1.15);
#368=CIRCLE('',#945,1.15);
#369=CIRCLE('',#948,1.15);
#370=CIRCLE('',#951,1.15);
#371=CIRCLE('',#952,1.15);
#372=CIRCLE('',#955,1.15);
#373=CIRCLE('',#956,1.15);
#374=VERTEX_POINT('',#1231);
#375=VERTEX_POINT('',#1233);
#376=VERTEX_POINT('',#1238);
#377=VERTEX_POINT('',#1240);
#378=VERTEX_POINT('',#1245);
#379=VERTEX_POINT('',#1246);
#380=VERTEX_POINT('',#1248);
#381=VERTEX_POINT('',#1250);
#382=VERTEX_POINT('',#1254);
#383=VERTEX_POINT('',#1256);
#384=VERTEX_POINT('',#1260);
#385=VERTEX_POINT('',#1262);
#386=VERTEX_POINT('',#1269);
#387=VERTEX_POINT('',#1270);
#388=VERTEX_POINT('',#1272);
#389=VERTEX_POINT('',#1274);
#390=VERTEX_POINT('',#1278);
#391=VERTEX_POINT('',#1280);
#392=VERTEX_POINT('',#1283);
#393=VERTEX_POINT('',#1284);
#394=VERTEX_POINT('',#1286);
#395=VERTEX_POINT('',#1288);
#396=VERTEX_POINT('',#1290);
#397=VERTEX_POINT('',#1292);
#398=VERTEX_POINT('',#1294);
#399=VERTEX_POINT('',#1296);
#400=VERTEX_POINT('',#1299);
#401=VERTEX_POINT('',#1301);
#402=VERTEX_POINT('',#1303);
#403=VERTEX_POINT('',#1305);
#404=VERTEX_POINT('',#1308);
#405=VERTEX_POINT('',#1310);
#406=VERTEX_POINT('',#1312);
#407=VERTEX_POINT('',#1314);
#408=VERTEX_POINT('',#1316);
#409=VERTEX_POINT('',#1318);
#410=VERTEX_POINT('',#1320);
#411=VERTEX_POINT('',#1324);
#412=VERTEX_POINT('',#1328);
#413=VERTEX_POINT('',#1330);
#414=VERTEX_POINT('',#1335);
#415=VERTEX_POINT('',#1337);
#416=VERTEX_POINT('',#1342);
#417=VERTEX_POINT('',#1344);
#418=VERTEX_POINT('',#1349);
#419=VERTEX_POINT('',#1351);
#420=VERTEX_POINT('',#1356);
#421=VERTEX_POINT('',#1358);
#422=VERTEX_POINT('',#1363);
#423=VERTEX_POINT('',#1364);
#424=VERTEX_POINT('',#1369);
#425=VERTEX_POINT('',#1373);
#426=VERTEX_POINT('',#1377);
#427=VERTEX_POINT('',#1381);
#428=VERTEX_POINT('',#1385);
#429=VERTEX_POINT('',#1389);
#430=VERTEX_POINT('',#1395);
#431=VERTEX_POINT('',#1400);
#432=VERTEX_POINT('',#1405);
#433=VERTEX_POINT('',#1407);
#434=VERTEX_POINT('',#1412);
#435=VERTEX_POINT('',#1414);
#436=VERTEX_POINT('',#1419);
#437=VERTEX_POINT('',#1424);
#438=VERTEX_POINT('',#1429);
#439=VERTEX_POINT('',#1431);
#440=VERTEX_POINT('',#1436);
#441=VERTEX_POINT('',#1438);
#442=VERTEX_POINT('',#1443);
#443=VERTEX_POINT('',#1445);
#444=VERTEX_POINT('',#1449);
#445=VERTEX_POINT('',#1453);
#446=VERTEX_POINT('',#1457);
#447=VERTEX_POINT('',#1463);
#448=EDGE_CURVE('',#374,#374,#332,.T.);
#449=EDGE_CURVE('',#374,#375,#194,.T.);
#450=EDGE_CURVE('',#375,#375,#333,.T.);
#451=EDGE_CURVE('',#376,#376,#334,.T.);
#452=EDGE_CURVE('',#376,#377,#195,.T.);
#453=EDGE_CURVE('',#377,#377,#335,.T.);
#454=EDGE_CURVE('',#378,#379,#196,.T.);
#455=EDGE_CURVE('',#380,#378,#197,.T.);
#456=EDGE_CURVE('',#381,#380,#198,.T.);
#457=EDGE_CURVE('',#381,#379,#199,.T.);
#458=EDGE_CURVE('',#379,#382,#200,.T.);
#459=EDGE_CURVE('',#383,#381,#201,.T.);
#460=EDGE_CURVE('',#383,#382,#202,.T.);
#461=EDGE_CURVE('',#382,#384,#203,.T.);
#462=EDGE_CURVE('',#385,#383,#204,.T.);
#463=EDGE_CURVE('',#385,#384,#205,.T.);
#464=EDGE_CURVE('',#384,#378,#206,.T.);
#465=EDGE_CURVE('',#380,#385,#207,.T.);
#466=EDGE_CURVE('',#386,#387,#336,.T.);
#467=EDGE_CURVE('',#387,#388,#208,.T.);
#468=EDGE_CURVE('',#388,#389,#337,.T.);
#469=EDGE_CURVE('',#389,#386,#209,.T.);
#470=EDGE_CURVE('',#389,#390,#210,.T.);
#471=EDGE_CURVE('',#391,#390,#211,.T.);
#472=EDGE_CURVE('',#386,#391,#212,.T.);
#473=EDGE_CURVE('',#392,#393,#213,.T.);
#474=EDGE_CURVE('',#393,#394,#338,.T.);
#475=EDGE_CURVE('',#394,#395,#214,.T.);
#476=EDGE_CURVE('',#395,#396,#339,.T.);
#477=EDGE_CURVE('',#396,#397,#215,.T.);
#478=EDGE_CURVE('',#397,#398,#340,.T.);
#479=EDGE_CURVE('',#398,#399,#216,.T.);
#480=EDGE_CURVE('',#399,#392,#341,.T.);
#481=EDGE_CURVE('',#400,#400,#342,.T.);
#482=EDGE_CURVE('',#401,#401,#343,.T.);
#483=EDGE_CURVE('',#402,#402,#344,.T.);
#484=EDGE_CURVE('',#403,#403,#345,.T.);
#485=EDGE_CURVE('',#404,#388,#217,.T.);
#486=EDGE_CURVE('',#405,#404,#218,.T.);
#487=EDGE_CURVE('',#405,#406,#219,.T.);
#488=EDGE_CURVE('',#406,#407,#220,.T.);
#489=EDGE_CURVE('',#407,#408,#221,.T.);
#490=EDGE_CURVE('',#409,#408,#222,.T.);
#491=EDGE_CURVE('',#410,#409,#223,.T.);
#492=EDGE_CURVE('',#390,#410,#346,.T.);
#493=EDGE_CURVE('',#411,#391,#347,.T.);
#494=EDGE_CURVE('',#410,#411,#224,.T.);
#495=EDGE_CURVE('',#412,#412,#348,.T.);
#496=EDGE_CURVE('',#412,#413,#225,.T.);
#497=EDGE_CURVE('',#413,#413,#349,.T.);
#498=EDGE_CURVE('',#414,#414,#350,.T.);
#499=EDGE_CURVE('',#414,#415,#226,.T.);
#500=EDGE_CURVE('',#415,#415,#351,.T.);
#501=EDGE_CURVE('',#416,#416,#352,.T.);
#502=EDGE_CURVE('',#416,#417,#227,.T.);
#503=EDGE_CURVE('',#417,#417,#353,.T.);
#504=EDGE_CURVE('',#418,#418,#354,.T.);
#505=EDGE_CURVE('',#418,#419,#228,.T.);
#506=EDGE_CURVE('',#419,#419,#355,.T.);
#507=EDGE_CURVE('',#420,#420,#356,.T.);
#508=EDGE_CURVE('',#420,#421,#229,.T.);
#509=EDGE_CURVE('',#421,#421,#357,.T.);
#510=EDGE_CURVE('',#422,#423,#230,.T.);
#511=EDGE_CURVE('',#397,#422,#231,.T.);
#512=EDGE_CURVE('',#396,#423,#232,.T.);
#513=EDGE_CURVE('',#423,#424,#358,.T.);
#514=EDGE_CURVE('',#395,#424,#233,.T.);
#515=EDGE_CURVE('',#424,#425,#234,.T.);
#516=EDGE_CURVE('',#394,#425,#235,.T.);
#517=EDGE_CURVE('',#425,#426,#359,.T.);
#518=EDGE_CURVE('',#393,#426,#236,.T.);
#519=EDGE_CURVE('',#426,#427,#237,.T.);
#520=EDGE_CURVE('',#392,#427,#238,.T.);
#521=EDGE_CURVE('',#427,#428,#360,.T.);
#522=EDGE_CURVE('',#399,#428,#239,.T.);
#523=EDGE_CURVE('',#428,#429,#240,.T.);
#524=EDGE_CURVE('',#398,#429,#241,.T.);
#525=EDGE_CURVE('',#429,#422,#361,.T.);
#526=EDGE_CURVE('',#400,#430,#242,.T.);
#527=EDGE_CURVE('',#430,#430,#362,.T.);
#528=EDGE_CURVE('',#401,#431,#243,.T.);
#529=EDGE_CURVE('',#431,#431,#363,.T.);
#530=EDGE_CURVE('',#432,#432,#364,.T.);
#531=EDGE_CURVE('',#432,#433,#244,.T.);
#532=EDGE_CURVE('',#433,#433,#365,.T.);
#533=EDGE_CURVE('',#434,#434,#366,.T.);
#534=EDGE_CURVE('',#434,#435,#245,.T.);
#535=EDGE_CURVE('',#435,#435,#367,.T.);
#536=EDGE_CURVE('',#402,#436,#246,.T.);
#537=EDGE_CURVE('',#436,#436,#368,.T.);
#538=EDGE_CURVE('',#403,#437,#247,.T.);
#539=EDGE_CURVE('',#437,#437,#369,.T.);
#540=EDGE_CURVE('',#438,#438,#370,.T.);
#541=EDGE_CURVE('',#438,#439,#248,.T.);
#542=EDGE_CURVE('',#439,#439,#371,.T.);
#543=EDGE_CURVE('',#440,#440,#372,.T.);
#544=EDGE_CURVE('',#440,#441,#249,.T.);
#545=EDGE_CURVE('',#441,#441,#373,.T.);
#546=EDGE_CURVE('',#405,#442,#250,.T.);
#547=EDGE_CURVE('',#443,#442,#251,.T.);
#548=EDGE_CURVE('',#406,#443,#252,.T.);
#549=EDGE_CURVE('',#444,#443,#253,.T.);
#550=EDGE_CURVE('',#407,#444,#254,.T.);
#551=EDGE_CURVE('',#445,#444,#255,.T.);
#552=EDGE_CURVE('',#408,#445,#256,.T.);
#553=EDGE_CURVE('',#446,#445,#257,.T.);
#554=EDGE_CURVE('',#409,#446,#258,.T.);
#555=EDGE_CURVE('',#411,#446,#259,.T.);
#556=EDGE_CURVE('',#447,#387,#260,.T.);
#557=EDGE_CURVE('',#404,#447,#261,.T.);
#558=EDGE_CURVE('',#442,#447,#262,.T.);
#559=ORIENTED_EDGE('',*,*,#448,.F.);
#560=ORIENTED_EDGE('',*,*,#449,.T.);
#561=ORIENTED_EDGE('',*,*,#450,.T.);
#562=ORIENTED_EDGE('',*,*,#449,.F.);
#563=ORIENTED_EDGE('',*,*,#450,.F.);
#564=ORIENTED_EDGE('',*,*,#451,.F.);
#565=ORIENTED_EDGE('',*,*,#452,.T.);
#566=ORIENTED_EDGE('',*,*,#453,.T.);
#567=ORIENTED_EDGE('',*,*,#452,.F.);
#568=ORIENTED_EDGE('',*,*,#453,.F.);
#569=ORIENTED_EDGE('',*,*,#454,.F.);
#570=ORIENTED_EDGE('',*,*,#455,.F.);
#571=ORIENTED_EDGE('',*,*,#456,.F.);
#572=ORIENTED_EDGE('',*,*,#457,.T.);
#573=ORIENTED_EDGE('',*,*,#458,.F.);
#574=ORIENTED_EDGE('',*,*,#457,.F.);
#575=ORIENTED_EDGE('',*,*,#459,.F.);
#576=ORIENTED_EDGE('',*,*,#460,.T.);
#577=ORIENTED_EDGE('',*,*,#461,.F.);
#578=ORIENTED_EDGE('',*,*,#460,.F.);
#579=ORIENTED_EDGE('',*,*,#462,.F.);
#580=ORIENTED_EDGE('',*,*,#463,.T.);
#581=ORIENTED_EDGE('',*,*,#464,.F.);
#582=ORIENTED_EDGE('',*,*,#463,.F.);
#583=ORIENTED_EDGE('',*,*,#465,.F.);
#584=ORIENTED_EDGE('',*,*,#455,.T.);
#585=ORIENTED_EDGE('',*,*,#466,.T.);
#586=ORIENTED_EDGE('',*,*,#467,.T.);
#587=ORIENTED_EDGE('',*,*,#468,.T.);
#588=ORIENTED_EDGE('',*,*,#469,.T.);
#589=ORIENTED_EDGE('',*,*,#469,.F.);
#590=ORIENTED_EDGE('',*,*,#470,.T.);
#591=ORIENTED_EDGE('',*,*,#471,.F.);
#592=ORIENTED_EDGE('',*,*,#472,.F.);
#593=ORIENTED_EDGE('',*,*,#473,.T.);
#594=ORIENTED_EDGE('',*,*,#474,.T.);
#595=ORIENTED_EDGE('',*,*,#475,.T.);
#596=ORIENTED_EDGE('',*,*,#476,.T.);
#597=ORIENTED_EDGE('',*,*,#477,.T.);
#598=ORIENTED_EDGE('',*,*,#478,.T.);
#599=ORIENTED_EDGE('',*,*,#479,.T.);
#600=ORIENTED_EDGE('',*,*,#480,.T.);
#601=ORIENTED_EDGE('',*,*,#481,.T.);
#602=ORIENTED_EDGE('',*,*,#482,.T.);
#603=ORIENTED_EDGE('',*,*,#483,.T.);
#604=ORIENTED_EDGE('',*,*,#484,.T.);
#605=ORIENTED_EDGE('',*,*,#468,.F.);
#606=ORIENTED_EDGE('',*,*,#485,.F.);
#607=ORIENTED_EDGE('',*,*,#486,.F.);
#608=ORIENTED_EDGE('',*,*,#487,.T.);
#609=ORIENTED_EDGE('',*,*,#488,.T.);
#610=ORIENTED_EDGE('',*,*,#489,.T.);
#611=ORIENTED_EDGE('',*,*,#490,.F.);
#612=ORIENTED_EDGE('',*,*,#491,.F.);
#613=ORIENTED_EDGE('',*,*,#492,.F.);
#614=ORIENTED_EDGE('',*,*,#470,.F.);
#615=ORIENTED_EDGE('',*,*,#493,.T.);
#616=ORIENTED_EDGE('',*,*,#471,.T.);
#617=ORIENTED_EDGE('',*,*,#492,.T.);
#618=ORIENTED_EDGE('',*,*,#494,.T.);
#619=ORIENTED_EDGE('',*,*,#495,.F.);
#620=ORIENTED_EDGE('',*,*,#496,.T.);
#621=ORIENTED_EDGE('',*,*,#497,.T.);
#622=ORIENTED_EDGE('',*,*,#496,.F.);
#623=ORIENTED_EDGE('',*,*,#497,.F.);
#624=ORIENTED_EDGE('',*,*,#498,.F.);
#625=ORIENTED_EDGE('',*,*,#499,.T.);
#626=ORIENTED_EDGE('',*,*,#500,.T.);
#627=ORIENTED_EDGE('',*,*,#499,.F.);
#628=ORIENTED_EDGE('',*,*,#500,.F.);
#629=ORIENTED_EDGE('',*,*,#501,.F.);
#630=ORIENTED_EDGE('',*,*,#502,.T.);
#631=ORIENTED_EDGE('',*,*,#503,.T.);
#632=ORIENTED_EDGE('',*,*,#502,.F.);
#633=ORIENTED_EDGE('',*,*,#503,.F.);
#634=ORIENTED_EDGE('',*,*,#504,.F.);
#635=ORIENTED_EDGE('',*,*,#505,.T.);
#636=ORIENTED_EDGE('',*,*,#506,.T.);
#637=ORIENTED_EDGE('',*,*,#505,.F.);
#638=ORIENTED_EDGE('',*,*,#506,.F.);
#639=ORIENTED_EDGE('',*,*,#507,.F.);
#640=ORIENTED_EDGE('',*,*,#508,.T.);
#641=ORIENTED_EDGE('',*,*,#509,.T.);
#642=ORIENTED_EDGE('',*,*,#508,.F.);
#643=ORIENTED_EDGE('',*,*,#509,.F.);
#644=ORIENTED_EDGE('',*,*,#510,.F.);
#645=ORIENTED_EDGE('',*,*,#511,.F.);
#646=ORIENTED_EDGE('',*,*,#477,.F.);
#647=ORIENTED_EDGE('',*,*,#512,.T.);
#648=ORIENTED_EDGE('',*,*,#513,.F.);
#649=ORIENTED_EDGE('',*,*,#512,.F.);
#650=ORIENTED_EDGE('',*,*,#476,.F.);
#651=ORIENTED_EDGE('',*,*,#514,.T.);
#652=ORIENTED_EDGE('',*,*,#515,.F.);
#653=ORIENTED_EDGE('',*,*,#514,.F.);
#654=ORIENTED_EDGE('',*,*,#475,.F.);
#655=ORIENTED_EDGE('',*,*,#516,.T.);
#656=ORIENTED_EDGE('',*,*,#517,.F.);
#657=ORIENTED_EDGE('',*,*,#516,.F.);
#658=ORIENTED_EDGE('',*,*,#474,.F.);
#659=ORIENTED_EDGE('',*,*,#518,.T.);
#660=ORIENTED_EDGE('',*,*,#519,.F.);
#661=ORIENTED_EDGE('',*,*,#518,.F.);
#662=ORIENTED_EDGE('',*,*,#473,.F.);
#663=ORIENTED_EDGE('',*,*,#520,.T.);
#664=ORIENTED_EDGE('',*,*,#521,.F.);
#665=ORIENTED_EDGE('',*,*,#520,.F.);
#666=ORIENTED_EDGE('',*,*,#480,.F.);
#667=ORIENTED_EDGE('',*,*,#522,.T.);
#668=ORIENTED_EDGE('',*,*,#523,.F.);
#669=ORIENTED_EDGE('',*,*,#522,.F.);
#670=ORIENTED_EDGE('',*,*,#479,.F.);
#671=ORIENTED_EDGE('',*,*,#524,.T.);
#672=ORIENTED_EDGE('',*,*,#525,.F.);
#673=ORIENTED_EDGE('',*,*,#524,.F.);
#674=ORIENTED_EDGE('',*,*,#478,.F.);
#675=ORIENTED_EDGE('',*,*,#511,.T.);
#676=ORIENTED_EDGE('',*,*,#481,.F.);
#677=ORIENTED_EDGE('',*,*,#526,.T.);
#678=ORIENTED_EDGE('',*,*,#527,.T.);
#679=ORIENTED_EDGE('',*,*,#526,.F.);
#680=ORIENTED_EDGE('',*,*,#527,.F.);
#681=ORIENTED_EDGE('',*,*,#482,.F.);
#682=ORIENTED_EDGE('',*,*,#528,.T.);
#683=ORIENTED_EDGE('',*,*,#529,.T.);
#684=ORIENTED_EDGE('',*,*,#528,.F.);
#685=ORIENTED_EDGE('',*,*,#529,.F.);
#686=ORIENTED_EDGE('',*,*,#530,.F.);
#687=ORIENTED_EDGE('',*,*,#531,.T.);
#688=ORIENTED_EDGE('',*,*,#532,.T.);
#689=ORIENTED_EDGE('',*,*,#531,.F.);
#690=ORIENTED_EDGE('',*,*,#532,.F.);
#691=ORIENTED_EDGE('',*,*,#533,.F.);
#692=ORIENTED_EDGE('',*,*,#534,.T.);
#693=ORIENTED_EDGE('',*,*,#535,.T.);
#694=ORIENTED_EDGE('',*,*,#534,.F.);
#695=ORIENTED_EDGE('',*,*,#535,.F.);
#696=ORIENTED_EDGE('',*,*,#483,.F.);
#697=ORIENTED_EDGE('',*,*,#536,.T.);
#698=ORIENTED_EDGE('',*,*,#537,.T.);
#699=ORIENTED_EDGE('',*,*,#536,.F.);
#700=ORIENTED_EDGE('',*,*,#537,.F.);
#701=ORIENTED_EDGE('',*,*,#484,.F.);
#702=ORIENTED_EDGE('',*,*,#538,.T.);
#703=ORIENTED_EDGE('',*,*,#539,.T.);
#704=ORIENTED_EDGE('',*,*,#538,.F.);
#705=ORIENTED_EDGE('',*,*,#539,.F.);
#706=ORIENTED_EDGE('',*,*,#540,.F.);
#707=ORIENTED_EDGE('',*,*,#541,.T.);
#708=ORIENTED_EDGE('',*,*,#542,.T.);
#709=ORIENTED_EDGE('',*,*,#541,.F.);
#710=ORIENTED_EDGE('',*,*,#542,.F.);
#711=ORIENTED_EDGE('',*,*,#543,.F.);
#712=ORIENTED_EDGE('',*,*,#544,.T.);
#713=ORIENTED_EDGE('',*,*,#545,.T.);
#714=ORIENTED_EDGE('',*,*,#544,.F.);
#715=ORIENTED_EDGE('',*,*,#545,.F.);
#716=ORIENTED_EDGE('',*,*,#487,.F.);
#717=ORIENTED_EDGE('',*,*,#546,.T.);
#718=ORIENTED_EDGE('',*,*,#547,.F.);
#719=ORIENTED_EDGE('',*,*,#548,.F.);
#720=ORIENTED_EDGE('',*,*,#488,.F.);
#721=ORIENTED_EDGE('',*,*,#548,.T.);
#722=ORIENTED_EDGE('',*,*,#549,.F.);
#723=ORIENTED_EDGE('',*,*,#550,.F.);
#724=ORIENTED_EDGE('',*,*,#519,.T.);
#725=ORIENTED_EDGE('',*,*,#521,.T.);
#726=ORIENTED_EDGE('',*,*,#523,.T.);
#727=ORIENTED_EDGE('',*,*,#525,.T.);
#728=ORIENTED_EDGE('',*,*,#510,.T.);
#729=ORIENTED_EDGE('',*,*,#513,.T.);
#730=ORIENTED_EDGE('',*,*,#515,.T.);
#731=ORIENTED_EDGE('',*,*,#517,.T.);
#732=ORIENTED_EDGE('',*,*,#489,.F.);
#733=ORIENTED_EDGE('',*,*,#550,.T.);
#734=ORIENTED_EDGE('',*,*,#551,.F.);
#735=ORIENTED_EDGE('',*,*,#552,.F.);
#736=ORIENTED_EDGE('',*,*,#461,.T.);
#737=ORIENTED_EDGE('',*,*,#464,.T.);
#738=ORIENTED_EDGE('',*,*,#454,.T.);
#739=ORIENTED_EDGE('',*,*,#458,.T.);
#740=ORIENTED_EDGE('',*,*,#490,.T.);
#741=ORIENTED_EDGE('',*,*,#552,.T.);
#742=ORIENTED_EDGE('',*,*,#553,.F.);
#743=ORIENTED_EDGE('',*,*,#554,.F.);
#744=ORIENTED_EDGE('',*,*,#507,.T.);
#745=ORIENTED_EDGE('',*,*,#494,.F.);
#746=ORIENTED_EDGE('',*,*,#491,.T.);
#747=ORIENTED_EDGE('',*,*,#554,.T.);
#748=ORIENTED_EDGE('',*,*,#555,.F.);
#749=ORIENTED_EDGE('',*,*,#448,.T.);
#750=ORIENTED_EDGE('',*,*,#451,.T.);
#751=ORIENTED_EDGE('',*,*,#462,.T.);
#752=ORIENTED_EDGE('',*,*,#459,.T.);
#753=ORIENTED_EDGE('',*,*,#456,.T.);
#754=ORIENTED_EDGE('',*,*,#465,.T.);
#755=ORIENTED_EDGE('',*,*,#530,.T.);
#756=ORIENTED_EDGE('',*,*,#533,.T.);
#757=ORIENTED_EDGE('',*,*,#467,.F.);
#758=ORIENTED_EDGE('',*,*,#556,.F.);
#759=ORIENTED_EDGE('',*,*,#557,.F.);
#760=ORIENTED_EDGE('',*,*,#485,.T.);
#761=ORIENTED_EDGE('',*,*,#540,.T.);
#762=ORIENTED_EDGE('',*,*,#543,.T.);
#763=ORIENTED_EDGE('',*,*,#486,.T.);
#764=ORIENTED_EDGE('',*,*,#557,.T.);
#765=ORIENTED_EDGE('',*,*,#558,.F.);
#766=ORIENTED_EDGE('',*,*,#546,.F.);
#767=ORIENTED_EDGE('',*,*,#504,.T.);
#768=ORIENTED_EDGE('',*,*,#466,.F.);
#769=ORIENTED_EDGE('',*,*,#472,.T.);
#770=ORIENTED_EDGE('',*,*,#493,.F.);
#771=ORIENTED_EDGE('',*,*,#555,.T.);
#772=ORIENTED_EDGE('',*,*,#553,.T.);
#773=ORIENTED_EDGE('',*,*,#551,.T.);
#774=ORIENTED_EDGE('',*,*,#549,.T.);
#775=ORIENTED_EDGE('',*,*,#547,.T.);
#776=ORIENTED_EDGE('',*,*,#558,.T.);
#777=ORIENTED_EDGE('',*,*,#556,.T.);
#778=ORIENTED_EDGE('',*,*,#495,.T.);
#779=ORIENTED_EDGE('',*,*,#498,.T.);
#780=ORIENTED_EDGE('',*,*,#501,.T.);
#781=CYLINDRICAL_SURFACE('',#870,1.15);
#782=CYLINDRICAL_SURFACE('',#874,1.15);
#783=CYLINDRICAL_SURFACE('',#882,1.28);
#784=CYLINDRICAL_SURFACE('',#896,1.28);
#785=CYLINDRICAL_SURFACE('',#898,1.15);
#786=CYLINDRICAL_SURFACE('',#902,1.15);
#787=CYLINDRICAL_SURFACE('',#906,1.15);
#788=CYLINDRICAL_SURFACE('',#910,1.15);
#789=CYLINDRICAL_SURFACE('',#914,1.15);
#790=CYLINDRICAL_SURFACE('',#919,1.28000000000001);
#791=CYLINDRICAL_SURFACE('',#922,1.28);
#792=CYLINDRICAL_SURFACE('',#925,1.28000000000001);
#793=CYLINDRICAL_SURFACE('',#928,1.28000000000001);
#794=CYLINDRICAL_SURFACE('',#930,1.15);
#795=CYLINDRICAL_SURFACE('',#933,1.15);
#796=CYLINDRICAL_SURFACE('',#936,1.15);
#797=CYLINDRICAL_SURFACE('',#940,1.15);
#798=CYLINDRICAL_SURFACE('',#944,1.15);
#799=CYLINDRICAL_SURFACE('',#947,1.15);
#800=CYLINDRICAL_SURFACE('',#950,1.15);
#801=CYLINDRICAL_SURFACE('',#954,1.15);
#802=ADVANCED_FACE('',(#67),#781,.F.);
#803=ADVANCED_FACE('',(#68),#34,.T.);
#804=ADVANCED_FACE('',(#69),#782,.F.);
#805=ADVANCED_FACE('',(#70),#35,.T.);
#806=ADVANCED_FACE('',(#71),#36,.F.);
#807=ADVANCED_FACE('',(#72),#37,.F.);
#808=ADVANCED_FACE('',(#73),#38,.F.);
#809=ADVANCED_FACE('',(#74),#39,.F.);
#810=ADVANCED_FACE('',(#75),#783,.T.);
#811=ADVANCED_FACE('',(#76,#15,#16,#17,#18,#19),#40,.T.);
#812=ADVANCED_FACE('',(#77),#41,.F.);
#813=ADVANCED_FACE('',(#78),#784,.T.);
#814=ADVANCED_FACE('',(#79),#785,.F.);
#815=ADVANCED_FACE('',(#80),#42,.T.);
#816=ADVANCED_FACE('',(#81),#786,.F.);
#817=ADVANCED_FACE('',(#82),#43,.T.);
#818=ADVANCED_FACE('',(#83),#787,.F.);
#819=ADVANCED_FACE('',(#84),#44,.T.);
#820=ADVANCED_FACE('',(#85),#788,.F.);
#821=ADVANCED_FACE('',(#86),#45,.F.);
#822=ADVANCED_FACE('',(#87),#789,.F.);
#823=ADVANCED_FACE('',(#88),#46,.F.);
#824=ADVANCED_FACE('',(#89),#47,.F.);
#825=ADVANCED_FACE('',(#90),#790,.F.);
#826=ADVANCED_FACE('',(#91),#48,.F.);
#827=ADVANCED_FACE('',(#92),#791,.F.);
#828=ADVANCED_FACE('',(#93),#49,.F.);
#829=ADVANCED_FACE('',(#94),#792,.F.);
#830=ADVANCED_FACE('',(#95),#50,.F.);
#831=ADVANCED_FACE('',(#96),#793,.F.);
#832=ADVANCED_FACE('',(#97),#794,.F.);
#833=ADVANCED_FACE('',(#98),#51,.T.);
#834=ADVANCED_FACE('',(#99),#795,.F.);
#835=ADVANCED_FACE('',(#100),#52,.T.);
#836=ADVANCED_FACE('',(#101),#796,.F.);
#837=ADVANCED_FACE('',(#102),#53,.T.);
#838=ADVANCED_FACE('',(#103),#797,.F.);
#839=ADVANCED_FACE('',(#104),#54,.T.);
#840=ADVANCED_FACE('',(#105),#798,.F.);
#841=ADVANCED_FACE('',(#106),#55,.T.);
#842=ADVANCED_FACE('',(#107),#799,.F.);
#843=ADVANCED_FACE('',(#108),#56,.T.);
#844=ADVANCED_FACE('',(#109),#800,.F.);
#845=ADVANCED_FACE('',(#110),#57,.T.);
#846=ADVANCED_FACE('',(#111),#801,.F.);
#847=ADVANCED_FACE('',(#112),#58,.T.);
#848=ADVANCED_FACE('',(#113),#59,.T.);
#849=ADVANCED_FACE('',(#114,#20),#60,.T.);
#850=ADVANCED_FACE('',(#115,#21),#61,.T.);
#851=ADVANCED_FACE('',(#116,#22),#62,.T.);
#852=ADVANCED_FACE('',(#117,#23,#24,#25,#26,#27),#63,.T.);
#853=ADVANCED_FACE('',(#118,#28,#29),#64,.T.);
#854=ADVANCED_FACE('',(#119,#30),#65,.T.);
#855=ADVANCED_FACE('',(#120,#31,#32,#33),#66,.T.);
#856=CLOSED_SHELL('',(#802,#803,#804,#805,#806,#807,#808,#809,#810,#811,
#812,#813,#814,#815,#816,#817,#818,#819,#820,#821,#822,#823,#824,#825,#826,
#827,#828,#829,#830,#831,#832,#833,#834,#835,#836,#837,#838,#839,#840,#841,
#842,#843,#844,#845,#846,#847,#848,#849,#850,#851,#852,#853,#854,#855));
#857=DERIVED_UNIT_ELEMENT(#859,1.);
#858=DERIVED_UNIT_ELEMENT(#1474,-3.);
#859=(
MASS_UNIT()
NAMED_UNIT(*)
SI_UNIT(.KILO.,.GRAM.)
);
#860=DERIVED_UNIT((#857,#858));
#861=MEASURE_REPRESENTATION_ITEM('density measure',
POSITIVE_RATIO_MEASURE(7850.),#860);
#862=PROPERTY_DEFINITION_REPRESENTATION(#867,#864);
#863=PROPERTY_DEFINITION_REPRESENTATION(#868,#865);
#864=REPRESENTATION('material name',(#866),#1471);
#865=REPRESENTATION('density',(#861),#1471);
#866=DESCRIPTIVE_REPRESENTATION_ITEM('Steel','Steel');
#867=PROPERTY_DEFINITION('material property','material name',#1481);
#868=PROPERTY_DEFINITION('material property','density of part',#1481);
#869=AXIS2_PLACEMENT_3D('',#1229,#966,#967);
#870=AXIS2_PLACEMENT_3D('',#1230,#968,#969);
#871=AXIS2_PLACEMENT_3D('',#1232,#970,#971);
#872=AXIS2_PLACEMENT_3D('',#1235,#973,#974);
#873=AXIS2_PLACEMENT_3D('',#1236,#975,#976);
#874=AXIS2_PLACEMENT_3D('',#1237,#977,#978);
#875=AXIS2_PLACEMENT_3D('',#1239,#979,#980);
#876=AXIS2_PLACEMENT_3D('',#1242,#982,#983);
#877=AXIS2_PLACEMENT_3D('',#1243,#984,#985);
#878=AXIS2_PLACEMENT_3D('',#1244,#986,#987);
#879=AXIS2_PLACEMENT_3D('',#1253,#992,#993);
#880=AXIS2_PLACEMENT_3D('',#1259,#997,#998);
#881=AXIS2_PLACEMENT_3D('',#1265,#1002,#1003);
#882=AXIS2_PLACEMENT_3D('',#1268,#1006,#1007);
#883=AXIS2_PLACEMENT_3D('',#1271,#1008,#1009);
#884=AXIS2_PLACEMENT_3D('',#1275,#1011,#1012);
#885=AXIS2_PLACEMENT_3D('',#1277,#1014,#1015);
#886=AXIS2_PLACEMENT_3D('',#1287,#1020,#1021);
#887=AXIS2_PLACEMENT_3D('',#1291,#1023,#1024);
#888=AXIS2_PLACEMENT_3D('',#1295,#1026,#1027);
#889=AXIS2_PLACEMENT_3D('',#1298,#1029,#1030);
#890=AXIS2_PLACEMENT_3D('',#1300,#1031,#1032);
#891=AXIS2_PLACEMENT_3D('',#1302,#1033,#1034);
#892=AXIS2_PLACEMENT_3D('',#1304,#1035,#1036);
#893=AXIS2_PLACEMENT_3D('',#1306,#1037,#1038);
#894=AXIS2_PLACEMENT_3D('',#1307,#1039,#1040);
#895=AXIS2_PLACEMENT_3D('',#1322,#1048,#1049);
#896=AXIS2_PLACEMENT_3D('',#1323,#1050,#1051);
#897=AXIS2_PLACEMENT_3D('',#1325,#1052,#1053);
#898=AXIS2_PLACEMENT_3D('',#1327,#1055,#1056);
#899=AXIS2_PLACEMENT_3D('',#1329,#1057,#1058);
#900=AXIS2_PLACEMENT_3D('',#1332,#1060,#1061);
#901=AXIS2_PLACEMENT_3D('',#1333,#1062,#1063);
#902=AXIS2_PLACEMENT_3D('',#1334,#1064,#1065);
#903=AXIS2_PLACEMENT_3D('',#1336,#1066,#1067);
#904=AXIS2_PLACEMENT_3D('',#1339,#1069,#1070);
#905=AXIS2_PLACEMENT_3D('',#1340,#1071,#1072);
#906=AXIS2_PLACEMENT_3D('',#1341,#1073,#1074);
#907=AXIS2_PLACEMENT_3D('',#1343,#1075,#1076);
#908=AXIS2_PLACEMENT_3D('',#1346,#1078,#1079);
#909=AXIS2_PLACEMENT_3D('',#1347,#1080,#1081);
#910=AXIS2_PLACEMENT_3D('',#1348,#1082,#1083);
#911=AXIS2_PLACEMENT_3D('',#1350,#1084,#1085);
#912=AXIS2_PLACEMENT_3D('',#1353,#1087,#1088);
#913=AXIS2_PLACEMENT_3D('',#1354,#1089,#1090);
#914=AXIS2_PLACEMENT_3D('',#1355,#1091,#1092);
#915=AXIS2_PLACEMENT_3D('',#1357,#1093,#1094);
#916=AXIS2_PLACEMENT_3D('',#1360,#1096,#1097);
#917=AXIS2_PLACEMENT_3D('',#1361,#1098,#1099);
#918=AXIS2_PLACEMENT_3D('',#1362,#1100,#1101);
#919=AXIS2_PLACEMENT_3D('',#1368,#1105,#1106);
#920=AXIS2_PLACEMENT_3D('',#1370,#1107,#1108);
#921=AXIS2_PLACEMENT_3D('',#1372,#1110,#1111);
#922=AXIS2_PLACEMENT_3D('',#1376,#1114,#1115);
#923=AXIS2_PLACEMENT_3D('',#1378,#1116,#1117);
#924=AXIS2_PLACEMENT_3D('',#1380,#1119,#1120);
#925=AXIS2_PLACEMENT_3D('',#1384,#1123,#1124);
#926=AXIS2_PLACEMENT_3D('',#1386,#1125,#1126);
#927=AXIS2_PLACEMENT_3D('',#1388,#1128,#1129);
#928=AXIS2_PLACEMENT_3D('',#1392,#1132,#1133);
#929=AXIS2_PLACEMENT_3D('',#1393,#1134,#1135);
#930=AXIS2_PLACEMENT_3D('',#1394,#1136,#1137);
#931=AXIS2_PLACEMENT_3D('',#1397,#1139,#1140);
#932=AXIS2_PLACEMENT_3D('',#1398,#1141,#1142);
#933=AXIS2_PLACEMENT_3D('',#1399,#1143,#1144);
#934=AXIS2_PLACEMENT_3D('',#1402,#1146,#1147);
#935=AXIS2_PLACEMENT_3D('',#1403,#1148,#1149);
#936=AXIS2_PLACEMENT_3D('',#1404,#1150,#1151);
#937=AXIS2_PLACEMENT_3D('',#1406,#1152,#1153);
#938=AXIS2_PLACEMENT_3D('',#1409,#1155,#1156);
#939=AXIS2_PLACEMENT_3D('',#1410,#1157,#1158);
#940=AXIS2_PLACEMENT_3D('',#1411,#1159,#1160);
#941=AXIS2_PLACEMENT_3D('',#1413,#1161,#1162);
#942=AXIS2_PLACEMENT_3D('',#1416,#1164,#1165);
#943=AXIS2_PLACEMENT_3D('',#1417,#1166,#1167);
#944=AXIS2_PLACEMENT_3D('',#1418,#1168,#1169);
#945=AXIS2_PLACEMENT_3D('',#1421,#1171,#1172);
#946=AXIS2_PLACEMENT_3D('',#1422,#1173,#1174);
#947=AXIS2_PLACEMENT_3D('',#1423,#1175,#1176);
#948=AXIS2_PLACEMENT_3D('',#1426,#1178,#1179);
#949=AXIS2_PLACEMENT_3D('',#1427,#1180,#1181);
#950=AXIS2_PLACEMENT_3D('',#1428,#1182,#1183);
#951=AXIS2_PLACEMENT_3D('',#1430,#1184,#1185);
#952=AXIS2_PLACEMENT_3D('',#1433,#1187,#1188);
#953=AXIS2_PLACEMENT_3D('',#1434,#1189,#1190);
#954=AXIS2_PLACEMENT_3D('',#1435,#1191,#1192);
#955=AXIS2_PLACEMENT_3D('',#1437,#1193,#1194);
#956=AXIS2_PLACEMENT_3D('',#1440,#1196,#1197);
#957=AXIS2_PLACEMENT_3D('',#1441,#1198,#1199);
#958=AXIS2_PLACEMENT_3D('',#1442,#1200,#1201);
#959=AXIS2_PLACEMENT_3D('',#1448,#1205,#1206);
#960=AXIS2_PLACEMENT_3D('',#1452,#1209,#1210);
#961=AXIS2_PLACEMENT_3D('',#1456,#1213,#1214);
#962=AXIS2_PLACEMENT_3D('',#1460,#1217,#1218);
#963=AXIS2_PLACEMENT_3D('',#1462,#1220,#1221);
#964=AXIS2_PLACEMENT_3D('',#1466,#1224,#1225);
#965=AXIS2_PLACEMENT_3D('',#1468,#1227,#1228);
#966=DIRECTION('axis',(0.,0.,1.));
#967=DIRECTION('refdir',(1.,0.,0.));
#968=DIRECTION('center_axis',(1.,0.,0.));
#969=DIRECTION('ref_axis',(0.,-1.,0.));
#970=DIRECTION('center_axis',(1.,0.,0.));
#971=DIRECTION('ref_axis',(0.,-1.,0.));
#972=DIRECTION('',(1.,0.,0.));
#973=DIRECTION('center_axis',(1.,0.,0.));
#974=DIRECTION('ref_axis',(0.,-1.,0.));
#975=DIRECTION('center_axis',(-1.,0.,0.));
#976=DIRECTION('ref_axis',(0.,-1.,0.));
#977=DIRECTION('center_axis',(1.,0.,0.));
#978=DIRECTION('ref_axis',(0.,-1.,0.));
#979=DIRECTION('center_axis',(1.,0.,0.));
#980=DIRECTION('ref_axis',(0.,-1.,0.));
#981=DIRECTION('',(1.,0.,0.));
#982=DIRECTION('center_axis',(1.,0.,0.));
#983=DIRECTION('ref_axis',(0.,-1.,0.));
#984=DIRECTION('center_axis',(-1.,0.,0.));
#985=DIRECTION('ref_axis',(0.,-1.,0.));
#986=DIRECTION('center_axis',(0.,0.,1.));
#987=DIRECTION('ref_axis',(0.,-1.,0.));
#988=DIRECTION('',(0.,1.,0.));
#989=DIRECTION('',(1.,0.,0.));
#990=DIRECTION('',(0.,-1.,0.));
#991=DIRECTION('',(1.,0.,0.));
#992=DIRECTION('center_axis',(0.,1.,0.));
#993=DIRECTION('ref_axis',(0.,0.,1.));
#994=DIRECTION('',(0.,0.,-1.));
#995=DIRECTION('',(0.,0.,1.));
#996=DIRECTION('',(1.,0.,0.));
#997=DIRECTION('center_axis',(0.,0.,-1.));
#998=DIRECTION('ref_axis',(0.,1.,0.));
#999=DIRECTION('',(0.,-1.,0.));
#1000=DIRECTION('',(0.,1.,0.));
#1001=DIRECTION('',(1.,0.,0.));
#1002=DIRECTION('center_axis',(0.,-1.,0.));
#1003=DIRECTION('ref_axis',(0.,0.,-1.));
#1004=DIRECTION('',(0.,0.,1.));
#1005=DIRECTION('',(0.,0.,-1.));
#1006=DIRECTION('center_axis',(0.,0.,1.));
#1007=DIRECTION('ref_axis',(0.707106781186548,0.707106781186548,0.));
#1008=DIRECTION('center_axis',(0.,0.,-1.));
#1009=DIRECTION('ref_axis',(0.707106781186548,0.707106781186548,0.));
#1010=DIRECTION('',(0.,0.,-1.));
#1011=DIRECTION('center_axis',(0.,0.,1.));
#1012=DIRECTION('ref_axis',(0.707106781186548,0.707106781186548,0.));
#1013=DIRECTION('',(0.,0.,1.));
#1014=DIRECTION('center_axis',(0.,1.,0.));
#1015=DIRECTION('ref_axis',(-1.,0.,0.));
#1016=DIRECTION('',(-1.,0.,0.));
#1017=DIRECTION('',(0.,0.,-1.));
#1018=DIRECTION('',(-1.,0.,0.));
#1019=DIRECTION('',(0.,0.,-1.));
#1020=DIRECTION('center_axis',(0.,-1.,0.));
#1021=DIRECTION('ref_axis',(0.,0.,-1.));
#1022=DIRECTION('',(1.,0.,0.));
#1023=DIRECTION('center_axis',(0.,-1.,0.));
#1024=DIRECTION('ref_axis',(1.,0.,0.));
#1025=DIRECTION('',(-1.48029736616688E-14,0.,1.));
#1026=DIRECTION('center_axis',(0.,-1.,0.));
#1027=DIRECTION('ref_axis',(6.93889390390719E-15,0.,1.));
#1028=DIRECTION('',(-1.,0.,0.));
#1029=DIRECTION('center_axis',(0.,-1.,0.));
#1030=DIRECTION('ref_axis',(-1.,0.,6.07153216591878E-15));
#1031=DIRECTION('center_axis',(0.,-1.,0.));
#1032=DIRECTION('ref_axis',(-1.,0.,0.));
#1033=DIRECTION('center_axis',(0.,-1.,0.));
#1034=DIRECTION('ref_axis',(-1.,0.,0.));
#1035=DIRECTION('center_axis',(0.,-1.,0.));
#1036=DIRECTION('ref_axis',(-1.,0.,0.));
#1037=DIRECTION('center_axis',(0.,-1.,0.));
#1038=DIRECTION('ref_axis',(-1.,0.,0.));
#1039=DIRECTION('center_axis',(0.,0.,1.));
#1040=DIRECTION('ref_axis',(1.,0.,0.));
#1041=DIRECTION('',(0.,1.,0.));
#1042=DIRECTION('',(1.,0.,0.));
#1043=DIRECTION('',(0.,1.,0.));
#1044=DIRECTION('',(-1.,0.,0.));
#1045=DIRECTION('',(0.,-1.,0.));
#1046=DIRECTION('',(1.,0.,0.));
#1047=DIRECTION('',(0.,-1.,0.));
#1048=DIRECTION('center_axis',(0.,0.,1.));
#1049=DIRECTION('ref_axis',(-0.707106781186548,0.707106781186548,0.));
#1050=DIRECTION('center_axis',(0.,0.,1.));
#1051=DIRECTION('ref_axis',(-0.707106781186548,0.707106781186548,0.));
#1052=DIRECTION('center_axis',(0.,0.,-1.));
#1053=DIRECTION('ref_axis',(-0.707106781186548,0.707106781186548,0.));
#1054=DIRECTION('',(0.,0.,1.));
#1055=DIRECTION('center_axis',(0.,0.,-1.));
#1056=DIRECTION('ref_axis',(-1.,0.,0.));
#1057=DIRECTION('center_axis',(0.,0.,-1.));
#1058=DIRECTION('ref_axis',(-1.,0.,0.));
#1059=DIRECTION('',(0.,0.,-1.));
#1060=DIRECTION('center_axis',(0.,0.,-1.));
#1061=DIRECTION('ref_axis',(-1.,0.,0.));
#1062=DIRECTION('center_axis',(0.,0.,1.));
#1063=DIRECTION('ref_axis',(-1.,0.,0.));
#1064=DIRECTION('center_axis',(0.,0.,-1.));
#1065=DIRECTION('ref_axis',(-1.,0.,0.));
#1066=DIRECTION('center_axis',(0.,0.,-1.));
#1067=DIRECTION('ref_axis',(-1.,0.,0.));
#1068=DIRECTION('',(0.,0.,-1.));
#1069=DIRECTION('center_axis',(0.,0.,-1.));
#1070=DIRECTION('ref_axis',(-1.,0.,0.));
#1071=DIRECTION('center_axis',(0.,0.,1.));
#1072=DIRECTION('ref_axis',(-1.,0.,0.));
#1073=DIRECTION('center_axis',(0.,0.,-1.));
#1074=DIRECTION('ref_axis',(-1.,0.,0.));
#1075=DIRECTION('center_axis',(0.,0.,-1.));
#1076=DIRECTION('ref_axis',(-1.,0.,0.));
#1077=DIRECTION('',(0.,0.,-1.));
#1078=DIRECTION('center_axis',(0.,0.,-1.));
#1079=DIRECTION('ref_axis',(-1.,0.,0.));
#1080=DIRECTION('center_axis',(0.,0.,1.));
#1081=DIRECTION('ref_axis',(-1.,0.,0.));
#1082=DIRECTION('center_axis',(0.,1.,0.));
#1083=DIRECTION('ref_axis',(1.,0.,0.));
#1084=DIRECTION('center_axis',(0.,1.,0.));
#1085=DIRECTION('ref_axis',(1.,0.,0.));
#1086=DIRECTION('',(0.,1.,0.));
#1087=DIRECTION('center_axis',(0.,1.,0.));
#1088=DIRECTION('ref_axis',(1.,0.,0.));
#1089=DIRECTION('center_axis',(0.,1.,0.));
#1090=DIRECTION('ref_axis',(1.,0.,0.));
#1091=DIRECTION('center_axis',(0.,1.,0.));
#1092=DIRECTION('ref_axis',(1.,0.,0.));
#1093=DIRECTION('center_axis',(0.,1.,0.));
#1094=DIRECTION('ref_axis',(1.,0.,0.));
#1095=DIRECTION('',(0.,1.,0.));
#1096=DIRECTION('center_axis',(0.,1.,0.));
#1097=DIRECTION('ref_axis',(1.,0.,0.));
#1098=DIRECTION('center_axis',(0.,1.,0.));
#1099=DIRECTION('ref_axis',(1.,0.,0.));
#1100=DIRECTION('center_axis',(1.,0.,1.48029736616688E-14));
#1101=DIRECTION('ref_axis',(-1.48029736616688E-14,0.,1.));
#1102=DIRECTION('',(1.48029736616688E-14,0.,-1.));
#1103=DIRECTION('',(0.,-1.,0.));
#1104=DIRECTION('',(0.,-1.,0.));
#1105=DIRECTION('center_axis',(0.,-1.,0.));
#1106=DIRECTION('ref_axis',(1.,0.,0.));
#1107=DIRECTION('center_axis',(0.,1.,0.));
#1108=DIRECTION('ref_axis',(1.,0.,0.));
#1109=DIRECTION('',(0.,-1.,0.));
#1110=DIRECTION('center_axis',(0.,0.,-1.));
#1111=DIRECTION('ref_axis',(1.,0.,0.));
#1112=DIRECTION('',(-1.,0.,0.));
#1113=DIRECTION('',(0.,-1.,0.));
#1114=DIRECTION('center_axis',(0.,-1.,0.));
#1115=DIRECTION('ref_axis',(0.,0.,-1.));
#1116=DIRECTION('center_axis',(0.,1.,0.));
#1117=DIRECTION('ref_axis',(0.,0.,-1.));
#1118=DIRECTION('',(0.,-1.,0.));
#1119=DIRECTION('center_axis',(-1.,0.,0.));
#1120=DIRECTION('ref_axis',(0.,0.,-1.));
#1121=DIRECTION('',(0.,0.,1.));
#1122=DIRECTION('',(0.,-1.,0.));
#1123=DIRECTION('center_axis',(0.,-1.,0.));
#1124=DIRECTION('ref_axis',(-1.,0.,6.07153216591878E-15));
#1125=DIRECTION('center_axis',(0.,1.,0.));
#1126=DIRECTION('ref_axis',(-1.,0.,6.07153216591878E-15));
#1127=DIRECTION('',(0.,-1.,0.));
#1128=DIRECTION('center_axis',(0.,0.,1.));
#1129=DIRECTION('ref_axis',(-1.,0.,0.));
#1130=DIRECTION('',(1.,0.,0.));
#1131=DIRECTION('',(0.,-1.,0.));
#1132=DIRECTION('center_axis',(0.,-1.,0.));
#1133=DIRECTION('ref_axis',(6.93889390390719E-15,0.,1.));
#1134=DIRECTION('center_axis',(0.,1.,0.));
#1135=DIRECTION('ref_axis',(6.93889390390719E-15,0.,1.));
#1136=DIRECTION('center_axis',(0.,-1.,0.));
#1137=DIRECTION('ref_axis',(-1.,0.,0.));
#1138=DIRECTION('',(0.,-1.,0.));
#1139=DIRECTION('center_axis',(0.,-1.,0.));
#1140=DIRECTION('ref_axis',(-1.,0.,0.));
#1141=DIRECTION('center_axis',(0.,1.,0.));
#1142=DIRECTION('ref_axis',(-1.,0.,0.));
#1143=DIRECTION('center_axis',(0.,-1.,0.));
#1144=DIRECTION('ref_axis',(-1.,0.,0.));
#1145=DIRECTION('',(0.,-1.,0.));
#1146=DIRECTION('center_axis',(0.,-1.,0.));
#1147=DIRECTION('ref_axis',(-1.,0.,0.));
#1148=DIRECTION('center_axis',(0.,1.,0.));
#1149=DIRECTION('ref_axis',(-1.,0.,0.));
#1150=DIRECTION('center_axis',(1.,0.,0.));
#1151=DIRECTION('ref_axis',(0.,-1.,0.));
#1152=DIRECTION('center_axis',(1.,0.,0.));
#1153=DIRECTION('ref_axis',(0.,-1.,0.));
#1154=DIRECTION('',(1.,0.,0.));
#1155=DIRECTION('center_axis',(1.,0.,0.));
#1156=DIRECTION('ref_axis',(0.,-1.,0.));
#1157=DIRECTION('center_axis',(-1.,0.,0.));
#1158=DIRECTION('ref_axis',(0.,-1.,0.));
#1159=DIRECTION('center_axis',(1.,0.,0.));
#1160=DIRECTION('ref_axis',(0.,-1.,0.));
#1161=DIRECTION('center_axis',(1.,0.,0.));
#1162=DIRECTION('ref_axis',(0.,-1.,0.));
#1163=DIRECTION('',(1.,0.,0.));
#1164=DIRECTION('center_axis',(1.,0.,0.));
#1165=DIRECTION('ref_axis',(0.,-1.,0.));
#1166=DIRECTION('center_axis',(-1.,0.,0.));
#1167=DIRECTION('ref_axis',(0.,-1.,0.));
#1168=DIRECTION('center_axis',(0.,-1.,0.));
#1169=DIRECTION('ref_axis',(-1.,0.,0.));
#1170=DIRECTION('',(0.,-1.,0.));
#1171=DIRECTION('center_axis',(0.,-1.,0.));
#1172=DIRECTION('ref_axis',(-1.,0.,0.));
#1173=DIRECTION('center_axis',(0.,1.,0.));
#1174=DIRECTION('ref_axis',(-1.,0.,0.));
#1175=DIRECTION('center_axis',(0.,-1.,0.));
#1176=DIRECTION('ref_axis',(-1.,0.,0.));
#1177=DIRECTION('',(0.,-1.,0.));
#1178=DIRECTION('center_axis',(0.,-1.,0.));
#1179=DIRECTION('ref_axis',(-1.,0.,0.));
#1180=DIRECTION('center_axis',(0.,1.,0.));
#1181=DIRECTION('ref_axis',(-1.,0.,0.));
#1182=DIRECTION('center_axis',(-1.,0.,0.));
#1183=DIRECTION('ref_axis',(0.,1.,0.));
#1184=DIRECTION('center_axis',(-1.,0.,0.));
#1185=DIRECTION('ref_axis',(0.,1.,0.));
#1186=DIRECTION('',(-1.,0.,0.));
#1187=DIRECTION('center_axis',(-1.,0.,0.));
#1188=DIRECTION('ref_axis',(0.,1.,0.));
#1189=DIRECTION('center_axis',(1.,0.,0.));
#1190=DIRECTION('ref_axis',(0.,1.,0.));
#1191=DIRECTION('center_axis',(-1.,0.,0.));
#1192=DIRECTION('ref_axis',(0.,1.,0.));
#1193=DIRECTION('center_axis',(-1.,0.,0.));
#1194=DIRECTION('ref_axis',(0.,1.,0.));
#1195=DIRECTION('',(-1.,0.,0.));
#1196=DIRECTION('center_axis',(-1.,0.,0.));
#1197=DIRECTION('ref_axis',(0.,1.,0.));
#1198=DIRECTION('center_axis',(1.,0.,0.));
#1199=DIRECTION('ref_axis',(0.,1.,0.));
#1200=DIRECTION('center_axis',(-1.,0.,0.));
#1201=DIRECTION('ref_axis',(0.,-1.,0.));
#1202=DIRECTION('',(0.,0.,1.));
#1203=DIRECTION('',(0.,-1.,0.));
#1204=DIRECTION('',(0.,0.,1.));
#1205=DIRECTION('center_axis',(0.,-1.,0.));
#1206=DIRECTION('ref_axis',(1.,0.,0.));
#1207=DIRECTION('',(1.,0.,0.));
#1208=DIRECTION('',(0.,0.,1.));
#1209=DIRECTION('center_axis',(1.,0.,0.));
#1210=DIRECTION('ref_axis',(0.,1.,0.));
#1211=DIRECTION('',(0.,1.,0.));
#1212=DIRECTION('',(0.,0.,1.));
#1213=DIRECTION('center_axis',(0.,-1.,0.));
#1214=DIRECTION('ref_axis',(1.,0.,0.));
#1215=DIRECTION('',(1.,0.,0.));
#1216=DIRECTION('',(0.,0.,1.));
#1217=DIRECTION('center_axis',(-1.,0.,0.));
#1218=DIRECTION('ref_axis',(0.,-1.,0.));
#1219=DIRECTION('',(0.,-1.,0.));
#1220=DIRECTION('center_axis',(1.,0.,0.));
#1221=DIRECTION('ref_axis',(0.,1.,0.));
#1222=DIRECTION('',(0.,1.,0.));
#1223=DIRECTION('',(0.,0.,1.));
#1224=DIRECTION('center_axis',(0.,-1.,0.));
#1225=DIRECTION('ref_axis',(1.,0.,0.));
#1226=DIRECTION('',(1.,0.,0.));
#1227=DIRECTION('center_axis',(0.,0.,1.));
#1228=DIRECTION('ref_axis',(1.,0.,0.));
#1229=CARTESIAN_POINT('',(0.,0.,0.));
#1230=CARTESIAN_POINT('Origin',(0.,9.5,8.));
#1231=CARTESIAN_POINT('',(0.,10.65,8.));
#1232=CARTESIAN_POINT('Origin',(0.,9.5,8.));
#1233=CARTESIAN_POINT('',(1.7,10.65,8.));
#1234=CARTESIAN_POINT('',(0.,10.65,8.));
#1235=CARTESIAN_POINT('Origin',(1.7,9.5,8.));
#1236=CARTESIAN_POINT('Origin',(1.7,9.5,8.));
#1237=CARTESIAN_POINT('Origin',(0.,14.5,8.));
#1238=CARTESIAN_POINT('',(0.,15.65,8.));
#1239=CARTESIAN_POINT('Origin',(0.,14.5,8.));
#1240=CARTESIAN_POINT('',(1.7,15.65,8.));
#1241=CARTESIAN_POINT('',(0.,15.65,8.));
#1242=CARTESIAN_POINT('Origin',(1.7,14.5,8.));
#1243=CARTESIAN_POINT('Origin',(1.7,14.5,8.));
#1244=CARTESIAN_POINT('Origin',(0.,27.8320009537,5.405));
#1245=CARTESIAN_POINT('',(5.00000007450581,21.8320009537,5.405));
#1246=CARTESIAN_POINT('',(5.00000007450581,27.8320009537,5.405));
#1247=CARTESIAN_POINT('',(5.00000007450581,13.9160005141029,5.405));
#1248=CARTESIAN_POINT('',(0.,21.8320009537,5.405));
#1249=CARTESIAN_POINT('',(0.,21.8320009537,5.405));
#1250=CARTESIAN_POINT('',(0.,27.8320009537,5.405));
#1251=CARTESIAN_POINT('',(0.,45.91600047685,5.405));
#1252=CARTESIAN_POINT('',(0.,27.8320009537,5.405));
#1253=CARTESIAN_POINT('Origin',(0.,27.8320009537,0.405));
#1254=CARTESIAN_POINT('',(5.00000007450581,27.8320009537,0.405));
#1255=CARTESIAN_POINT('',(5.00000007450581,27.8320009537,0.2025));
#1256=CARTESIAN_POINT('',(0.,27.8320009537,0.405));
#1257=CARTESIAN_POINT('',(0.,27.8320009537,0.2025));
#1258=CARTESIAN_POINT('',(0.,27.8320009537,0.405));
#1259=CARTESIAN_POINT('Origin',(0.,21.8320009537,0.405));
#1260=CARTESIAN_POINT('',(5.00000007450581,21.8320009537,0.405));
#1261=CARTESIAN_POINT('',(5.00000007450581,10.9160005141029,0.405));
#1262=CARTESIAN_POINT('',(0.,21.8320009537,0.405));
#1263=CARTESIAN_POINT('',(0.,42.91600047685,0.405));
#1264=CARTESIAN_POINT('',(0.,21.8320009537,0.405));
#1265=CARTESIAN_POINT('Origin',(0.,21.8320009537,5.405));
#1266=CARTESIAN_POINT('',(5.00000007450581,21.8320009537,2.7025));
#1267=CARTESIAN_POINT('',(0.,21.8320009537,2.7025));
#1268=CARTESIAN_POINT('Origin',(102.72,62.72,0.));
#1269=CARTESIAN_POINT('',(102.72,64.,16.));
#1270=CARTESIAN_POINT('',(104.,62.72,16.));
#1271=CARTESIAN_POINT('Origin',(102.72,62.72,16.));
#1272=CARTESIAN_POINT('',(104.,62.72,0.));
#1273=CARTESIAN_POINT('',(104.,62.72,0.));
#1274=CARTESIAN_POINT('',(102.72,64.,0.));
#1275=CARTESIAN_POINT('Origin',(102.72,62.72,0.));
#1276=CARTESIAN_POINT('',(102.72,64.,0.));
#1277=CARTESIAN_POINT('Origin',(104.,64.,0.));
#1278=CARTESIAN_POINT('',(1.28,64.,0.));
#1279=CARTESIAN_POINT('',(104.,64.,0.));
#1280=CARTESIAN_POINT('',(1.28,64.,16.));
#1281=CARTESIAN_POINT('',(1.28,64.,0.));
#1282=CARTESIAN_POINT('',(104.,64.,16.));
#1283=CARTESIAN_POINT('',(46.569,64.,2.025));
#1284=CARTESIAN_POINT('',(46.569,64.,1.425));
#1285=CARTESIAN_POINT('',(46.569,64.,1.0125));
#1286=CARTESIAN_POINT('',(47.849,64.,0.145));
#1287=CARTESIAN_POINT('Origin',(47.849,64.,1.425));
#1288=CARTESIAN_POINT('',(54.289,64.,0.14499999999999));
#1289=CARTESIAN_POINT('',(75.9245,64.,0.145));
#1290=CARTESIAN_POINT('',(55.569,64.,1.425));
#1291=CARTESIAN_POINT('Origin',(54.289,64.,1.425));
#1292=CARTESIAN_POINT('',(55.569,64.,2.025));
#1293=CARTESIAN_POINT('',(55.569,64.,0.712499999999642));
#1294=CARTESIAN_POINT('',(54.289,64.,3.305));
#1295=CARTESIAN_POINT('Origin',(54.289,64.,2.02499999999999));
#1296=CARTESIAN_POINT('',(47.849,64.,3.305));
#1297=CARTESIAN_POINT('',(79.1445,64.,3.305));
#1298=CARTESIAN_POINT('Origin',(47.849,64.,2.02499999999999));
#1299=CARTESIAN_POINT('',(25.65,64.,8.));
#1300=CARTESIAN_POINT('Origin',(24.5,64.,8.));
#1301=CARTESIAN_POINT('',(20.65,64.,8.));
#1302=CARTESIAN_POINT('Origin',(19.5,64.,8.));
#1303=CARTESIAN_POINT('',(85.65,64.,8.));
#1304=CARTESIAN_POINT('Origin',(84.5,64.,8.));
#1305=CARTESIAN_POINT('',(80.65,64.,8.));
#1306=CARTESIAN_POINT('Origin',(79.5,64.,8.));
#1307=CARTESIAN_POINT('Origin',(52.,32.,0.));
#1308=CARTESIAN_POINT('',(104.,0.,0.));
#1309=CARTESIAN_POINT('',(104.,0.,0.));
#1310=CARTESIAN_POINT('',(99.0000000745058,7.45058059692383E-8,0.));
#1311=CARTESIAN_POINT('',(0.,0.,0.));
#1312=CARTESIAN_POINT('',(99.0000000745058,59.0000000745058,0.));
#1313=CARTESIAN_POINT('',(99.0000000745058,7.45058059692383E-8,0.));
#1314=CARTESIAN_POINT('',(5.00000007450581,59.0000000745058,0.));
#1315=CARTESIAN_POINT('',(99.0000000745058,59.0000000745058,0.));
#1316=CARTESIAN_POINT('',(5.00000007450581,7.45058059692383E-8,0.));
#1317=CARTESIAN_POINT('',(5.00000007450581,59.0000000745058,0.));
#1318=CARTESIAN_POINT('',(0.,0.,0.));
#1319=CARTESIAN_POINT('',(0.,0.,0.));
#1320=CARTESIAN_POINT('',(0.,62.72,0.));
#1321=CARTESIAN_POINT('',(0.,64.,0.));
#1322=CARTESIAN_POINT('Origin',(1.28,62.72,0.));
#1323=CARTESIAN_POINT('Origin',(1.28,62.72,0.));
#1324=CARTESIAN_POINT('',(0.,62.72,16.));
#1325=CARTESIAN_POINT('Origin',(1.28,62.72,16.));
#1326=CARTESIAN_POINT('',(0.,62.72,0.));
#1327=CARTESIAN_POINT('Origin',(2.5,32.,16.));
#1328=CARTESIAN_POINT('',(3.65,32.,16.));
#1329=CARTESIAN_POINT('Origin',(2.5,32.,16.));
#1330=CARTESIAN_POINT('',(3.65,32.,14.3));
#1331=CARTESIAN_POINT('',(3.65,32.,16.));
#1332=CARTESIAN_POINT('Origin',(2.5,32.,14.3));
#1333=CARTESIAN_POINT('Origin',(2.5,32.,14.3));
#1334=CARTESIAN_POINT('Origin',(52.,61.5,16.));
#1335=CARTESIAN_POINT('',(53.15,61.5,16.));
#1336=CARTESIAN_POINT('Origin',(52.,61.5,16.));
#1337=CARTESIAN_POINT('',(53.15,61.5,14.3));
#1338=CARTESIAN_POINT('',(53.15,61.5,16.));
#1339=CARTESIAN_POINT('Origin',(52.,61.5,14.3));
#1340=CARTESIAN_POINT('Origin',(52.,61.5,14.3));
#1341=CARTESIAN_POINT('Origin',(101.5,32.,16.));
#1342=CARTESIAN_POINT('',(102.65,32.,16.));
#1343=CARTESIAN_POINT('Origin',(101.5,32.,16.));
#1344=CARTESIAN_POINT('',(102.65,32.,14.3));
#1345=CARTESIAN_POINT('',(102.65,32.,16.));
#1346=CARTESIAN_POINT('Origin',(101.5,32.,14.3));
#1347=CARTESIAN_POINT('Origin',(101.5,32.,14.3));
#1348=CARTESIAN_POINT('Origin',(101.500001475215,0.,8.00000023841858));
#1349=CARTESIAN_POINT('',(100.350001475215,0.,8.00000023841858));
#1350=CARTESIAN_POINT('Origin',(101.500001475215,0.,8.00000023841858));
#1351=CARTESIAN_POINT('',(100.350001475215,1.7,8.00000023841858));
#1352=CARTESIAN_POINT('',(100.350001475215,0.,8.00000023841858));
#1353=CARTESIAN_POINT('Origin',(101.500001475215,1.7,8.00000023841858));
#1354=CARTESIAN_POINT('Origin',(101.500001475215,1.7,8.00000023841858));
#1355=CARTESIAN_POINT('Origin',(2.5,0.,8.));
#1356=CARTESIAN_POINT('',(1.35,0.,8.));
#1357=CARTESIAN_POINT('Origin',(2.5,0.,8.));
#1358=CARTESIAN_POINT('',(1.35,1.7,8.));
#1359=CARTESIAN_POINT('',(1.35,0.,8.));
#1360=CARTESIAN_POINT('Origin',(2.5,1.7,8.));
#1361=CARTESIAN_POINT('Origin',(2.5,1.7,8.));
#1362=CARTESIAN_POINT('Origin',(55.569,64.,1.425));
#1363=CARTESIAN_POINT('',(55.569,59.0000000745058,2.025));
#1364=CARTESIAN_POINT('',(55.569,59.0000000745058,1.425));
#1365=CARTESIAN_POINT('',(55.569,59.0000000745058,0.712500000000375));
#1366=CARTESIAN_POINT('',(55.569,64.,2.025));
#1367=CARTESIAN_POINT('',(55.569,64.,1.425));
#1368=CARTESIAN_POINT('Origin',(54.289,64.,1.425));
#1369=CARTESIAN_POINT('',(54.289,59.0000000745058,0.14499999999999));
#1370=CARTESIAN_POINT('Origin',(54.289,59.0000000745058,1.425));
#1371=CARTESIAN_POINT('',(54.289,64.,0.14499999999999));
#1372=CARTESIAN_POINT('Origin',(47.849,64.,0.145));
#1373=CARTESIAN_POINT('',(47.849,59.0000000745058,0.145));
#1374=CARTESIAN_POINT('',(26.4245000372529,59.0000000745058,0.145));
#1375=CARTESIAN_POINT('',(47.849,64.,0.145));
#1376=CARTESIAN_POINT('Origin',(47.849,64.,1.425));
#1377=CARTESIAN_POINT('',(46.569,59.0000000745058,1.425));
#1378=CARTESIAN_POINT('Origin',(47.849,59.0000000745058,1.425));
#1379=CARTESIAN_POINT('',(46.569,64.,1.425));
#1380=CARTESIAN_POINT('Origin',(46.569,64.,2.025));
#1381=CARTESIAN_POINT('',(46.569,59.0000000745058,2.025));
#1382=CARTESIAN_POINT('',(46.569,59.0000000745058,1.0125));
#1383=CARTESIAN_POINT('',(46.569,64.,2.025));
#1384=CARTESIAN_POINT('Origin',(47.849,64.,2.02499999999999));
#1385=CARTESIAN_POINT('',(47.849,59.0000000745058,3.305));
#1386=CARTESIAN_POINT('Origin',(47.849,59.0000000745058,2.02499999999999));
#1387=CARTESIAN_POINT('',(47.849,64.,3.305));
#1388=CARTESIAN_POINT('Origin',(54.289,64.,3.305));
#1389=CARTESIAN_POINT('',(54.289,59.0000000745058,3.305));
#1390=CARTESIAN_POINT('',(29.6445000372529,59.0000000745058,3.305));
#1391=CARTESIAN_POINT('',(54.289,64.,3.305));
#1392=CARTESIAN_POINT('Origin',(54.289,64.,2.02499999999999));
#1393=CARTESIAN_POINT('Origin',(54.289,59.0000000745058,2.02499999999999));
#1394=CARTESIAN_POINT('Origin',(24.5,64.,8.));
#1395=CARTESIAN_POINT('',(25.65,62.3,8.));
#1396=CARTESIAN_POINT('',(25.65,64.,8.));
#1397=CARTESIAN_POINT('Origin',(24.5,62.3,8.));
#1398=CARTESIAN_POINT('Origin',(24.5,62.3,8.));
#1399=CARTESIAN_POINT('Origin',(19.5,64.,8.));
#1400=CARTESIAN_POINT('',(20.65,62.3,8.));
#1401=CARTESIAN_POINT('',(20.65,64.,8.));
#1402=CARTESIAN_POINT('Origin',(19.5,62.3,8.));
#1403=CARTESIAN_POINT('Origin',(19.5,62.3,8.));
#1404=CARTESIAN_POINT('Origin',(0.,44.5,8.));
#1405=CARTESIAN_POINT('',(0.,45.65,8.));
#1406=CARTESIAN_POINT('Origin',(0.,44.5,8.));
#1407=CARTESIAN_POINT('',(1.7,45.65,8.));
#1408=CARTESIAN_POINT('',(0.,45.65,8.));
#1409=CARTESIAN_POINT('Origin',(1.7,44.5,8.));
#1410=CARTESIAN_POINT('Origin',(1.7,44.5,8.));
#1411=CARTESIAN_POINT('Origin',(0.,49.5,8.));
#1412=CARTESIAN_POINT('',(0.,50.65,8.));
#1413=CARTESIAN_POINT('Origin',(0.,49.5,8.));
#1414=CARTESIAN_POINT('',(1.7,50.65,8.));
#1415=CARTESIAN_POINT('',(0.,50.65,8.));
#1416=CARTESIAN_POINT('Origin',(1.7,49.5,8.));
#1417=CARTESIAN_POINT('Origin',(1.7,49.5,8.));
#1418=CARTESIAN_POINT('Origin',(84.5,64.,8.));
#1419=CARTESIAN_POINT('',(85.65,62.3,8.));
#1420=CARTESIAN_POINT('',(85.65,64.,8.));
#1421=CARTESIAN_POINT('Origin',(84.5,62.3,8.));
#1422=CARTESIAN_POINT('Origin',(84.5,62.3,8.));
#1423=CARTESIAN_POINT('Origin',(79.5,64.,8.));
#1424=CARTESIAN_POINT('',(80.65,62.3,8.));
#1425=CARTESIAN_POINT('',(80.65,64.,8.));
#1426=CARTESIAN_POINT('Origin',(79.5,62.3,8.));
#1427=CARTESIAN_POINT('Origin',(79.5,62.3,8.));
#1428=CARTESIAN_POINT('Origin',(104.,34.5,8.));
#1429=CARTESIAN_POINT('',(104.,33.35,8.));
#1430=CARTESIAN_POINT('Origin',(104.,34.5,8.));
#1431=CARTESIAN_POINT('',(102.3,33.35,8.));
#1432=CARTESIAN_POINT('',(104.,33.35,8.));
#1433=CARTESIAN_POINT('Origin',(102.3,34.5,8.));
#1434=CARTESIAN_POINT('Origin',(102.3,34.5,8.));
#1435=CARTESIAN_POINT('Origin',(104.,29.4695089720971,7.90476189198948));
#1436=CARTESIAN_POINT('',(104.,28.3195089720971,7.90476189198948));
#1437=CARTESIAN_POINT('Origin',(104.,29.4695089720971,7.90476189198948));
#1438=CARTESIAN_POINT('',(102.3,28.3195089720971,7.90476189198948));
#1439=CARTESIAN_POINT('',(104.,28.3195089720971,7.90476189198948));
#1440=CARTESIAN_POINT('Origin',(102.3,29.4695089720971,7.90476189198948));
#1441=CARTESIAN_POINT('Origin',(102.3,29.4695089720971,7.90476189198948));
#1442=CARTESIAN_POINT('Origin',(99.0000000745058,59.0000000745058,0.));
#1443=CARTESIAN_POINT('',(99.0000000745058,7.45058059692383E-8,16.));
#1444=CARTESIAN_POINT('',(99.0000000745058,7.45058059692383E-8,0.));
#1445=CARTESIAN_POINT('',(99.0000000745058,59.0000000745058,16.));
#1446=CARTESIAN_POINT('',(99.0000000745058,7.45058059692383E-8,16.));
#1447=CARTESIAN_POINT('',(99.0000000745058,59.0000000745058,0.));
#1448=CARTESIAN_POINT('Origin',(5.00000007450581,59.0000000745058,0.));
#1449=CARTESIAN_POINT('',(5.00000007450581,59.0000000745058,16.));
#1450=CARTESIAN_POINT('',(99.0000000745058,59.0000000745058,16.));
#1451=CARTESIAN_POINT('',(5.00000007450581,59.0000000745058,0.));
#1452=CARTESIAN_POINT('Origin',(5.00000007450581,7.45058059692383E-8,0.));
#1453=CARTESIAN_POINT('',(5.00000007450581,7.45058059692383E-8,16.));
#1454=CARTESIAN_POINT('',(5.00000007450581,59.0000000745058,16.));
#1455=CARTESIAN_POINT('',(5.00000007450581,7.45058059692383E-8,0.));
#1456=CARTESIAN_POINT('Origin',(0.,0.,0.));
#1457=CARTESIAN_POINT('',(0.,0.,16.));
#1458=CARTESIAN_POINT('',(0.,0.,16.));
#1459=CARTESIAN_POINT('',(0.,0.,0.));
#1460=CARTESIAN_POINT('Origin',(0.,64.,0.));
#1461=CARTESIAN_POINT('',(0.,64.,16.));
#1462=CARTESIAN_POINT('Origin',(104.,0.,0.));
#1463=CARTESIAN_POINT('',(104.,0.,16.));
#1464=CARTESIAN_POINT('',(104.,0.,16.));
#1465=CARTESIAN_POINT('',(104.,0.,0.));
#1466=CARTESIAN_POINT('Origin',(99.0000000745058,0.,0.));
#1467=CARTESIAN_POINT('',(0.,0.,16.));
#1468=CARTESIAN_POINT('Origin',(52.,32.,16.));
#1469=UNCERTAINTY_MEASURE_WITH_UNIT(LENGTH_MEASURE(0.01),#1473,
'DISTANCE_ACCURACY_VALUE',
'Maximum model space distance between geometric entities at asserted c
onnectivities');
#1470=UNCERTAINTY_MEASURE_WITH_UNIT(LENGTH_MEASURE(0.01),#1473,
'DISTANCE_ACCURACY_VALUE',
'Maximum model space distance between geometric entities at asserted c
onnectivities');
#1471=(
GEOMETRIC_REPRESENTATION_CONTEXT(3)
GLOBAL_UNCERTAINTY_ASSIGNED_CONTEXT((#1469))
GLOBAL_UNIT_ASSIGNED_CONTEXT((#1473,#1475,#1476))
REPRESENTATION_CONTEXT('','3D')
);
#1472=(
GEOMETRIC_REPRESENTATION_CONTEXT(3)
GLOBAL_UNCERTAINTY_ASSIGNED_CONTEXT((#1470))
GLOBAL_UNIT_ASSIGNED_CONTEXT((#1473,#1475,#1476))
REPRESENTATION_CONTEXT('','3D')
);
#1473=(
LENGTH_UNIT()
NAMED_UNIT(*)
SI_UNIT(.MILLI.,.METRE.)
);
#1474=(
LENGTH_UNIT()
NAMED_UNIT(*)
SI_UNIT($,.METRE.)
);
#1475=(
NAMED_UNIT(*)
PLANE_ANGLE_UNIT()
SI_UNIT($,.RADIAN.)
);
#1476=(
NAMED_UNIT(*)
SI_UNIT($,.STERADIAN.)
SOLID_ANGLE_UNIT()
);
#1477=SHAPE_DEFINITION_REPRESENTATION(#1478,#1479);
#1478=PRODUCT_DEFINITION_SHAPE('',$,#1481);
#1479=SHAPE_REPRESENTATION('',(#869),#1471);
#1480=PRODUCT_DEFINITION_CONTEXT('part definition',#1485,'design');
#1481=PRODUCT_DEFINITION('Walls','Walls v22',#1482,#1480);
#1482=PRODUCT_DEFINITION_FORMATION('',$,#1487);
#1483=PRODUCT_RELATED_PRODUCT_CATEGORY('Walls v22','Walls v22',(#1487));
#1484=APPLICATION_PROTOCOL_DEFINITION('international standard',
'automotive_design',2009,#1485);
#1485=APPLICATION_CONTEXT(
'Core Data for Automotive Mechanical Design Process');
#1486=PRODUCT_CONTEXT('part definition',#1485,'mechanical');
#1487=PRODUCT('Walls','Walls v22',$,(#1486));
#1488=PRESENTATION_STYLE_ASSIGNMENT((#1489));
#1489=SURFACE_STYLE_USAGE(.BOTH.,#1490);
#1490=SURFACE_SIDE_STYLE('',(#1491));
#1491=SURFACE_STYLE_FILL_AREA(#1492);
#1492=FILL_AREA_STYLE('EPX 82 (with Carbon M2 M3 L1 3D Printers)',(#1493));
#1493=FILL_AREA_STYLE_COLOUR(
'EPX 82 (with Carbon M2 M3 L1 3D Printers)',#1494);
#1494=COLOUR_RGB('EPX 82 (with Carbon M2 M3 L1 3D Printers)',0.247058823529412,
0.247058823529412,0.247058823529412);
ENDSEC;
END-ISO-10303-21;
